<svg xmlns="http://www.w3.org/2000/svg" xmlns:xlink="http://www.w3.org/1999/xlink" version="1.1" x="0px" y="0px" viewBox="0 0 100 125" style="enable-background:new 0 0 100 100;" xml:space="preserve"><g><path d="M50,17c-18.2,0-33,14.8-33,33s14.8,33,33,33s33-14.8,33-33S68.2,17,50,17z M60.8,37.1l7.6-3.8c0.6-0.3,1.5-0.2,1.9,0.3   c0.7,0.8,0.4,2-0.5,2.4l-3.5,1.7c-0.7,0.4-0.7,1.4,0,1.8l3.5,1.9c0.7,0.4,1.1,1.3,0.8,2c-0.3,0.6-0.8,1-1.4,1   c-0.3,0-0.5-0.1-0.8-0.2l-7.7-4.3c-0.5-0.3-0.8-0.8-0.8-1.4C60,37.9,60.3,37.3,60.8,37.1z M33.6,37.7L30.1,36   c-0.9-0.4-1.2-1.6-0.5-2.4c0.5-0.5,1.3-0.7,1.9-0.3l7.6,3.8c0.5,0.3,0.9,0.8,0.9,1.4s-0.3,1.2-0.8,1.4l-7.7,4.3   c-0.2,0.1-0.5,0.2-0.8,0.2c-0.6,0-1.2-0.3-1.4-1c-0.3-0.7,0.1-1.6,0.8-2l3.5-1.9C34.3,39.1,34.3,38.1,33.6,37.7z M50,70.8   c-11.9,0-21.7-8.6-22.8-19.9c-0.1-0.6,0.4-1.1,1-1.1h43.6c0.6,0,1.1,0.5,1,1.1C71.6,62.2,61.9,70.8,50,70.8z"/><path d="M35,61.3c3.7,4.1,9.1,6.5,15,6.5c5.8,0,11.2-2.4,15-6.5c-4.3-1.9-9.5-3-15-3C44.6,58.3,39.4,59.4,35,61.3z"/></g><text x="0" y="115" fill="#000000" font-size="5px" font-weight="bold" font-family="'Helvetica Neue', Helvetica, Arial-Unicode, Arial, Sans-serif">Created by DesignBite</text><text x="0" y="120" fill="#000000" font-size="5px" font-weight="bold" font-family="'Helvetica Neue', Helvetica, Arial-Unicode, Arial, Sans-serif">from the Noun Project</text></svg>