<svg xmlns="http://www.w3.org/2000/svg" xmlns:xlink="http://www.w3.org/1999/xlink" version="1.1" x="0px" y="0px" viewBox="0 0 51 63.75" style="enable-background:new 0 0 51 51;" xml:space="preserve"><g><path d="M40.22008,10.46376c-2.2276-2.0728-2.6921-2.9688-3.0609-3.4048c-0.3912-1.4493-0.753-2.9123-2.2034-3.4966   c0.6848-0.9157,0.0678-2.2487-1.7513-2.0478c-1.8511,0.2051-3.7007,0.4277-5.5503,0.6513   c-10.4677,1.2613-11.4208,1.185-13.4409,1.379c-4.0953,0.3215-5.6331,0-6.7529,3.875c-0.8492,2.9394-1.5435,5.9589-2.064,8.9755   c-0.251,1.4561-0.374,3.0977,0.6138,4.2422c0.1759,0.2041,0.37751,0.3657,0.5889,0.5088c-0.2263,1.39-0.4363,2.7815-0.61239,4.1709   c-0.52191,4.2012-0.83251,8.3975-0.92281,12.4697c-0.1494,6.127,1.6025,8.1485,7.8086,9.0137   c4.584,0.6445,8.082,1.1465,10.7768,1.5332c6.273,0.9004,8.166,1.1719,9.335,1.1719c0.5107,0,0.8716-0.0547,1.2558-0.1201   c0.2941-0.0491,0.5742-0.1262,0.846-0.2161c0.0364,0.0088,0.0663,0.0335,0.1052,0.0335c0.0235,0,0.0479-0.002,0.0718-0.0049   c1.2529-0.1817,6.07761-1.5225,7.1704-1.9942c1.2505-0.541,2.3481-2.1474,2.90821-3.3584c0.605-1.3066,0.604-2.8154,0.603-4.1455   c-0.00441-5.2304-0.00882-10.6386-0.832-15.9238C43.51648,13.53016,42.34558,12.44036,40.22008,10.46376z M6.38169,16.56536   c0.51419-2.9805,1.20019-5.9639,2.03959-8.8682c0.9219-3.1951,1.7946-2.8362,5.8701-3.1553l2.4365-0.1943   c6.9404-0.5676,15.8639-1.8526,16.8291-1.8526c1.0775,0,0.6985,0.7327-0.103,0.8243c-0.5815,0.0693-1.9429,0.2324-2.4814,2.0595   c-0.084,0.2842-0.0835,0.7256-0.0826,1.4571c0.0015,1.9336,0.0049,5.5351-1.623,9.9619c-1.1538,3.1396-2.3945,3.668-5.7856,3.749   c-14.2715,0.3025-15.5968,0.7336-16.7144-0.5625C6.05308,19.15716,6.16008,17.85246,6.38169,16.56536z M23.79138,47.34366   c-2.6953-0.3867-6.1948-0.8887-10.7803-1.5332c-5.2529-0.7324-7.0922-2.0508-6.9472-8.001   c0.0893-4.0391,0.3969-8.2012,0.915-12.3682c0.1623-1.2801,0.3613-2.5627,0.5671-3.8443   c1.6384,0.5143,2.7333,0.1886,15.9598-0.0502c3.427-0.0824,5.1593-0.6583,6.4842-3.857   c-0.5876,10.1547-0.3166,20.7838,0.8388,30.6341C29.41778,48.15116,27.26869,47.84276,23.79138,47.34366z M34.07358,48.39926   c-0.4121,0.0704-0.6938,0.1065-1.0893,0.1065c-0.3864,0-0.895-0.0374-1.6489-0.1223c-1.2333-10.448-1.4518-21.7749-0.7173-32.4837   c1.2621-4.0158,1.2733-7.2535,1.2719-9.0649c-0.0004-0.5293-0.0009-1.0283,0.0416-1.1729   c0.3012-1.0221,0.8418-1.2424,1.7265-1.3615c1.4492,0.0816,1.9212,0.802,2.3555,2.3235   c3.7309,13.0908,2.1499,27.4189,0.7427,40.0712C36.28598,47.56146,35.29138,48.19616,34.07358,48.39926z M39.14038,19.46166   c0.3057,1.153,0.5686,2.3517,0.7765,3.6076c0.811,4.8974,0.8154,9.9433,0.81981,14.8232   c0.00219,2.5787-0.19971,4.2575-2.60091,5.398C38.95918,35.64686,39.66498,27.51576,39.14038,19.46166z M37.26158,47.71666   c0.1647-0.2043,0.3134-0.4187,0.4287-0.6494c0.02641-0.0527,0.043-0.1094,0.0498-0.168c0.0907-0.8149,0.1821-1.6372,0.2728-2.4654   c0.0669-0.025,0.1353-0.0426,0.2019-0.0697c3-1.2158,3.5244-3.2805,3.52192-6.4717   c-0.00441-4.9209-0.00882-10.0078-0.83352-14.9873c-0.4768-2.8816-1.2211-5.4934-2.1893-7.8585   c-0.2413-1.9037-0.5613-3.7968-0.9807-5.6716c0.6867,0.7767,1.28651,1.3382,1.8058,1.8211   c2.0259,1.8838,3.0429,2.8301,4.5854,12.7344c0.8115,5.208,0.8159,10.5771,0.82031,15.7695   C44.94988,46.25846,41.82488,46.53306,37.26158,47.71666z"/><path d="M9.78648,24.65616c-0.4846,0-0.1376-0.0048-0.2949,13.9551c-0.0005,0.1386,0.1113,0.2509,0.249,0.2509   c0,0,0.0005,0,0.001,0c0.1377,0,0.2495-0.1113,0.25-0.249l0.0449-13.706C10.03738,24.65176,9.68648,24.61126,9.78648,24.65616z"/><path d="M13.07508,6.94126c0.0064,0,0.0127,0,0.01861-0.0009l11.10789-0.8077c0.1377-0.0097,0.2412-0.1298,0.2314-0.2675   c-0.0102-0.1377-0.146-0.253-0.2676-0.2305l-11.1079,0.8076c-0.1377,0.0098-0.2412,0.1299-0.2314,0.2676   C12.83578,6.84076,12.94569,6.94126,13.07508,6.94126z"/><path d="M18.16098,15.51256c-0.2954-0.1943-0.6635-0.2978-1.0649-0.2978c-0.9927,0-2.144,0.6338-2.352,1.6943   c-0.1036,0.5264,0.0405,1.0606,0.4062,1.5049c0.4473,0.5439,1.1572,0.8818,1.8516,0.8818c0.1733,0,0.34181-0.0215,0.5009-0.0644   c0.6763-0.1807,1.2354-0.7002,1.4585-1.3565C19.25138,17.02136,18.90708,16.00576,18.16098,15.51256z M18.48769,17.71476   c-0.16751,0.4922-0.60451,0.8974-1.11381,1.0342c-0.604,0.163-1.4028-0.125-1.8379-0.6534   c-0.1899-0.2304-0.3964-0.6074-0.3017-1.0908c0.1567-0.7969,1.08841-1.29,1.8618-1.29c0.3032,0,0.5762,0.0742,0.78961,0.2158   C18.43888,16.29576,18.70348,17.07896,18.48769,17.71476z"/></g><text x="0" y="66" fill="#000000" font-size="5px" font-weight="bold" font-family="'Helvetica Neue', Helvetica, Arial-Unicode, Arial, Sans-serif">Created by Vectors Point</text><text x="0" y="71" fill="#000000" font-size="5px" font-weight="bold" font-family="'Helvetica Neue', Helvetica, Arial-Unicode, Arial, Sans-serif">from the Noun Project</text></svg>