<svg xmlns="http://www.w3.org/2000/svg" data-name="Layer 1" viewBox="0 0 100 125" x="0px" y="0px"><title>Noun_Project_10Icon_10px_grid</title><path d="M77.57,41.18h0a18.48,18.48,0,0,0-3-1.35c-11.95-5.42-11.85-24-11.82-25,0-.2.06-0.39,0.06-0.59a9.23,9.23,0,0,0-8-9.16,9,9,0,0,0-9.71,7c-0.54,2.44-.63,15.13,4.93,26.78H49.86a8.81,8.81,0,0,1-.55,11.5c4.08,0.61,6.85,4.06,6.85,8.85A9,9,0,0,1,52,66.69a9,9,0,0,1-5,16.37A8.84,8.84,0,0,1,47,95H68.59A18.35,18.35,0,0,0,86.94,76.65V57.17A18.33,18.33,0,0,0,77.57,41.18Z"/><path d="M40.38,83.07H30.78a6,6,0,0,0,0,11.93h9.59A6,6,0,0,0,40.38,83.07Z"/><path d="M40.38,80.06H47a6,6,0,0,0,0-11.93H20.62a6,6,0,0,0,0,11.93H40.38Z"/><path d="M20.81,65.13H47.19a6,6,0,0,0,6-6c0-3.29-1.82-6-5.11-6H20.81A6,6,0,1,0,20.81,65.13Z"/><path d="M42.76,50.2a6,6,0,0,0,0-11.92H27.61a6,6,0,1,0,0,11.92H42.76Z"/><text x="0" y="115" fill="#000000" font-size="5px" font-weight="bold" font-family="'Helvetica Neue', Helvetica, Arial-Unicode, Arial, Sans-serif">Created by Aaron K. Kim</text><text x="0" y="120" fill="#000000" font-size="5px" font-weight="bold" font-family="'Helvetica Neue', Helvetica, Arial-Unicode, Arial, Sans-serif">from the Noun Project</text></svg>