<svg xmlns="http://www.w3.org/2000/svg" xmlns:xlink="http://www.w3.org/1999/xlink" version="1.1" x="0px" y="0px" viewBox="0 0 100 125" enable-background="new 0 0 100 100" xml:space="preserve"><g><path d="M66.941,33.508c0-3.955-11.082-5-16.941-5c-5.859,0-16.941,1.045-16.941,5s11.082,5,16.941,5   C55.859,38.508,66.941,37.463,66.941,33.508z M35.059,33.508c0-0.871,5.236-3,14.941-3c9.705,0,14.941,2.129,14.941,3   s-5.236,3-14.941,3C40.295,36.508,35.059,34.379,35.059,33.508z"/><path d="M75.32,58.891c0.395-0.46,0.621-0.959,0.621-1.506c0-0.75-0.412-1.413-1.133-2.001c0.723-0.589,1.133-1.256,1.133-2.008   c0-0.746-0.408-1.407-1.123-1.992c0.717-0.587,1.123-1.25,1.123-1.998s-0.41-1.41-1.127-1.996c0.719-0.588,1.127-1.252,1.127-2.002   c0-0.748-0.41-1.411-1.129-1.997c0.721-0.589,1.129-1.253,1.129-2.004c0-0.137-0.018-0.271-0.045-0.401   c7.17-1.646,12.045-4.081,12.045-7.243c0-6.333-19.549-9.75-37.941-9.75c-18.394,0-37.941,3.417-37.941,9.75   c0,3.162,4.875,5.598,12.045,7.243c-0.027,0.131-0.045,0.265-0.045,0.401c0,0.751,0.408,1.416,1.129,2.004   c-0.719,0.587-1.129,1.249-1.129,1.997c0,0.75,0.408,1.414,1.127,2.002c-0.718,0.586-1.127,1.248-1.127,1.996   s0.406,1.411,1.122,1.998c-0.715,0.585-1.122,1.246-1.122,1.992c0,0.753,0.41,1.419,1.133,2.008   c-0.721,0.588-1.133,1.251-1.133,2.001c0,0.547,0.226,1.046,0.621,1.506c-7.479,1.646-12.621,4.122-12.621,7.367   c0,6.333,19.548,9.75,37.941,9.75c18.392,0,37.941-3.417,37.941-9.75C87.941,63.013,82.799,60.536,75.32,58.891z M73.941,65.375   c0,1.236-8.146,4.133-23.941,4.133c-15.796,0-23.941-2.896-23.941-4.133c0-0.248,0.339-0.563,0.993-0.908   c5.274,2.336,16.302,3.041,22.948,3.041c6.646,0,17.673-0.705,22.947-3.041C73.602,64.812,73.941,65.127,73.941,65.375z    M72.957,60.472c0.648,0.344,0.984,0.656,0.984,0.903c0,1.236-8.146,4.133-23.941,4.133c-15.796,0-23.941-2.896-23.941-4.133   c0-0.247,0.336-0.561,0.983-0.903c5.271,2.34,16.308,3.046,22.958,3.046C56.65,63.518,67.688,62.812,72.957,60.472z M14.059,33.742   c0-3.236,13.674-7.75,35.941-7.75c22.267,0,35.941,4.514,35.941,7.75S72.268,41.492,50,41.492   C27.733,41.492,14.059,36.979,14.059,33.742z M50,43.492c8.396,0,17.027-0.714,23.935-2.091C73.875,42.646,65.736,45.52,50,45.52   c-15.737,0-23.876-2.874-23.936-4.118C32.973,42.778,41.604,43.492,50,43.492z M50,47.52c6.646,0,17.671-0.705,22.947-3.041   c0.654,0.346,0.994,0.661,0.994,0.909c0,1.236-8.146,4.133-23.941,4.133c-15.796,0-23.941-2.896-23.941-4.133   c0-0.248,0.339-0.563,0.994-0.909C32.328,46.814,43.354,47.52,50,47.52z M50,51.521c6.648,0,17.675-0.705,22.949-3.042   c0.654,0.345,0.992,0.659,0.992,0.907c0,1.236-8.146,4.133-23.941,4.133c-15.796,0-23.941-2.896-23.941-4.133   c0-0.248,0.338-0.563,0.99-0.907C32.324,50.815,43.353,51.521,50,51.521z M50,55.519c6.65,0,17.687-0.705,22.957-3.045   c0.648,0.342,0.984,0.656,0.984,0.902c0,1.236-8.146,4.133-23.941,4.133c-15.796,0-23.941-2.896-23.941-4.133   c0-0.246,0.336-0.561,0.983-0.902C32.313,54.813,43.35,55.519,50,55.519z M50,59.509c6.642,0,17.66-0.704,22.939-3.037   c0.66,0.347,1.002,0.664,1.002,0.913c0,1.236-8.146,4.133-23.941,4.133c-15.796,0-23.941-2.896-23.941-4.133   c0-0.249,0.342-0.566,1.002-0.913C32.339,58.805,43.358,59.509,50,59.509z M50,74.008c-22.268,0-35.941-4.514-35.941-7.75   c0-1.653,3.57-3.639,10.028-5.187c-0.016,0.1-0.028,0.2-0.028,0.304c0,0.751,0.408,1.415,1.128,2.003   c-0.719,0.587-1.128,1.249-1.128,1.997c0,4.852,16.969,6.133,25.941,6.133c8.972,0,25.941-1.281,25.941-6.133   c0-0.748-0.41-1.41-1.129-1.997c0.721-0.588,1.129-1.252,1.129-2.003c0-0.104-0.014-0.204-0.029-0.304   c6.457,1.548,10.029,3.533,10.029,5.187C85.941,69.494,72.268,74.008,50,74.008z"/></g><text x="0" y="115" fill="#000000" font-size="5px" font-weight="bold" font-family="'Helvetica Neue', Helvetica, Arial-Unicode, Arial, Sans-serif">Created by Nikita Kozin</text><text x="0" y="120" fill="#000000" font-size="5px" font-weight="bold" font-family="'Helvetica Neue', Helvetica, Arial-Unicode, Arial, Sans-serif">from the Noun Project</text></svg>