<svg xmlns="http://www.w3.org/2000/svg" xmlns:xlink="http://www.w3.org/1999/xlink" version="1.1" x="0px" y="0px" viewBox="0 0 70 87.5" style="enable-background:new 0 0 70 70;" xml:space="preserve"><g><path d="M63.38609,9.03365c-8.48997-2.90273-14.3535-9.10581-20.74512-4.19659c-2.61914,2.00409-3.87915,5.13916-3.36322,8.39331   c0.20831,1.30957,0.02972,2.64893-0.50598,3.85931l-18.3045,41.02393c-0.10913,0.2381-0.3175,0.40674-0.56555,0.46625   L6.79594,61.46694c-0.45636,0.09918-0.77386,0.50598-0.77386,0.97223c0,0.46637,0.3175,0.86316,0.77386,0.9624l15.81427,3.48236   c0.32739,0.06934,0.65479,0.10907,0.98224,0.10907c1.77582,0,3.45251-1.05164,4.20654-2.72827l20.12994-45.13129   c0.28778-0.6449,0.38696-1.3493,0.27783-2.04376c-0.09924-0.60522,0.13885-1.19055,0.62506-1.55762   c0.48608-0.37701,1.11115-0.44647,1.66675-0.19843l8.40314,3.75018c0.39691,0.17859,0.85321,0.07935,1.14099-0.2381   c0.28766-0.3175,0.33728-0.78375,0.12897-1.16077l-3.11523-5.45667l6.14117-1.31952c0.41663-0.08923,0.73413-0.43652,0.7738-0.8631   C64.0211,9.61904,63.78294,9.2123,63.38609,9.03365z"/></g><text x="0" y="85" fill="#000000" font-size="5px" font-weight="bold" font-family="'Helvetica Neue', Helvetica, Arial-Unicode, Arial, Sans-serif">Created by Vectors Point</text><text x="0" y="90" fill="#000000" font-size="5px" font-weight="bold" font-family="'Helvetica Neue', Helvetica, Arial-Unicode, Arial, Sans-serif">from the Noun Project</text></svg>