<svg xmlns="http://www.w3.org/2000/svg" xmlns:xlink="http://www.w3.org/1999/xlink" version="1.1" x="0px" y="0px" viewBox="0 0 128 160" enable-background="new 0 0 128 128" xml:space="preserve"><path fill-rule="evenodd" clip-rule="evenodd" d="M104.63,53.688h-4.039V36.518C100.547,16.359,84.167,0,64.002,0  C43.827,0,27.447,16.359,27.405,36.518l0.034,17.171H23.36c-3.269,0-5.924,2.658-5.924,5.929v62.455  c0,3.271,2.655,5.928,5.924,5.928h81.27c3.277,0,5.934-2.656,5.934-5.928V59.617C110.563,56.347,107.907,53.688,104.63,53.688z   M72.625,109.293H55.37l3.519-21.64c-2.312-1.616-3.829-4.29-3.829-7.327c0-4.938,3.992-8.938,8.938-8.938  c4.933,0,8.938,4.001,8.938,8.938c0,3.037-1.535,5.711-3.846,7.327L72.625,109.293z M40.672,53.688l-0.03-17.171  c0.043-12.847,10.494-23.276,23.36-23.276c12.857,0,23.309,10.43,23.343,23.276l0.009,17.171H40.672z"/><text x="0" y="143" fill="#000000" font-size="5px" font-weight="bold" font-family="'Helvetica Neue', Helvetica, Arial-Unicode, Arial, Sans-serif">Created by Rflor</text><text x="0" y="148" fill="#000000" font-size="5px" font-weight="bold" font-family="'Helvetica Neue', Helvetica, Arial-Unicode, Arial, Sans-serif">from the Noun Project</text></svg>