<svg xmlns="http://www.w3.org/2000/svg" xmlns:xlink="http://www.w3.org/1999/xlink" version="1.1" x="0px" y="0px" viewBox="0 0 100 125" enable-background="new 0 0 100 100" xml:space="preserve"><g><path d="M74.9,56.2c0.9,0.9,2,1.5,3.3,1.8c-1.8,4.4-4.6,8.2-8,11.4v17.1v1.2v1.5c0,1.3-1.1,2.5-2.3,2.8l-33.5,6   c-1.2,0.2-2.3-0.6-2.3-1.8v-0.1v-9.3L22.8,88C19,88,16,85,16,81.3v-6.4v-5.4v-0.1h-3.1c-3.6,0-5.2-2.6-3.5-5.8L16,51v-1.1v-4.3   c0-12.9,7.6-24,18.7-29.1c0.3-0.2,0.7-0.3,1-0.5c0.3,0.9,0.9,1.8,1.6,2.5l0.4,0.4c-0.4,0.8-0.7,1.7-1,2.5h-0.6   c-3.7,0-6.8,3-6.8,6.8v5.1c0,3.7,3,6.8,6.8,6.8h0.6c0.3,0.9,0.7,1.7,1,2.5L37.3,43c-2.6,2.6-2.6,6.9,0,9.6l3.6,3.6   c1.3,1.3,3,2,4.8,2c1.8,0,3.5-0.7,4.8-2l0.4-0.4c0.8,0.4,1.7,0.7,2.5,1v0.6c0,3.7,3,6.8,6.8,6.8h5.1c3.7,0,6.8-3,6.8-6.8v-0.6   c0.9-0.3,1.7-0.7,2.5-1L74.9,56.2z M62.7,22.3c-4.6,0-8.4,3.8-8.4,8.4c0,4.6,3.8,8.4,8.4,8.4s8.4-3.8,8.4-8.4   C71.1,26.1,67.3,22.3,62.7,22.3z M91.2,28.2v5.1c0,1-0.8,1.9-1.9,1.9h-4.3c-0.6,3-1.8,5.8-3.4,8.2l3,3c0.7,0.7,0.7,1.9,0,2.7   l-3.6,3.6c-0.7,0.7-1.9,0.7-2.7,0l-3-3c-2.5,1.6-5.2,2.8-8.2,3.4v4.3c0,1-0.8,1.9-1.9,1.9h-5.1c-1,0-1.9-0.8-1.9-1.9v-4.3   c-3-0.6-5.8-1.8-8.2-3.4l-3,3c-0.7,0.7-1.9,0.7-2.7,0l-3.6-3.6c-0.7-0.7-0.7-1.9,0-2.7l3-3c-1.6-2.5-2.8-5.2-3.4-8.2h-4.3   c-1,0-1.9-0.8-1.9-1.9v-5.1c0-1,0.8-1.9,1.9-1.9h4.3c0.6-3,1.8-5.8,3.4-8.2l-3-3c-0.7-0.7-0.7-1.9,0-2.7l3.6-3.6   C45.1,8,46.3,8,47,8.7l3,3c2.5-1.6,5.2-2.8,8.2-3.4V4.1c0-1,0.8-1.9,1.9-1.9h5.1c1,0,1.9,0.8,1.9,1.9v4.3c3,0.6,5.8,1.8,8.2,3.4   l3-3c0.7-0.7,1.9-0.7,2.7,0l3.6,3.6c0.7,0.7,0.7,1.9,0,2.7l-3,3c1.6,2.5,2.8,5.2,3.4,8.2h4.3C90.4,26.3,91.2,27.1,91.2,28.2z    M76,30.7c0-7.3-6-13.3-13.3-13.3c-7.3,0-13.3,6-13.3,13.3c0,7.3,6,13.3,13.3,13.3C70,44,76,38.1,76,30.7z"/></g><text x="0" y="115" fill="#000000" font-size="5px" font-weight="bold" font-family="'Helvetica Neue', Helvetica, Arial-Unicode, Arial, Sans-serif">Created by Gregor Cresnar</text><text x="0" y="120" fill="#000000" font-size="5px" font-weight="bold" font-family="'Helvetica Neue', Helvetica, Arial-Unicode, Arial, Sans-serif">from the Noun Project</text></svg>