<svg xmlns:dc="http://purl.org/dc/elements/1.1/" xmlns:cc="http://creativecommons.org/ns#" xmlns:rdf="http://www.w3.org/1999/02/22-rdf-syntax-ns#" xmlns:svg="http://www.w3.org/2000/svg" xmlns="http://www.w3.org/2000/svg" xmlns:sodipodi="http://sodipodi.sourceforge.net/DTD/sodipodi-0.dtd" xmlns:inkscape="http://www.inkscape.org/namespaces/inkscape" version="1.1" x="0px" y="0px" viewBox="0 0 100 125"><g transform="translate(0,-952.36218)"><path style="text-indent:0;text-transform:none;direction:ltr;block-progression:tb;baseline-shift:baseline;color:#000000;enable-background:accumulate;" d="m 23.16165,972.05816 c -2.569,0.0236 -5.2534,0.36522 -8.0906,1.1325 -0.2113,0.0572 -0.4025,0.18599 -0.5349,0.36028 -0.1325,0.17429 -0.2053,0.39302 -0.2038,0.6119 l 0.0534,7.76969 -4.9550001,-2.15594 c -0.1514,-0.0658 -0.3192,-0.0934 -0.4837,-0.0794 -0.1645,0.014 -0.3253,0.0695 -0.4633,0.15994 -0.1381,0.0904 -0.2532,0.21569 -0.3317,0.3609 -0.0786,0.14521 -0.1203,0.31009 -0.1204,0.47517 l -0.0318,50.9737 c 0,0.2619 0.1076,0.5222 0.2927,0.7074 0.1851,0.1853 0.4454,0.2932 0.7073,0.2932 l 82.0003001,0 c 0.2619,0 0.5223,-0.1079 0.7074,-0.2933 0.1851,-0.1853 0.2928,-0.4457 0.2926,-0.7076 l -0.0385,-50.97376 c 0,-0.16495 -0.042,-0.3297 -0.1205,-0.47479 -0.0785,-0.14508 -0.1935,-0.27022 -0.3315,-0.36062 -0.138,-0.0904 -0.2986,-0.1459 -0.463,-0.15994 -0.1643,-0.014 -0.3321,0.0134 -0.4834,0.0791 l -4.9506,2.15219 0.055,-7.76562 c 0.0015,-0.21899 -0.0713,-0.43784 -0.2038,-0.6122 -0.1325,-0.17435 -0.3239,-0.30316 -0.5353,-0.3603 -13.8329,-3.73825 -24.0305,2.62841 -34.9337,6.63593 -8.6653,-3.18501 -16.8849,-7.85981 -26.8332,-7.76843 z m 0.0572,1.99937 c 9.2771,-0.0725 17.0409,4.28883 25.781,7.53375 l 0,48.20932 c -7.3434,-4.2199 -16.029,-8.3808 -32.326,-5.9737 l -0.3365,-48.89624 c 2.4007,-0.58876 4.6839,-0.85596 6.8815,-0.87313 z m 53.5575,0 c 2.1988,0.0172 4.4832,0.28438 6.8857,0.87313 l -0.3454,48.89594 c -16.282,-2.4061 -24.9742,1.7505 -32.3168,5.9687 l 0,-48.20777 c 8.7361,-3.24455 16.498,-7.60249 25.7765,-7.53 z m 13.1866,8.16063 0.0366,48.44934 -36.4916,0 c 7.0329,-3.9251 15.1503,-7.2172 30.6394,-4.6888 0.1419,0.023 0.2889,0.015 0.4275,-0.023 0.1386,-0.038 0.2687,-0.1069 0.3787,-0.1997 0.1099,-0.093 0.1994,-0.2095 0.2604,-0.3397 0.0611,-0.1302 0.0936,-0.2737 0.0946,-0.4176 l 0.2888,-40.88242 z m -79.9322,6.2e-4 4.37,1.90156 0.2809,40.87836 c 0.001,0.1438 0.0335,0.2873 0.0946,0.4175 0.061,0.1302 0.1505,0.247 0.2604,0.3397 0.1099,0.093 0.24,0.1614 0.3786,0.1997 0.1386,0.038 0.2855,0.046 0.4274,0.023 15.498,-2.5286 23.6089,0.7635 30.6403,4.6888 l -36.4825,0 z" fill="#000000" fill-opacity="1" fill-rule="evenodd" stroke="none" marker="none" visibility="visible" display="inline" overflow="visible"/></g><text x="0" y="115" fill="#000000" font-size="5px" font-weight="bold" font-family="'Helvetica Neue', Helvetica, Arial-Unicode, Arial, Sans-serif">Created by iconesia</text><text x="0" y="120" fill="#000000" font-size="5px" font-weight="bold" font-family="'Helvetica Neue', Helvetica, Arial-Unicode, Arial, Sans-serif">from the Noun Project</text></svg>