<svg xmlns="http://www.w3.org/2000/svg" xmlns:xlink="http://www.w3.org/1999/xlink" viewBox="0 0 100 125" version="1.1" x="0px" y="0px"><title>brain-3</title><desc>Created with Sketch.</desc><g stroke="none" stroke-width="1" fill="none" fill-rule="evenodd"><path d="M88.8511795,55.2681683 C89.4465781,56.9728131 88.1809552,58.7503152 86.3808633,58.7503152 L76.7390409,58.7503152 L76.7390409,75.9681923 C76.7390409,80.2410544 73.2831638,83.7049869 69.0191694,83.7049869 L61.3409864,83.7049869 L61.3409864,95 L29.8778599,95 L29.8778599,86.0374896 C29.8778599,78.1721234 26.8997981,70.5317574 21.333837,64.989251 C14.3397745,58.0249572 10.2639132,48.1217315 11.1105122,37.2788618 C12.4049964,20.6684854 25.5347641,7.07739826 42.0541348,5.22275326 C59.9107471,3.21810808 75.820823,14.9791931 80.6705956,31.0195688 C82.2472794,36.2363606 86.6876486,49.0581611 88.8511795,55.2681683 Z M68.1886044,34.2113582 C71.1901828,29.5013528 66.6439887,23.5045601 62.7883287,21.0306287 C56.3597345,16.9066953 48.2881822,15.2877649 40.8537172,17.0202669 C24.5598924,20.8163427 17.6705859,37.5402907 24.9297451,52.1267361 C27.282478,56.852813 33.5240081,57.9306714 37.2503266,54.1945956 C45.0118867,46.4149438 51.2373827,41.305295 61.7706995,37.947434 C61.8818691,37.9120768 61.9941076,37.8767196 62.1063461,37.8424339 C64.408839,37.122433 66.8898445,36.2481463 68.1886044,34.2113582 Z" fill="#000000"/></g><text x="0" y="115" fill="#000000" font-size="5px" font-weight="bold" font-family="'Helvetica Neue', Helvetica, Arial-Unicode, Arial, Sans-serif">Created by Icon Island</text><text x="0" y="120" fill="#000000" font-size="5px" font-weight="bold" font-family="'Helvetica Neue', Helvetica, Arial-Unicode, Arial, Sans-serif">from the Noun Project</text></svg>