<svg xmlns="http://www.w3.org/2000/svg" xmlns:xlink="http://www.w3.org/1999/xlink" version="1.1" x="0px" y="0px" viewBox="0 0 98.418 79.805" enable-background="new 0 0 98.418 63.844" xml:space="preserve"><path d="M96.752,3.347c-1.792-2.202-4.51-3.393-7.639-3.345c-2.931,0.044-5.907,1.177-8.383,3.192c0,0-61.677,50.288-64.878,52.811  c-3.201,2.522-15.748-0.5-15.748-0.5L0,56.715l9.689,7.129c0,0,4.887-0.815,9.094-4.241L83.662,6.794  c0.092-0.077,0.188-0.152,0.283-0.225l0,0c9.434-7.624,12.424-1.507,12.424-1.507s-2.882-1.935-6.28-0.378  c1.31,0.139,2.444,0.644,3.062,1.592c2.628,4.026-6.129,5.475-10.63,9.282l3.54,3.012l5.408-3.854l-3.703,5.303l3.751,3.188  C97.979,17.244,100.312,7.722,96.752,3.347z"/><text x="0" y="78.844" fill="#000000" font-size="5px" font-weight="bold" font-family="'Helvetica Neue', Helvetica, Arial-Unicode, Arial, Sans-serif">Created by Andreas Bjurenborg</text><text x="0" y="83.844" fill="#000000" font-size="5px" font-weight="bold" font-family="'Helvetica Neue', Helvetica, Arial-Unicode, Arial, Sans-serif">from the Noun Project</text></svg>