<svg xmlns="http://www.w3.org/2000/svg" xmlns:xlink="http://www.w3.org/1999/xlink" version="1.1" x="0px" y="0px" viewBox="0 0 24 30" enable-background="new 0 0 24 24" xml:space="preserve"><g><path d="M8.059,11.688c0.01,0.031,0.022,0.06,0.036,0.089c0.034,0.072,0.077,0.14,0.133,0.199c0.004,0.004,0.005,0.009,0.008,0.013   l0.005,0.005l0.98,0.98l-6.657,6.656l-1.087,0.518c-0.071,0.034-0.131,0.089-0.172,0.156L0.098,22.33   c-0.094,0.157-0.068,0.358,0.061,0.488l1.022,1.022c0.077,0.077,0.18,0.117,0.283,0.117c0.07,0,0.142-0.019,0.205-0.057   l2.026-1.209c0.067-0.041,0.122-0.101,0.156-0.172l0.519-1.09l6.654-6.653l0.98,0.98l0.002,0.002   c0.146,0.147,0.342,0.229,0.551,0.229c0.073,0,0.146-0.011,0.211-0.03c0.271-0.076,0.48-0.294,0.545-0.568   c0.002-0.007,0.115-0.449,0.394-1c0.02-0.039,0.035-0.074,0.057-0.114c0.004-0.007,0.009-0.015,0.013-0.022   c0.062-0.114,0.13-0.231,0.206-0.35c0.005-0.007,0.01-0.014,0.015-0.021c0.077-0.118,0.161-0.237,0.254-0.355   c0.097-0.122,0.203-0.242,0.318-0.358c0.003-0.003,0.006-0.003,0.009-0.006c0.002-0.002,0.003-0.006,0.005-0.008   c0.073-0.072,0.138-0.127,0.201-0.168c0.185-0.118,0.346-0.107,0.649-0.086c0.524,0.042,1.314,0.101,2.185-0.768l3.426-3.426   l1.827-1.827c0.178-0.178,0.335-0.372,0.472-0.578c0.02-0.031,0.032-0.065,0.051-0.096c0.11-0.177,0.212-0.359,0.29-0.552   c0.004-0.01,0.005-0.02,0.009-0.03c0.17-0.43,0.264-0.891,0.264-1.368c0-0.714-0.207-1.393-0.58-1.981   c-0.013-0.02-0.02-0.042-0.033-0.062c-0.137-0.206-0.294-0.401-0.473-0.579l-0.511-0.511c-1.446-1.444-3.798-1.446-5.246,0   l-5.252,5.253c-0.068,0.068-0.122,0.136-0.179,0.204c-0.67,0.787-0.626,1.498-0.59,1.981c0.023,0.303,0.034,0.464-0.087,0.652   c-0.014,0.022-0.04,0.047-0.058,0.069c-0.032,0.041-0.062,0.081-0.108,0.128c-0.002,0.002-0.005,0.003-0.008,0.005   c-0.003,0.003-0.004,0.006-0.006,0.009c-0.116,0.116-0.237,0.222-0.359,0.32C10.224,9.941,9.97,10.1,9.732,10.228   c-0.003,0.002-0.006,0.004-0.009,0.005c-0.046,0.025-0.087,0.043-0.131,0.065c-0.544,0.273-0.977,0.385-0.985,0.387   c-0.271,0.064-0.489,0.271-0.568,0.542c-0.02,0.068-0.029,0.14-0.029,0.213c0,0.023,0.011,0.043,0.013,0.065   C8.028,11.568,8.039,11.628,8.059,11.688z M9.691,11.142c0.053-0.024,0.111-0.054,0.166-0.081c0.081-0.039,0.16-0.076,0.246-0.123   c0.045-0.024,0.092-0.055,0.138-0.081c0.096-0.055,0.191-0.108,0.289-0.172c0.131-0.085,0.263-0.18,0.394-0.282   c0.013-0.01,0.026-0.018,0.039-0.028c0.047-0.037,0.093-0.082,0.14-0.122l2.641,2.642c-0.487,0.573-0.796,1.18-0.972,1.63   c-0.148,0.376-0.211,0.643-0.2,0.665l-0.228-0.224l-1.005-0.992c-0.011-0.015-0.017-0.033-0.031-0.046l-1.237-1.237   c-0.028-0.028-0.062-0.046-0.096-0.064L8.8,11.467c0.027-0.007,0.344-0.091,0.776-0.277C9.615,11.174,9.65,11.161,9.691,11.142z    M3.755,20.914c-0.021,0.021-0.033,0.048-0.048,0.073C3.698,21,3.685,21.01,3.678,21.025L3.67,21.042   c-0.001,0.002-0.002,0.004-0.003,0.006l-0.485,1.018l-1.655,0.987l-0.582-0.582l0.986-1.655l1.043-0.496   c0.022-0.01,0.037-0.029,0.056-0.042c0.018-0.013,0.038-0.02,0.054-0.036l6.703-6.703l0.672,0.672L3.755,20.914z M17.053,11.569   c-0.556,0.557-1.033,0.532-1.505,0.508c-0.359-0.018-0.727-0.036-1.13,0.2c-0.029,0.017-0.061,0.05-0.09,0.07L11.652,9.67   c0.292-0.437,0.289-0.834,0.269-1.22c-0.023-0.466-0.048-0.948,0.509-1.504l3.426-3.426c0.001-0.001,0.001-0.001,0.001-0.002   l1.825-1.825c0.006-0.006,0.014-0.01,0.02-0.016c1.099-1.081,2.999-1.079,4.094,0.016l0.511,0.511   c0.142,0.142,0.266,0.294,0.372,0.455c0.004,0.006,0.007,0.014,0.011,0.02c0.101,0.155,0.187,0.317,0.255,0.485   c0.006,0.015,0.008,0.032,0.014,0.048c0.062,0.16,0.113,0.323,0.145,0.49c0.016,0.082,0.016,0.167,0.024,0.251   c0.02,0.187,0.021,0.374,0.005,0.561c-0.009,0.102-0.01,0.205-0.03,0.304c-0.029,0.147-0.076,0.29-0.128,0.432   c-0.013,0.035-0.018,0.073-0.033,0.108c-0.057,0.14-0.133,0.273-0.213,0.405c-0.02,0.033-0.033,0.069-0.054,0.101   c-0.106,0.16-0.229,0.312-0.37,0.453L17.053,11.569z"/><path d="M19.156,2.175c-0.156-0.156-0.41-0.156-0.566,0l-5.398,5.399c-0.156,0.156-0.156,0.41,0,0.566   c0.078,0.078,0.181,0.117,0.283,0.117s0.205-0.039,0.283-0.117l5.398-5.399C19.312,2.585,19.312,2.332,19.156,2.175z"/><path d="M21.257,4.842l-5.399,5.399c-0.156,0.156-0.156,0.41,0,0.566c0.078,0.078,0.181,0.117,0.283,0.117s0.205-0.039,0.283-0.117   l5.399-5.399c0.156-0.156,0.156-0.41,0-0.566S21.413,4.686,21.257,4.842z"/><path d="M20.49,3.508c-0.156-0.156-0.41-0.156-0.566,0l-5.399,5.399c-0.156,0.156-0.156,0.41,0,0.566   c0.078,0.078,0.181,0.117,0.283,0.117s0.205-0.039,0.283-0.117l5.399-5.399C20.646,3.918,20.646,3.665,20.49,3.508z"/></g><text x="0" y="39" fill="#000000" font-size="5px" font-weight="bold" font-family="'Helvetica Neue', Helvetica, Arial-Unicode, Arial, Sans-serif">Created by Atif Arshad</text><text x="0" y="44" fill="#000000" font-size="5px" font-weight="bold" font-family="'Helvetica Neue', Helvetica, Arial-Unicode, Arial, Sans-serif">from the Noun Project</text></svg>