<svg xmlns="http://www.w3.org/2000/svg" xmlns:xlink="http://www.w3.org/1999/xlink" version="1.1" x="0px" y="0px" viewBox="0 0 100 125" enable-background="new 0 0 100 100" xml:space="preserve"><path d="M54.4,94.6c0.5,0.3,1,0.4,1.6,0.4c0.8,0,1.7-0.3,2.6-0.8l27.5-15.9c3.1-1.8,5.5-6.1,5.5-9.6V37.1c0-1.8-0.6-3.2-1.8-3.9  c-1.2-0.7-2.7-0.5-4.2,0.4L58.1,49.4c-3.1,1.8-5.5,6.1-5.5,9.6v31.7C52.5,92.5,53.2,93.9,54.4,94.6z M81.8,43.8  c0.5-0.3,0.9-0.4,1.3-0.4c0.3,0,0.5,0.1,0.7,0.2c0.5,0.3,0.8,1,0.8,1.9c0,2.1-1.5,4.7-3.3,5.7c-0.8,0.5-1.5,0.5-2,0.2  c-0.5-0.3-0.8-1-0.8-1.9C78.5,47.4,80,44.8,81.8,43.8z M72.3,60.2c0.5-0.3,0.9-0.4,1.3-0.4c0.3,0,0.5,0.1,0.7,0.2  c0.5,0.3,0.8,1,0.8,1.9c0,2.1-1.5,4.7-3.3,5.7c-0.8,0.5-1.5,0.5-2,0.2c-0.5-0.3-0.8-1-0.8-1.9C69,63.8,70.5,61.3,72.3,60.2z   M62.8,76.7c0.5-0.3,0.9-0.4,1.3-0.4c0.3,0,0.5,0.1,0.7,0.2c0.5,0.3,0.8,1,0.8,1.9c0,2.1-1.5,4.7-3.3,5.7c-0.8,0.5-1.5,0.5-2,0.2  c-0.5-0.3-0.8-1-0.8-1.9C59.5,80.3,61,77.7,62.8,76.7z"/><path d="M13.9,78.4l27.5,15.9c0.9,0.5,1.8,0.8,2.6,0.8c0.6,0,1.1-0.1,1.6-0.4c1.2-0.7,1.8-2,1.8-3.9V59c0-3.5-2.5-7.8-5.5-9.6  L14.5,33.6c-1.6-0.9-3.1-1-4.2-0.4c-1.2,0.7-1.8,2-1.8,3.9v31.7C8.4,72.3,10.9,76.6,13.9,78.4z M35.2,54.5c0.2-0.1,0.4-0.2,0.7-0.2  c0.4,0,0.9,0.1,1.3,0.4c1.8,1.1,3.3,3.6,3.3,5.7c0,0.9-0.3,1.6-0.8,1.9c-0.5,0.3-1.2,0.2-2-0.2c-1.8-1.1-3.3-3.6-3.3-5.7  C34.4,55.4,34.7,54.8,35.2,54.5z M35.2,76.4c0.2-0.1,0.4-0.2,0.7-0.2c0.4,0,0.9,0.1,1.3,0.4c1.8,1.1,3.3,3.6,3.3,5.7  c0,0.9-0.3,1.6-0.8,1.9c-0.5,0.3-1.2,0.2-2-0.2c-1.8-1.1-3.3-3.6-3.3-5.7C34.4,77.4,34.7,76.7,35.2,76.4z M25.7,60  c0.5-0.3,1.2-0.2,2,0.2c1.8,1.1,3.3,3.6,3.3,5.7c0,0.9-0.3,1.6-0.8,1.9c-0.5,0.3-1.2,0.2-2-0.2c-1.8-1.1-3.3-3.6-3.3-5.7  C24.9,60.9,25.2,60.3,25.7,60z M16.2,43.5c0.2-0.1,0.4-0.2,0.7-0.2c0.4,0,0.9,0.1,1.3,0.4c1.8,1.1,3.3,3.6,3.3,5.7  c0,0.9-0.3,1.6-0.8,1.9s-1.2,0.2-2-0.2c-1.8-1.1-3.3-3.6-3.3-5.7C15.4,44.5,15.7,43.8,16.2,43.5z M16.2,65.5  c0.2-0.1,0.4-0.2,0.7-0.2c0.4,0,0.9,0.1,1.3,0.4c1.8,1.1,3.3,3.6,3.3,5.7c0,0.9-0.3,1.6-0.8,1.9c-0.5,0.3-1.2,0.2-2-0.2  c-1.8-1.1-3.3-3.6-3.3-5.7C15.4,66.4,15.7,65.7,16.2,65.5z"/><path d="M55.5,45L83,29.2c1.6-0.9,2.4-2.1,2.4-3.5s-0.9-2.6-2.4-3.5L55.5,6.3c-3.1-1.8-8-1.8-11.1,0L17,22.2  c-1.6,0.9-2.4,2.1-2.4,3.5s0.9,2.6,2.4,3.5L44.5,45c1.5,0.9,3.5,1.3,5.5,1.3C52,46.3,54,45.9,55.5,45z M61.6,21c2-1.1,5.3-1.1,7.4,0  c0.9,0.5,1.4,1.1,1.4,1.8c0,0.7-0.5,1.3-1.4,1.8l-1.9,1.1l1.9,1.1c0.9,0.5,1.4,1.1,1.4,1.8c0,0.7-0.5,1.3-1.4,1.8  c-2,1.2-5.4,1.2-7.4,0l-8.3-4.7L61.6,21L61.6,21z M41.2,15.3c1-0.6,2.4-0.9,3.7-0.9c1.3,0,2.7,0.3,3.7,0.9l1.4,0.8l1.4-0.8  c1-0.6,2.3-0.9,3.7-0.9s2.7,0.3,3.7,0.9c0.9,0.5,1.4,1.1,1.4,1.8c0,0.7-0.5,1.3-1.4,1.8l0.2,0.4l-0.2-0.4l-8.8,5l-8.8-5  c-0.9-0.5-1.4-1.1-1.4-1.8S40.3,15.8,41.2,15.3z M31,30.3c-0.9-0.5-1.4-1.1-1.4-1.8c0-0.7,0.5-1.3,1.4-1.8l1.9-1.1L31,24.6  c-0.9-0.5-1.4-1.1-1.4-1.8c0-0.7,0.5-1.3,1.4-1.8c1-0.6,2.4-0.9,3.7-0.9c1.3,0,2.7,0.3,3.7,0.9l8.3,4.7l-8.3,4.7  C36.4,31.5,33.1,31.5,31,30.3z M41.2,36.1c-0.9-0.5-1.4-1.1-1.4-1.8c0-0.7,0.5-1.3,1.4-1.8L41,32l0.2,0.4l8.8-5l8.8,5  c0.9,0.5,1.4,1.1,1.4,1.8s-0.5,1.3-1.4,1.8c-2,1.2-5.4,1.2-7.4,0L50,35.3l-1.4,0.8C46.6,37.2,43.3,37.2,41.2,36.1z"/><text x="0" y="115" fill="#000000" font-size="5px" font-weight="bold" font-family="'Helvetica Neue', Helvetica, Arial-Unicode, Arial, Sans-serif">Created by Bohdan Burmich</text><text x="0" y="120" fill="#000000" font-size="5px" font-weight="bold" font-family="'Helvetica Neue', Helvetica, Arial-Unicode, Arial, Sans-serif">from the Noun Project</text></svg>