<svg xmlns="http://www.w3.org/2000/svg" viewBox="0 0 40 53.341537499999994" x="0px" y="0px"><title>granja</title><path d="M16.74693,6.04525a7.71356,7.71356,0,0,0-7.70507,7.70508V28.92318a7.71357,7.71357,0,0,0,7.70507,7.70508h6.50635a7.71357,7.71357,0,0,0,7.70508-7.70508V13.75033a7.71356,7.71356,0,0,0-7.70508-7.70508ZM29.95836,28.92318a6.71258,6.71258,0,0,1-6.70508,6.70508H16.74693a6.71258,6.71258,0,0,1-6.70507-6.70508V19.83779a7.70588,7.70588,0,0,0,6.70507,3.9223h1.12793v2.24024a.49972.49972,0,0,0,.5.5h3.25a.49972.49972,0,0,0,.5-.5V23.76009h1.12842a7.70588,7.70588,0,0,0,6.70508-3.9223Zm-8.8335-3.42285h-2.25v-4.417h2.25Zm8.8335-11.75V16.055a6.71258,6.71258,0,0,1-6.70508,6.70508H22.12486V20.58333a.49972.49972,0,0,0-.5-.5h-3.25a.49972.49972,0,0,0-.5.5v2.17676H16.74693A6.71257,6.71257,0,0,1,10.04186,16.055V13.75033a6.71257,6.71257,0,0,1,6.70507-6.70508h6.50635A6.71258,6.71258,0,0,1,29.95836,13.75033Z"/><text x="0" y="57.67323" fill="#000000" font-size="5px" font-weight="bold" font-family="'Helvetica Neue', Helvetica, Arial-Unicode, Arial, Sans-serif">Created by Jesus Jezzini De Anda</text><text x="0" y="62.67323" fill="#000000" font-size="5px" font-weight="bold" font-family="'Helvetica Neue', Helvetica, Arial-Unicode, Arial, Sans-serif">from the Noun Project</text></svg>