<svg xmlns="http://www.w3.org/2000/svg" viewBox="0 0 36 45" x="0px" y="0px"><title>Монтажная область 39</title><path d="M33,27.93a190.86,190.86,0,0,1-15.9-13.75C12.67,9.78,8,5.66,4.08.8A1.57,1.57,0,0,0,2.34.06C1.62.28,1.21.93,1.34,2a53.52,53.52,0,0,0,.81,5.35c1.68,7.72,5.41,14.6,9,21.53.7,1.37,1.85,1.48,3.1.5.54-.41,1-.91,1.51-1.37a8.53,8.53,0,0,1,2.57-1.87,3.41,3.41,0,0,1,.81.31c1.74,1.61,3.49,3.22,5.21,4.86,1.31,1.25,2.54,2.58,3.87,3.8s2.18,1.2,3.53-.05a16.87,16.87,0,0,0,2.06-2.25C35.22,30.87,35,29.52,33,27.93Zm-20.1-1.35C9.25,20,6,13.22,4.24,5.91c.43-.44.76-.37,1-.12,4.34,4.79,9,9.26,13.74,13.62.41.37.9.69,1,1.28A27.27,27.27,0,0,1,12.87,26.58Zm9.79-.43c-1-.57-1.67-1-1.85-1.86A1.68,1.68,0,0,1,22.17,23a1.5,1.5,0,0,1,1.65.93C24.4,25,23.32,25.4,22.66,26.15Zm2.73,2.33a.63.63,0,0,1-.55-.21.69.69,0,0,1-.07-.59,2.41,2.41,0,0,1,1.7-1.44C26.63,27.57,26.44,28,25.39,28.48ZM29.77,33a5.4,5.4,0,0,1-2.28-2.26c0-1.12.68-1.67,1.49-2.43a7.75,7.75,0,0,1,2.95,2.21A3.37,3.37,0,0,1,29.77,33Z"/><text x="0" y="51" fill="#000000" font-size="5px" font-weight="bold" font-family="'Helvetica Neue', Helvetica, Arial-Unicode, Arial, Sans-serif">Created by Vadim Solomakhin</text><text x="0" y="56" fill="#000000" font-size="5px" font-weight="bold" font-family="'Helvetica Neue', Helvetica, Arial-Unicode, Arial, Sans-serif">from the Noun Project</text></svg>