<svg xmlns="http://www.w3.org/2000/svg" xmlns:xlink="http://www.w3.org/1999/xlink" version="1.1" x="0px" y="0px" viewBox="0 0 100 125" enable-background="new 0 0 100 100" xml:space="preserve"><g display="none"><path display="inline" fill="#000000" stroke="#010202" stroke-width="2" stroke-linecap="round" stroke-linejoin="round" stroke-miterlimit="10" d="   M3390.4-756.2c-9.8,0-19.2,2-27.7,5.6h0c-6.9,8.5-14.8,16.1-23.5,22.6c-2,1.6-4.6,2.5-7.3,2.5c-6.2,0-11.4-4.8-11.9-10.9   c-0.2-3.4-0.3-6.8-0.3-10.2c0-23.6,4.6-46,13-66.6l-0.6,1.5c4-10.7,14.3-18.3,26.4-18.3c6.3,0,12.1,2.1,16.8,5.6l0,0   c4.4,2.8,9.6,4.4,15.2,4.4s10.8-1.6,15.2-4.4l0,0c4.7-3.5,10.5-5.6,16.8-5.6c12.1,0,22.4,7.6,26.4,18.3l-0.6-1.5   c8.4,20.5,13,43,13,66.6c0,3.4-0.1,6.8-0.3,10.2c-0.5,6.1-5.6,10.9-11.9,10.9c-2.8,0-5.3-0.9-7.3-2.5c-8.8-6.5-16.7-14.1-23.5-22.6   C3409.6-754.2,3400.2-756.2,3390.4-756.2z"/><circle display="inline" fill="#000000" stroke="#010202" stroke-width="2" stroke-linecap="round" stroke-linejoin="round" stroke-miterlimit="10" cx="3412.8" cy="-786.8" r="6.2"/><circle display="inline" fill="#000000" stroke="#010202" stroke-width="2" stroke-linecap="round" stroke-linejoin="round" stroke-miterlimit="10" cx="3439.3" cy="-786.8" r="6.2"/><circle display="inline" fill="#000000" stroke="#010202" stroke-width="2" stroke-linecap="round" stroke-linejoin="round" stroke-miterlimit="10" cx="3426" cy="-800" r="6.2"/><circle display="inline" fill="#000000" stroke="#010202" stroke-width="2" stroke-linecap="round" stroke-linejoin="round" stroke-miterlimit="10" cx="3426" cy="-773.5" r="6.2"/><path display="inline" fill="#000000" stroke="#010202" stroke-width="2" stroke-linecap="round" stroke-linejoin="round" stroke-miterlimit="10" d="   M3363.6-793h10.2c1.7,0,3.1,1.4,3.1,3.1v3.7c0,1.7-1.4,3.1-3.1,3.1h-10.2l0,10.2c0,1.7-1.4,3.1-3.1,3.1h-3.7   c-1.7,0-3.1-1.4-3.1-3.1l0-10.2h-10.2c-1.7,0-3.1-1.4-3.1-3.1v-3.7c0-1.7,1.4-3.1,3.1-3.1h10.2v-10.2c0-1.7,1.4-3.1,3.1-3.1h3.7   c1.7,0,3.1,1.4,3.1,3.1V-793z"/><path display="inline" fill="#000000" stroke="#010202" stroke-width="2" stroke-linecap="round" stroke-linejoin="round" stroke-miterlimit="10" d="   M3327.8-547.3l10.8-3.3l8.1,16.4c0.6,1.3,2.4,1.6,3.4,0.6l2.4-2.4c2.6-2.6,3.8-6.2,3.4-9.9l-1.8-15.7c-0.1-0.7,0.2-1.4,0.7-1.9   l34-30h0l30.2,60.7c0.6,1.3,2.4,1.6,3.4,0.6l8.6-8.6c2-2,3-5,2.4-7.8l-13.2-72.5l0,0l18.4-16.3c4.6-4,8.7-8.7,11.9-13.8   c6.2-9.9,8.9-20.5,4.3-25.2c-4.7-4.7-15.3-1.9-25.2,4.3c-5.2,3.2-9.8,7.3-13.8,11.9l-16.3,18.4l0,0l-72.5-13.2   c-2.8-0.5-5.8,0.4-7.8,2.4l-8.6,8.6c-1,1-0.7,2.8,0.6,3.4l60.7,30.2v0l-30,34c-0.5,0.5-1.2,0.8-1.9,0.7l-15.7-1.8   c-3.6-0.4-7.3,0.8-9.9,3.4l-2.4,2.4c-1,1-0.7,2.8,0.6,3.4l16.4,8.1l-3.3,10.8C3325.2-548.2,3326.5-546.9,3327.8-547.3z"/><path display="inline" fill="#000000" stroke="#010202" stroke-width="2" stroke-linecap="round" stroke-linejoin="round" stroke-miterlimit="10" d="   M3328-330.5l-9.4-9.4c-2.6-2.6-2.6-6.9,0-9.5l35.2-35.2c2.6-2.6,6.9-2.6,9.5,0l9.4,9.4c2.6,2.6,2.6,6.9,0,9.5l-35.2,35.2   C3334.9-327.9,3330.6-327.9,3328-330.5z"/><path display="inline" fill="#000000" stroke="#010202" stroke-width="2" stroke-linecap="round" stroke-linejoin="round" stroke-miterlimit="10" d="   M3383.2-384.1l-2.4,2.4c-1.4,1.4-3.6,1.4-4.9,0l-6.1-6.1c-1.4-1.4-1.4-3.6,0-4.9l2.4-2.4l0,0c-16.8-22.2-15.1-54,5.1-74.3   c22.1-22.1,58-22.1,80.1,0c22.1,22.1,22.1,58,0,80.1C3437.2-369,3405.4-367.3,3383.2-384.1L3383.2-384.1z"/><circle display="inline" fill="#000000" stroke="#010202" stroke-width="2" stroke-linecap="round" stroke-linejoin="round" stroke-miterlimit="10" cx="3417.4" cy="-429.3" r="44.7"/><path display="inline" fill="#000000" stroke="#010202" stroke-width="2" stroke-linecap="round" stroke-linejoin="round" stroke-miterlimit="10" d="   M3392.4-180L3392.4-180c-2.4-2.4-2.4-6.3,0-8.7l56-56c2.4-2.4,6.3-2.4,8.7,0v0c2.4,2.4,2.4,6.3,0,8.7l-56,56   C3398.7-177.7,3394.8-177.7,3392.4-180z"/><circle display="inline" fill="#000000" stroke="#010202" stroke-width="2" stroke-linecap="round" stroke-linejoin="round" stroke-miterlimit="10" cx="3339.3" cy="-232.6" r="5.5"/><path display="inline" fill="#000000" stroke="#010202" stroke-width="2" stroke-linecap="round" stroke-linejoin="round" stroke-miterlimit="10" d="   M3383.7-244.3c0.7-1.2,1.5-2.3,2.5-3.3c0.5-0.5,1.1-1,1.7-1.4l0,0c0.8,0.6,1.6,1.2,2.4,1.9c0.8,0.8,1.4,1.6,2,2.4l0,0   c1.3,1.9,1.1,4.6-0.6,6.3c-1.9,2-5.1,2-7.1,0C3382.9-239.9,3382.6-242.4,3383.7-244.3L3383.7-244.3z"/><circle display="inline" fill="#000000" stroke="#010202" stroke-width="2" stroke-linecap="round" stroke-linejoin="round" stroke-miterlimit="10" cx="3431.9" cy="-248.6" r="5.5"/><path display="inline" fill="#000000" stroke="#010202" stroke-width="2" stroke-linecap="round" stroke-linejoin="round" stroke-miterlimit="10" d="   M3393.8-253.3c5.3-1.8,11.4-0.6,15.7,3.6c5.2,5.2,5.8,13.1,2,19l0,0c-3.5,5-7.5,9.7-12,14.2c-5.7,5.7-11.9,10.7-18.5,14.8   c-0.2,0.1-0.3,0.3-0.5,0.4c-1.7,1.7-1.7,4.4,0,6c1.5,1.5,3.8,1.6,5.5,0.5l-0.5,0.3c7.2-4.4,13.9-9.7,20.1-15.9   c4.8-4.8,9.1-10,12.8-15.4c6-9.2,5-21.7-3.2-29.9c-7.3-7.3-18.2-8.9-27.1-4.7c-9-4.7-20.5-3.4-28.1,4.1c-7.4,7.4-8.9,18.4-4.6,27.3   l0,0c0.2,0.4,0.4,0.7,0.7,1c1.6,1.6,4.2,1.6,5.9,0c1.2-1.2,1.5-3,0.9-4.5l0,0c-2.8-5.7-1.8-12.9,3-17.6c4.5-4.5,11-5.6,16.6-3.5   c-1.4,0.6-2.7,1.5-3.8,2.7c-5.1,5.1-5.1,13.5,0,18.6c5.1,5.1,13.5,5.1,18.6,0c5.1-5.1,5.1-13.5,0-18.6   C3396.3-251.8,3395.1-252.7,3393.8-253.3L3393.8-253.3z"/><circle display="inline" fill="#000000" stroke="#010202" stroke-width="2" stroke-linecap="round" stroke-linejoin="round" stroke-miterlimit="10" cx="3444.9" cy="-126.9" r="5.5"/><path display="inline" fill="#000000" stroke="#010202" stroke-width="2" stroke-linecap="round" stroke-linejoin="round" stroke-miterlimit="10" d="   M3456.6-171.3c1.2-0.7,2.3-1.5,3.3-2.5c0.5-0.5,1-1.1,1.4-1.7l0,0c-0.6-0.8-1.2-1.6-1.9-2.4c-0.8-0.8-1.6-1.4-2.4-2l0,0   c-1.9-1.3-4.6-1.1-6.3,0.6c-2,2-2,5.1,0,7.1C3452.3-170.5,3454.7-170.2,3456.6-171.3L3456.6-171.3z"/><path display="inline" fill="#000000" stroke="#010202" stroke-width="2" stroke-linecap="round" stroke-linejoin="round" stroke-miterlimit="10" d="   M3465.6-181.5c1.8-5.3,0.6-11.4-3.6-15.7c-5.2-5.2-13.1-5.8-19-2l0,0c-5,3.5-9.7,7.5-14.2,12c-5.7,5.7-10.7,11.9-14.8,18.5   c-0.1,0.2-0.3,0.3-0.4,0.5c-1.7,1.7-4.4,1.7-6,0c-1.5-1.5-1.6-3.8-0.5-5.5l-0.3,0.5c4.4-7.2,9.7-13.9,15.9-20.1   c4.8-4.8,10-9.1,15.4-12.8c9.2-6,21.7-5,29.9,3.2c7.3,7.3,8.9,18.2,4.7,27.1c4.7,9,3.4,20.5-4.1,28.1c-7.4,7.4-18.4,8.9-27.3,4.6   l0,0c-0.4-0.2-0.7-0.4-1-0.7c-1.6-1.6-1.6-4.2,0-5.9c1.2-1.2,3-1.5,4.5-0.9l0,0c5.7,2.8,12.9,1.8,17.6-3c4.5-4.5,5.6-11,3.5-16.6   c-0.6,1.4-1.5,2.7-2.7,3.8c-5.1,5.1-13.5,5.1-18.6,0c-5.1-5.1-5.1-13.5,0-18.6c5.1-5.1,13.5-5.1,18.6,0   C3464.2-183.9,3465-182.7,3465.6-181.5L3465.6-181.5z"/><path display="inline" fill="#000000" stroke="#010202" stroke-width="2" stroke-linecap="round" stroke-linejoin="round" stroke-miterlimit="10" d="   M3323.7-111.4c2,2,4.9,2.7,7.4,2l0,0l44.6-18.1l54.6-21.7l0,0c1.4-0.6,2.7-1.4,3.8-2.5c5.2-5.2,4.6-15-0.4-26.1l0,0   c-2.3,2.4-4.5,4.9-6.5,7.4c-0.6,0.8-0.9,1.8-0.8,2.8c0.5,3.8-0.2,6.9-2.2,9c-6.3,6.3-23.3-0.4-37.8-15l-0.5-0.5   c-14.6-14.6-21.3-31.5-15-37.8c2-2,5.2-2.7,9-2.2c1,0.1,2.1-0.1,2.8-0.8c2.5-2,5-4.2,7.4-6.5l0,0c-11.1-5.1-20.9-5.6-26.1-0.4   c-1.1,1.1-1.9,2.4-2.5,3.8l0,0l-21.7,54.6l-18.1,44.6l0,0C3321.1-116.2,3321.7-113.4,3323.7-111.4z"/><circle display="inline" fill="#000000" stroke="#010202" stroke-width="2" stroke-linecap="round" stroke-linejoin="round" stroke-miterlimit="10" cx="3865.8" cy="-1106.6" r="81.3"/><g display="inline"><circle fill="#000000" stroke="#010202" stroke-width="2" stroke-linecap="round" stroke-linejoin="round" stroke-miterlimit="10" cx="3906.6" cy="-1106.6" r="11.7"/><circle fill="#000000" stroke="#010202" stroke-width="2" stroke-linecap="round" stroke-linejoin="round" stroke-miterlimit="10" cx="3865.8" cy="-1106.6" r="11.7"/><circle fill="#000000" stroke="#010202" stroke-width="2" stroke-linecap="round" stroke-linejoin="round" stroke-miterlimit="10" cx="3825.1" cy="-1106.6" r="11.7"/></g><path display="inline" fill="#000000" stroke="#010202" stroke-width="2" stroke-linecap="round" stroke-linejoin="round" stroke-miterlimit="10" d="   M3811.8-846.9h-18.5c-1.8,0-3.4-1.5-3.4-3.4V-886c0-1.8,1.5-3.4,3.4-3.4h18.5c1.8,0,3.4,1.5,3.4,3.4v35.7   C3815.2-848.4,3813.6-846.9,3811.8-846.9z"/><path display="inline" fill="#000000" stroke="#010202" stroke-width="2" stroke-linecap="round" stroke-linejoin="round" stroke-miterlimit="10" d="   M3880.1-876.1c-9.7-10.2-23.5-16.6-38.7-16.6c-7.7,0-14.9,1.6-21.5,4.5l0,0v33.6c0,1.3,1.1,2.4,2.4,2.4h17.8c0.3,0,0.6,0.1,0.9,0.2   l19.2,10.3c1,0.6,2.2,0.8,3.4,0.8h44c2,0,3.9-0.9,5.3-2.4l26.5-29.5l0,0c1.8-2.3,2.7-5.3,2.2-8.6c-0.7-4.7-4.4-8.6-9.1-9.5   c-3.8-0.7-7.3,0.6-9.8,2.9l-13.1,12.9l0,0c1.1,1.8,1.8,4,1.7,6.3c-0.2,6-5.4,10.7-11.4,10.7h-22c-1,0-1.9-0.7-2.1-1.7   c-0.2-1.3,0.8-2.4,2-2.4l22.2,0c3.8,0,7.2-3,7.3-6.8c0.1-4-3.1-7.2-7-7.2L3880.1-876.1L3880.1-876.1z"/><path display="inline" fill="#000000" stroke="#010202" stroke-width="2" stroke-linecap="round" stroke-linejoin="round" stroke-miterlimit="10" d="   M3892.2-892c4.6-0.2,9.2-3.8,27.1-21c17.8-17.2,18.5-26.3,18.5-26.3l0,0c0.4-1.8,0.6-3.6,0.6-5.5c0-13.5-10.9-24.4-24.4-24.4   c-9.5,0-17.8,5.5-21.8,13.4h0c-4-8-12.3-13.4-21.8-13.4c-13.5,0-24.4,10.9-24.4,24.4c0,1.9,0.2,3.8,0.6,5.5l0,0   c0,0,0.7,9.1,18.5,26.3C3882.9-895.8,3887.6-892.1,3892.2-892z"/><path display="inline" fill="#000000" stroke="#010202" stroke-width="2" stroke-linecap="round" stroke-linejoin="round" stroke-miterlimit="10" d="   M3886.3-950.8c1,2.3,3.2,3.9,5.9,3.9h0.3c2.7,0,4.9-1.6,5.9-3.9l0,0c2.6-5.4,8.2-9.1,14.5-9.1c8.9,0,16.2,7.2,16.2,16.2   c0,1.4-0.2,2.8-0.5,4.2l0,0c0,0-0.5,7.2-14.7,20.8c-14.1,13.6-17.8,16.5-21.4,16.6h-0.3c-3.6-0.1-7.3-3-21.4-16.6   c-14.1-13.6-14.7-20.8-14.7-20.8l0,0c-0.4-1.3-0.5-2.7-0.5-4.2c0-8.9,7.2-16.2,16.2-16.2C3878.1-959.9,3883.6-956.2,3886.3-950.8   L3886.3-950.8z"/><path display="inline" fill="#000000" stroke="#010202" stroke-width="2" stroke-linecap="round" stroke-linejoin="round" stroke-miterlimit="10" d="   M3899.1-656.9h-66.6c-5.2,0-9.8-4.3-10.3-9.6l-11.1-108.1c0-6.6,5.4-12,12-12h85.3c6.6,0,12,5.4,12,12l-11.1,108.1   C3908.9-661.2,3904.3-656.9,3899.1-656.9z"/><path display="inline" fill="#000000" stroke="#010202" stroke-width="2" stroke-linecap="round" stroke-linejoin="round" stroke-miterlimit="10" d="   M3892.4-667.2h-53.1c-4.1,0-7.8-3.6-8.2-8l-8.9-90.9c0-5.6,4.3-10.1,9.6-10.1h68c5.3,0,9.6,4.5,9.6,10.1l-8.9,90.9   C3900.2-670.8,3896.5-667.2,3892.4-667.2z"/><path display="inline" fill="#000000" stroke="#010202" stroke-width="2" stroke-linecap="round" stroke-linejoin="round" stroke-miterlimit="10" d="   M3899.4-744.1l-5.9,62.2c-0.3,3.7-3.2,6.6-6.5,6.6h-42.3c-3.3,0-6.2-2.9-6.5-6.6l-5.9-62.2L3899.4-744.1z"/><circle display="inline" fill="#000000" stroke="#010202" stroke-width="2" stroke-linecap="round" stroke-linejoin="round" stroke-miterlimit="10" cx="3390.4" cy="-942.8" r="70.7"/><circle display="inline" fill="#000000" stroke="#010202" stroke-width="2" stroke-linecap="round" stroke-linejoin="round" stroke-miterlimit="10" cx="3390.4" cy="-942.8" r="58"/><path display="inline" fill="#000000" stroke="#010202" stroke-width="2" stroke-linecap="round" stroke-linejoin="round" stroke-miterlimit="10" d="   M3367.3-929.7c4.6,8,13.2,13.4,23.1,13.4s18.5-5.4,23.1-13.4l0,0c1.1-1.6,3-2.7,5.1-2.7c3.4,0,6.2,2.8,6.2,6.2   c0,0.9-0.2,1.7-0.5,2.5l0,0c-6.7,11.8-19.3,19.8-33.9,19.8s-27.2-8-33.9-19.8l0,0c-0.3-0.8-0.5-1.6-0.5-2.5c0-3.4,2.8-6.2,6.2-6.2   C3364.3-932.4,3366.2-931.4,3367.3-929.7L3367.3-929.7z"/><g display="inline"><ellipse fill="#000000" stroke="#010202" stroke-width="2" stroke-linecap="round" stroke-linejoin="round" stroke-miterlimit="10" cx="3374.1" cy="-958.6" rx="10.1" ry="15.7"/><ellipse fill="#000000" stroke="#010202" stroke-width="2" stroke-linecap="round" stroke-linejoin="round" stroke-miterlimit="10" cx="3406.7" cy="-958.6" rx="10.1" ry="15.7"/></g><path display="inline" fill="#000000" stroke="#010202" stroke-width="2" stroke-linecap="round" stroke-linejoin="round" stroke-miterlimit="10" d="   M3366.3-1045.2h-27.7c-4,0-7.2-3.3-7.2-7.2v-22.7c0-4,3.3-7.2,7.2-7.2h27.7c4,0,7.2,3.3,7.2,7.2v22.7   C3373.5-1048.5,3370.2-1045.2,3366.3-1045.2z"/><path display="inline" fill="#000000" stroke="#010202" stroke-width="2" stroke-linecap="round" stroke-linejoin="round" stroke-miterlimit="10" d="   M3414.6-1045.2h27.7c4,0,7.2-3.3,7.2-7.2v-22.7c0-4-3.3-7.2-7.2-7.2h-27.7c-4,0-7.2,3.3-7.2,7.2v22.7   C3407.3-1048.5,3410.6-1045.2,3414.6-1045.2z"/><path display="inline" fill="#000000" stroke="#010202" stroke-width="2" stroke-linecap="round" stroke-linejoin="round" stroke-miterlimit="10" d="   M3345.3-1090.8h23c5.9,0,11.1,3.6,13.4,8.6l0,0c2.4-2,5.4-3.2,8.7-3.2c3.3,0,6.4,1.2,8.7,3.2l0,0c2.3-5.1,7.4-8.6,13.4-8.6h23l0,0   l-26-26c-0.3-0.3-0.7-0.5-1.2-0.5c-0.9,0-1.7,0.8-1.7,1.7v1.2v4.4c0,2.5-2,4.5-4.5,4.5c-2.5,0-4.5-2-4.5-4.5c0,0,0-7.4,0-7.4   c0-5.9,4.8-10.8,10.8-10.8c3,0,5.7,1.2,7.6,3.2l37.6,37.6l0,0c3.3,2.7,5.4,6.8,5.4,11.3v24.6c0,8.1-6.6,14.7-14.7,14.7h-31.8   c-8.1,0-14.7-6.6-14.7-14.7v-22.1h0c-1.6-2.4-4.4-3.9-7.4-3.9c-3.1,0-5.8,1.5-7.4,3.9l0,0v22.1c0,8.1-6.6,14.7-14.7,14.7h-31.8   c-8.1,0-14.7-6.6-14.7-14.7v-24.6c0-4.5,2.1-8.6,5.4-11.3c0,0,37.6-37.6,37.6-37.6c1.9-1.9,4.6-3.2,7.6-3.2   c5.9,0,10.8,4.8,10.8,10.8v7.4c0,2.5-2,4.5-4.5,4.5c-2.5,0-4.5-2-4.5-4.5v-4.4v-1.2c0-0.9-0.8-1.7-1.7-1.7c-0.5,0-0.9,0.2-1.2,0.5   C3371.3-1116.8,3345.3-1090.8,3345.3-1090.8z"/><path display="inline" fill="#000000" stroke="#010202" stroke-width="2" stroke-linecap="round" stroke-linejoin="round" stroke-miterlimit="10" d="   M3387.7-1274.3c0,0-1.8-9.2-17.7-9.9c-17.6-0.8-22.4,8.6-32.9,12c-1.3,0.4-2.5,0.7-3.6,1c-1.5,0.3-2.6,1.7-2.6,3.3v67.4   c0,1.8,1.5,3.3,3.3,3.3h43.4c1.7,0,3.3-0.7,4.5-1.9l3.6-3.6c1.2-1.2,1.9-2.8,1.9-4.5L3387.7-1274.3z"/><path display="inline" fill="#000000" stroke="#010202" stroke-width="2" stroke-linecap="round" stroke-linejoin="round" stroke-miterlimit="10" d="   M3390.4-1184.6h10.6c1.8,0,3.3-1.5,3.3-3.3l0,0c0-0.7,0.6-1.2,1.2-1.2h47.6c3.3,0,5.9-2.7,5.9-5.9v-82.7c0-1.9-1.6-3.4-3.5-3.3   c-3,0.2-7.6,0.1-13.4-1.7c-10.1-3.2-14.7-11.6-31.9-11.6c-12.3,0-17.5,5.3-19.2,7.7c-0.3,0.5-1,0.5-1.3,0   c-1.7-2.3-6.9-7.7-19.2-7.7c-17.1,0-21.8,8.4-31.9,11.6c-5.7,1.8-10.4,2-13.4,1.7c-1.9-0.2-3.5,1.3-3.5,3.3v82.7   c0,3.3,2.7,5.9,5.9,5.9h47.6c0.7,0,1.2,0.6,1.2,1.2l0,0c0,1.8,1.5,3.3,3.3,3.3H3390.4z"/><path display="inline" fill="#000000" stroke="#010202" stroke-width="2" stroke-linecap="round" stroke-linejoin="round" stroke-miterlimit="10" d="   M3393.2-1274.3c0,0,1.8-9.2,17.7-9.9c17.6-0.8,22.4,8.6,32.9,12c1.3,0.4,2.5,0.7,3.6,1c1.5,0.3,2.6,1.7,2.6,3.3v67.4   c0,1.8-1.5,3.3-3.3,3.3h-43.4c-1.7,0-3.3-0.7-4.5-1.9l-3.6-3.6c-1.2-1.2-1.9-2.8-1.9-4.5L3393.2-1274.3z"/><path display="inline" fill="#000000" stroke="#010202" stroke-width="2" stroke-linecap="round" stroke-linejoin="round" stroke-miterlimit="10" d="   M3858.2-541.1v-34.4c0-2.7,2.2-4.9,4.9-4.9h0c2.7,0,4.9,2.2,4.9,4.9v37c0,5.7-4.4,16.4-15,20.4c0,0,0,63.9,0,63.9   c0,2.7-2.2,4.9-4.9,4.9l0,0c-2.7,0-4.9-2.2-4.9-4.9v-63.9c-10.7-4-15-14.7-15-20.4v-37c0-2.7,2.2-4.9,4.9-4.9l0,0   c2.7,0,4.9,2.2,4.9,4.9v34.4c0,1.4,1.2,2.6,2.6,2.6c1.4,0,2.6-1.2,2.6-2.6c0,0,0-34.4,0-34.4c0-2.7,2.2-4.9,4.9-4.9l0,0   c2.7,0,4.9,2.2,4.9,4.9c0,0,0,34.4,0,34.4c0,1.4,1.2,2.6,2.6,2.6S3858.2-539.6,3858.2-541.1z"/><path display="inline" fill="#000000" stroke="#010202" stroke-width="2" stroke-linecap="round" stroke-linejoin="round" stroke-miterlimit="10" d="   M3893.7-515.5c-8-7.7-13.1-18.5-13.1-30.4c0-13.3,6.2-25.1,15.8-32.8c2.6-2.1,6.7-0.6,7.1,2.7c0,0.2,0,0.4,0,0.6v34.4v23v63.9   c0,2.7-2.2,4.9-4.9,4.9l0,0c-2.7,0-4.9-2.2-4.9-4.9L3893.7-515.5L3893.7-515.5z"/><path display="inline" fill="#000000" stroke="#010202" stroke-width="2" stroke-linecap="round" stroke-linejoin="round" stroke-miterlimit="10" d="   M3842.2-264.8L3842.2-264.8c-4.1,0.3-7.7-2.8-8.1-6.9l-3.2-40.8c-0.3-4.1,2.8-7.7,6.9-8.1l0,0c4.1-0.3,7.7,2.8,8.1,6.9l3.2,40.8   C3849.4-268.7,3846.4-265.1,3842.2-264.8z"/><path display="inline" fill="#000000" stroke="#010202" stroke-width="2" stroke-linecap="round" stroke-linejoin="round" stroke-miterlimit="10" d="   M3826.3-272.6l-10.8-3.8l-2.4-28l10.2-5.6l0,0l-0.4-5.2c-0.6-8.1,5.5-15.3,13.6-15.9l1-0.1c8.1-0.6,15.3,5.5,15.9,13.6l3.7,47.4   c0.6,8.1-5.5,15.3-13.6,15.9l-1,0.1c-8.1,0.6-15.3-5.5-15.9-13.6L3826.3-272.6L3826.3-272.6z"/><polygon display="inline" fill="#000000" stroke="#010202" stroke-width="2" stroke-linecap="round" stroke-linejoin="round" stroke-miterlimit="10" points="   3829,-282.8 3824.5,-284.4 3823.5,-296.2 3827.8,-298.6  "/><path display="inline" fill="#000000" stroke="#010202" stroke-width="2" stroke-linecap="round" stroke-linejoin="round" stroke-miterlimit="10" d="   M3889.4-264.8L3889.4-264.8c4.1,0.3,7.7-2.8,8.1-6.9l3.2-40.8c0.3-4.1-2.8-7.7-6.9-8.1l0,0c-4.1-0.3-7.7,2.8-8.1,6.9l-3.2,40.8   C3882.2-268.7,3885.3-265.1,3889.4-264.8z"/><path display="inline" fill="#000000" stroke="#010202" stroke-width="2" stroke-linecap="round" stroke-linejoin="round" stroke-miterlimit="10" d="   M3905.4-272.6l10.8-3.8l2.4-28l-10.2-5.6l0,0l0.4-5.2c0.6-8.1-5.5-15.3-13.6-15.9l-1-0.1c-8.1-0.6-15.3,5.5-15.9,13.6l-3.7,47.4   c-0.6,8.1,5.5,15.3,13.6,15.9l1,0.1c8.1,0.6,15.3-5.5,15.9-13.6L3905.4-272.6L3905.4-272.6z"/><polygon display="inline" fill="#000000" stroke="#010202" stroke-width="2" stroke-linecap="round" stroke-linejoin="round" stroke-miterlimit="10" points="   3902.6,-282.8 3907.2,-284.4 3908.2,-296.2 3903.9,-298.6  "/><path display="inline" fill="#000000" stroke="#010202" stroke-width="2" stroke-linecap="round" stroke-linejoin="round" stroke-miterlimit="10" d="   M3865.8-372.7c27,0,48.8,21.9,48.8,48.8c0,2.7-0.2,5.3-0.6,7.8l0,0c0,0.1,0,0.2,0,0.2c0,3.3,2.6,5.9,5.9,5.9c2.8,0,5.2-2,5.8-4.7v0   c0.5-3,0.7-6.1,0.7-9.2c0-33.5-27.1-60.6-60.6-60.6c-33.5,0-60.6,27.1-60.6,60.6c0,3.1,0.2,6.2,0.7,9.2v0c0.6,2.7,2.9,4.7,5.8,4.7   c3.3,0,5.9-2.6,5.9-5.9c0-0.1,0-0.2,0-0.2l0,0c-0.4-2.5-0.6-5.1-0.6-7.8C3817-350.8,3838.9-372.7,3865.8-372.7z"/><g display="inline"><path fill="#000000" d="M84.8,30.2c-0.1-0.3-0.2-0.6-0.3-0.8c0,0,0,0,0,0c0,0,0,0,0,0    c-2.7-6.2-8.9-10.2-15.7-10.2c-3.7,0-7.2,1.2-10.2,3.4C56,24.1,53,24.9,50,24.9s-6-0.9-8.6-2.5c-3-2.2-6.5-3.4-10.2-3.4    c-6.8,0-13,4.1-15.7,10.2c0,0,0,0,0,0c0,0,0,0,0,0c-0.1,0.3-0.2,0.6-0.3,0.8c-4.9,12.2-7.3,25.2-7.3,38.5c0,2,0.1,4,0.2,6    c0.3,3.9,3.7,6.9,7.6,6.9c1.7,0,3.3-0.6,4.7-1.6c5.1-3.8,9.8-8.3,13.8-13.2c5-2.1,10.4-3.2,15.9-3.2s10.9,1.1,15.9,3.2    c4,5,8.7,9.4,13.8,13.2c1.3,1.1,3,1.6,4.7,1.6c3.9,0,7.2-3.1,7.6-7c0.1-2,0.2-4,0.2-6C92.2,55.4,89.7,42.4,84.8,30.2z M90.8,74.6    c-0.3,3.3-3.1,5.9-6.4,5.9c-1.4,0-2.8-0.5-4-1.4c-5.1-3.8-9.7-8.2-13.7-13.2c-0.1-0.1-0.1-0.1-0.2-0.2c-5.2-2.2-10.8-3.4-16.5-3.4    s-11.3,1.1-16.5,3.4c-0.1,0-0.2,0.1-0.2,0.2c-4,4.9-8.6,9.4-13.7,13.2c-1.1,0.9-2.5,1.4-4,1.4c-3.3,0-6.1-2.6-6.4-5.9    c-0.1-2-0.2-4-0.2-5.9c0-13.1,2.4-25.9,7.3-38c0,0,0,0,0,0l0.3-0.8c2.5-5.8,8.3-9.6,14.6-9.6c3.5,0,6.8,1.1,9.5,3.2c0,0,0,0,0,0    c2.7,1.8,5.9,2.7,9.2,2.7c3.3,0,6.5-0.9,9.2-2.7c0,0,0,0,0,0c2.8-2.1,6.1-3.2,9.5-3.2c6.3,0,12.1,3.8,14.6,9.6l0.3,0.8    c0,0,0,0,0,0c4.8,12.1,7.3,24.9,7.3,38C91,70.6,90.9,72.6,90.8,74.6z"/><path fill="#000000" d="M63.1,40.8c-2.3,0-4.2,1.9-4.2,4.2s1.9,4.2,4.2,4.2c2.3,0,4.2-1.9,4.2-4.2    S65.5,40.8,63.1,40.8z M63.1,48.1c-1.7,0-3.1-1.4-3.1-3.1c0-1.7,1.4-3.1,3.1-3.1c1.7,0,3.1,1.4,3.1,3.1    C66.2,46.7,64.8,48.1,63.1,48.1z"/><path fill="#000000" d="M78.7,40.8c-2.3,0-4.2,1.9-4.2,4.2s1.9,4.2,4.2,4.2c2.3,0,4.2-1.9,4.2-4.2    S81.1,40.8,78.7,40.8z M78.7,48.1c-1.7,0-3.1-1.4-3.1-3.1c0-1.7,1.4-3.1,3.1-3.1c1.7,0,3.1,1.4,3.1,3.1    C81.8,46.7,80.4,48.1,78.7,48.1z"/><path fill="#000000" d="M70.9,41.5c2.3,0,4.2-1.9,4.2-4.2S73.3,33,70.9,33c-2.3,0-4.2,1.9-4.2,4.2    S68.6,41.5,70.9,41.5z M70.9,34.2c1.7,0,3.1,1.4,3.1,3.1c0,1.7-1.4,3.1-3.1,3.1c-1.7,0-3.1-1.4-3.1-3.1    C67.9,35.6,69.2,34.2,70.9,34.2z"/><path fill="#000000" d="M70.9,48.6c-2.3,0-4.2,1.9-4.2,4.2s1.9,4.2,4.2,4.2c2.3,0,4.2-1.9,4.2-4.2    S73.3,48.6,70.9,48.6z M70.9,55.9c-1.7,0-3.1-1.4-3.1-3.1c0-1.7,1.4-3.1,3.1-3.1c1.7,0,3.1,1.4,3.1,3.1    C74,54.5,72.6,55.9,70.9,55.9z"/><path fill="#000000" d="M40.2,40.8h-5.4v-5.4c0-1.3-1.1-2.4-2.4-2.4h-2.2c-1.3,0-2.4,1.1-2.4,2.4v5.4h-5.4    c-1.3,0-2.4,1.1-2.4,2.4v2.2c0,1.3,1.1,2.4,2.4,2.4h5.4l0,5.4c0,1.3,1.1,2.4,2.4,2.4h2.2c1.3,0,2.4-1.1,2.4-2.4v-5.4h5.4    c1.3,0,2.4-1.1,2.4-2.4v-2.2C42.6,41.9,41.5,40.8,40.2,40.8z M41.4,45.4c0,0.7-0.6,1.2-1.2,1.2h-6c-0.3,0-0.6,0.3-0.6,0.6v6    c0,0.7-0.6,1.2-1.2,1.2h-2.2c-0.7,0-1.2-0.6-1.2-1.2l0-6c0-0.3-0.3-0.6-0.6-0.6h-6c-0.7,0-1.2-0.6-1.2-1.2v-2.2    c0-0.7,0.6-1.2,1.2-1.2h6c0.3,0,0.6-0.3,0.6-0.6v-6c0-0.7,0.6-1.2,1.2-1.2h2.2c0.7,0,1.2,0.6,1.2,1.2v6c0,0.3,0.3,0.6,0.6,0.6h6    c0.7,0,1.2,0.6,1.2,1.2V45.4z"/></g><path display="inline" fill="#000000" d="M71.9,94.2c-0.1,0-0.2,0-0.3,0c-0.6-0.1-1.1-0.5-1.3-1l-17.4-35   L33.5,75.3c-0.2,0.2-0.3,0.4-0.2,0.6l1.1,9.2c0.3,2.3-0.5,4.6-2.2,6.3l-1.4,1.4c-0.4,0.4-1,0.6-1.6,0.5c-0.6-0.1-1.1-0.5-1.4-1   l-4.5-9.2l-5.9,1.8c-0.6,0.2-1.2,0-1.6-0.4c-0.4-0.4-0.6-1-0.4-1.6l1.8-5.9L8,72.5c-0.5-0.3-0.9-0.8-1-1.4   c-0.1-0.6,0.1-1.2,0.5-1.6l1.4-1.4c1.7-1.7,3.9-2.5,6.3-2.2l9.2,1.1c0.2,0,0.5-0.1,0.6-0.2l17.1-19.4l-35-17.4   c-0.5-0.3-0.9-0.8-1-1.3c-0.1-0.6,0.1-1.2,0.5-1.6l5.1-5.1c1.3-1.3,3.2-1.9,5.1-1.6l42.3,7.7l9.3-10.6c2.5-2.9,5.3-5.3,8.3-7.1   C81.8,7.3,89,4.8,92.3,8.1c3.3,3.3,0.8,10.4-2.4,15.5c-1.8,3-4.2,5.7-7.1,8.3l-10.6,9.3l7.7,42.3c0.3,1.9-0.3,3.8-1.6,5.1l-5.1,5.1   C72.9,94,72.4,94.2,71.9,94.2z M53.1,56.7c0,0,0.1,0,0.1,0c0.2,0,0.3,0.2,0.4,0.3l17.7,35.7c0.1,0.2,0.3,0.3,0.5,0.4   c0.2,0,0.4,0,0.6-0.2l5.1-5.1c1.1-1.1,1.5-2.6,1.3-4.1L71,41.1c0-0.2,0-0.4,0.2-0.5L82,31c2.8-2.5,5.1-5.1,6.9-8   c3.8-6.1,4.9-11.8,2.6-14.1c-2.3-2.3-7.9-1.2-14.1,2.6c-2.9,1.8-5.5,4.1-8,6.9l-9.6,10.8c-0.1,0.2-0.3,0.2-0.5,0.2l-42.6-7.8   c-1.5-0.3-3,0.2-4.1,1.3L7.5,28c-0.2,0.2-0.2,0.4-0.2,0.6c0,0.2,0.2,0.4,0.4,0.5l35.7,17.7c0.2,0.1,0.3,0.2,0.3,0.4   c0,0.2,0,0.4-0.1,0.5l-17.6,20c-0.4,0.5-1,0.7-1.6,0.6l-9.2-1.1c-2-0.2-3.9,0.4-5.3,1.8l-1.4,1.4c-0.2,0.2-0.2,0.4-0.2,0.6   c0,0.2,0.2,0.4,0.4,0.5l9.6,4.7c0.3,0.1,0.4,0.4,0.3,0.7l-1.9,6.3c-0.1,0.2,0.1,0.4,0.1,0.4c0.1,0.1,0.2,0.2,0.4,0.1c0,0,0,0,0,0   l6.3-1.9c0.3-0.1,0.6,0,0.7,0.3l4.7,9.6c0.1,0.2,0.3,0.3,0.5,0.4c0.2,0,0.4,0,0.6-0.2l1.4-1.4c1.4-1.4,2.1-3.3,1.8-5.3L32.1,76   c-0.1-0.6,0.2-1.2,0.6-1.6l20-17.6C52.8,56.7,52.9,56.7,53.1,56.7z"/><g display="inline"><path fill="#000000" d="M31.6,63.2c-1.8-1.8-4.7-1.8-6.4,0L4.5,83.9c-1.8,1.8-1.8,4.7,0,6.4l5.5,5.5    c0.9,0.9,2,1.3,3.2,1.3c1.2,0,2.4-0.5,3.2-1.3l20.7-20.7c1.8-1.8,1.8-4.7,0-6.4L31.6,63.2z M36.3,74.4L15.6,95    c-0.6,0.6-1.5,1-2.4,1c-0.9,0-1.8-0.3-2.4-1l-5.5-5.5c-1.3-1.3-1.3-3.5,0-4.8L26,64.1c0.7-0.7,1.5-1,2.4-1c0.9,0,1.7,0.3,2.4,1    l5.5,5.5C37.6,70.9,37.6,73,36.3,74.4z"/><path fill="#000000" d="M86.9,13.5C73.7,0.2,52.2,0.2,39,13.5c-11.8,11.8-13.2,30.6-3.4,44l-1.1,1.1    c-1,1-1,2.7,0,3.7l3.6,3.6c1,1,2.7,1,3.7,0l1.1-1.1c5.9,4.4,13,6.5,20,6.5c8.7,0,17.5-3.3,24-9.9C100.1,48.1,100.1,26.7,86.9,13.5    z M86.1,60.5c-11.5,11.5-29.9,12.8-42.8,3c-0.1-0.1-0.2-0.1-0.4-0.1c-0.2,0-0.3,0.1-0.4,0.2L41,65c-0.5,0.5-1.5,0.6-2.1,0    l-3.6-3.6c-0.3-0.3-0.4-0.6-0.4-1s0.2-0.8,0.4-1l1.4-1.4c0.2-0.2,0.2-0.5,0.1-0.8c-9.8-12.9-8.5-31.4,3-42.8    c12.7-12.7,33.5-12.7,46.2,0C98.8,27,98.8,47.8,86.1,60.5z"/><path fill="#000000" d="M81.9,18.4C71.5,8,54.4,8,44,18.4c-10.5,10.5-10.5,27.5,0,37.9c5.1,5.1,11.8,7.9,19,7.9    c7.2,0,13.9-2.8,19-7.9C92.4,45.9,92.4,28.9,81.9,18.4z M81.1,55.5c-4.8,4.8-11.3,7.5-18.1,7.5c-6.9,0-13.3-2.7-18.1-7.5    c-10-10-10-26.3,0-36.3c5-5,11.6-7.5,18.1-7.5c6.6,0,13.1,2.5,18.1,7.5C91.1,29.3,91.1,45.5,81.1,55.5z"/></g><g display="inline"><path fill="#000000" d="M46,54.3c0.8,0.8,1.9,1.2,3,1.2c1.1,0,2.1-0.4,3-1.2l32.9-32.9c0.8-0.8,1.2-1.8,1.2-3    c0-1.1-0.4-2.2-1.2-3c-0.8-0.8-1.8-1.2-3-1.2c-1.1,0-2.2,0.4-3,1.2L46,48.4C44.4,50,44.4,52.7,46,54.3z M79.8,16.3    c0.6-0.6,1.3-0.9,2.1-0.9c0.8,0,1.6,0.3,2.1,0.9c0.6,0.6,0.9,1.3,0.9,2.1c0,0.8-0.3,1.6-0.9,2.1L51.1,53.5c-1.2,1.2-3.1,1.2-4.3,0    c-1.2-1.2-1.2-3.1,0-4.3L79.8,16.3z"/><path fill="#000000" d="M15.3,26.9c1,0,2-0.4,2.7-1.1c1.5-1.5,1.5-3.9,0-5.4c-1.5-1.5-3.9-1.5-5.4,0    c-1.5,1.5-1.5,3.9,0,5.4C13.3,26.5,14.3,26.9,15.3,26.9z M13.4,21.2c0.5-0.5,1.2-0.8,1.9-0.8c0.7,0,1.4,0.3,1.9,0.8    c1,1,1,2.7,0,3.8c-1,1-2.7,1-3.8,0C12.3,23.9,12.3,22.2,13.4,21.2z"/><path fill="#000000" d="M40.8,15.9c-0.8,1.4-0.5,3.1,0.6,4.2c0.7,0.7,1.5,1,2.5,1c0.9,0,1.8-0.4,2.5-1    c1.2-1.2,1.4-3.1,0.4-4.4c-0.4-0.5-0.8-1.1-1.2-1.5c-0.5-0.5-1-0.9-1.5-1.2c-0.2-0.1-0.5-0.1-0.7,0c-0.4,0.3-0.7,0.6-1,0.9    C41.8,14.4,41.2,15.1,40.8,15.9C40.8,15.9,40.8,15.9,40.8,15.9z M41.8,16.5c0.4-0.7,0.8-1.3,1.4-1.8c0.2-0.2,0.4-0.4,0.6-0.5    c0.3,0.2,0.7,0.5,1,0.8c0.4,0.4,0.8,0.9,1.1,1.3c0.6,0.9,0.5,2.2-0.3,3c-0.4,0.4-1,0.7-1.7,0.7s-1.2-0.2-1.7-0.7    C41.5,18.5,41.3,17.4,41.8,16.5z"/><path fill="#000000" d="M69.7,17.5c1,0,2-0.4,2.7-1.1c1.5-1.5,1.5-3.9,0-5.4c-1.5-1.5-3.9-1.5-5.4,0    s-1.5,3.9,0,5.4C67.7,17.1,68.7,17.5,69.7,17.5z M67.8,11.7c0.5-0.5,1.2-0.8,1.9-0.8c0.7,0,1.4,0.3,1.9,0.8c1,1,1,2.7,0,3.8    c-1,1-2.7,1-3.8,0C66.7,14.5,66.7,12.8,67.8,11.7z"/><path fill="#000000" d="M24.8,26.2c0.6,0.6,1.3,0.9,2.1,0.9c0.8,0,1.6-0.3,2.1-0.9c0.9-0.9,1.1-2.1,0.7-3.3    c0,0,0-0.1,0-0.1c-1.5-3.2-0.9-7.1,1.7-9.6c2.1-2.1,5-2.9,7.8-2.3c-0.4,0.3-0.8,0.6-1.2,1c-1.6,1.6-2.4,3.7-2.4,5.9    s0.9,4.3,2.4,5.9c1.6,1.6,3.7,2.4,5.9,2.4s4.3-0.9,5.9-2.4c1.6-1.6,2.4-3.7,2.4-5.9s-0.9-4.3-2.4-5.9c-0.3-0.3-0.6-0.6-1-0.8    c2.6-0.5,5.4,0.4,7.3,2.3c2.8,2.8,3.2,7.2,1.1,10.4c-2.1,2.9-4.4,5.7-7,8.3c-3.3,3.3-6.9,6.2-10.8,8.7c-0.1,0.1-0.3,0.2-0.4,0.3    c-1.2,1.2-1.2,3.2,0,4.4c0.6,0.6,1.4,0.9,2.2,0.9c0.6,0,1.2-0.2,1.8-0.6c4.2-2.6,8.1-5.7,11.6-9.2c2.8-2.8,5.4-5.9,7.6-9.1    C66,21.7,65.2,14,60.3,9.1C56,4.8,49.5,3.7,44,6.1c-5.6-2.8-12.5-1.7-16.9,2.7c-4.4,4.4-5.5,11.1-2.8,16.7    C24.4,25.8,24.6,26,24.8,26.2z M27.9,9.6C32,5.5,38.5,4.6,43.7,7.3c0.2,0.1,0.4,0.1,0.5,0C49.4,4.9,55.5,6,59.5,10    c4.5,4.5,5.2,11.5,1.8,16.8c-2.2,3.2-4.7,6.2-7.5,9c-3.5,3.5-7.4,6.6-11.6,9.2l-0.1,0c-0.7,0.4-1.6,0.2-2.2-0.4    c-0.7-0.7-0.7-2,0-2.7c0.1-0.1,0.1-0.1,0.2-0.2c3.9-2.5,7.6-5.5,10.9-8.8c2.6-2.6,5-5.4,7.1-8.4c2.4-3.7,1.9-8.7-1.2-11.9    c-1.8-1.8-4.2-2.8-6.7-2.8c-1,0-2.1,0.2-3.1,0.5c-0.2,0.1-0.4,0.3-0.4,0.5c0,0.2,0.1,0.5,0.3,0.6c0.7,0.3,1.3,0.8,1.9,1.4    c1.3,1.3,2.1,3.1,2.1,5c0,1.9-0.7,3.7-2.1,5c-1.3,1.3-3.1,2.1-5,2.1s-3.7-0.7-5-2.1s-2.1-3.1-2.1-5c0-1.9,0.7-3.7,2.1-5    c0.6-0.6,1.3-1.1,2.1-1.4c0.2-0.1,0.3-0.3,0.3-0.6c0-0.2-0.2-0.4-0.4-0.5c-3.6-1.4-7.6-0.5-10.4,2.2c-2.9,2.9-3.7,7.3-1.9,11    c0,0,0,0,0,0c0.3,0.7,0.1,1.4-0.4,2c-0.7,0.7-1.9,0.7-2.6,0c-0.1-0.1-0.2-0.3-0.3-0.4C22.8,19.8,23.9,13.7,27.9,9.6z"/><path fill="#000000" d="M74.6,82.4c-1.5,1.5-1.5,3.9,0,5.4c0.7,0.7,1.7,1.1,2.7,1.1c1,0,2-0.4,2.7-1.1    c1.5-1.5,1.5-3.9,0-5.4C78.5,80.9,76.1,80.9,74.6,82.4z M79.2,87c-1,1-2.7,1-3.8,0c-1-1-1-2.7,0-3.8c0.5-0.5,1.2-0.8,1.9-0.8    c0.7,0,1.4,0.3,1.9,0.8C80.2,84.3,80.2,85.9,79.2,87z"/><path fill="#000000" d="M86.2,54.8c-0.5-0.5-1-0.9-1.5-1.2c-1.4-0.9-3.3-0.8-4.4,0.4c-0.7,0.7-1,1.5-1,2.5    c0,0.9,0.4,1.8,1,2.5c0.7,0.7,1.6,1,2.5,1c0.6,0,1.2-0.1,1.7-0.4c0,0,0,0,0,0c0.7-0.4,1.4-1,2.1-1.6c0.3-0.3,0.6-0.7,0.9-1    c0.1-0.2,0.2-0.5,0-0.7C87.1,55.7,86.7,55.2,86.2,54.8z M85.7,57.2c-0.5,0.5-1.1,1-1.8,1.4v0c-0.9,0.5-2.1,0.4-2.8-0.4    c-0.4-0.4-0.7-1-0.7-1.7c0-0.6,0.2-1.2,0.7-1.7c0.5-0.5,1.1-0.7,1.7-0.7c0.5,0,0.9,0.1,1.3,0.4c0.5,0.3,0.9,0.7,1.3,1.1    c0.3,0.3,0.6,0.6,0.8,1C86.1,56.8,85.9,57,85.7,57.2z"/><path fill="#000000" d="M94.2,56.4c2.5-5.5,1.3-12-3-16.3c-4.8-4.8-12.5-5.7-18.3-1.9c-3.2,2.2-6.3,4.8-9.1,7.6    c-3.5,3.5-6.6,7.4-9.2,11.6c-0.9,1.2-0.7,2.9,0.3,4c1.2,1.2,3.2,1.2,4.4,0c0.1-0.1,0.2-0.2,0.3-0.4c2.5-3.9,5.4-7.5,8.6-10.7    c2.6-2.6,5.3-4.9,8.2-7c3.3-2.1,7.7-1.7,10.4,1.1c1.9,1.9,2.8,4.7,2.3,7.3c-0.3-0.3-0.5-0.7-0.8-1c-1.6-1.6-3.7-2.4-5.9-2.4    c-2.2,0-4.3,0.9-5.9,2.4c-1.6,1.6-2.4,3.7-2.4,5.9s0.9,4.3,2.4,5.9c1.6,1.6,3.7,2.4,5.9,2.4c2.2,0,4.3-0.9,5.9-2.4    c0.4-0.4,0.7-0.8,1-1.2c0.6,2.8-0.2,5.8-2.3,7.8c-2.5,2.5-6.4,3.2-9.6,1.7c0,0-0.1,0-0.1,0c-1.1-0.5-2.4-0.2-3.3,0.7    c-0.6,0.6-0.9,1.3-0.9,2.1c0,0.8,0.3,1.6,0.9,2.1c0.2,0.2,0.5,0.4,0.7,0.5c2,1,4.2,1.5,6.3,1.5c3.8,0,7.5-1.5,10.3-4.3    C96,68.9,97,62,94.2,56.4z M90.7,72.5c-4,4-10.2,5.1-15.3,2.6c-0.2-0.1-0.3-0.2-0.4-0.3c-0.3-0.3-0.5-0.8-0.5-1.3s0.2-1,0.5-1.3    c0.4-0.4,0.8-0.5,1.3-0.5c0.2,0,0.4,0,0.6,0.1c0,0,0,0,0,0c3.7,1.8,8.1,1,11-1.9c2.7-2.7,3.6-6.8,2.2-10.4    c-0.1-0.2-0.3-0.4-0.5-0.4c-0.2,0-0.5,0.1-0.6,0.3c-0.4,0.8-0.8,1.5-1.4,2.1c-1.3,1.3-3.1,2.1-5,2.1s-3.7-0.7-5-2.1    c-1.3-1.3-2.1-3.1-2.1-5c0-1.9,0.7-3.7,2.1-5c1.3-1.3,3.1-2.1,5-2.1s3.7,0.7,5,2.1c0.6,0.6,1,1.2,1.4,1.9c0.1,0.2,0.3,0.3,0.6,0.3    c0.2,0,0.4-0.2,0.5-0.4c1.2-3.5,0.3-7.2-2.3-9.8c-3.2-3.2-8.2-3.7-11.9-1.2c-3,2.1-5.8,4.5-8.4,7.1c-3.3,3.3-6.3,7-8.8,10.9    c-0.1,0.1-0.1,0.2-0.2,0.2c-0.7,0.7-2,0.7-2.7,0c-0.6-0.6-0.7-1.5-0.4-2.2l0-0.1c2.6-4.2,5.7-8.1,9.2-11.6    c2.8-2.8,5.8-5.3,8.9-7.4c5.3-3.4,12.3-2.7,16.8,1.8c4,4,5.1,10.1,2.6,15.3c-0.1,0.2-0.1,0.4,0,0.5C95.8,61.8,94.8,68.3,90.7,72.5    z"/><path fill="#000000" d="M71.3,55c0,0,0-0.1-0.1-0.1c-0.2-0.2-0.4-0.3-0.7-0.2c-0.1,0-0.2,0.1-0.2,0.2    c-1.3,1.4-2.6,2.9-3.8,4.4c-0.5,0.6-0.7,1.4-0.6,2.1c0.3,2.1-0.1,3.8-1.1,4.8c-1.6,1.6-4.8,1.6-8.7,0.1c-4.1-1.6-8.6-4.8-12.7-8.9    L43.1,57c-4.1-4.1-7.2-8.6-8.9-12.7c-1.5-3.9-1.5-7.1,0.1-8.7c1-1,2.7-1.4,4.8-1.1c0.8,0.1,1.5-0.1,2.1-0.6c1.5-1.2,3-2.5,4.4-3.9    c0.1-0.1,0.1-0.1,0.2-0.2c0.1-0.3,0-0.6-0.2-0.7c0,0-0.1-0.1-0.1-0.1c-7-3.2-12.8-3.2-15.9-0.1c-0.7,0.7-1.2,1.5-1.6,2.4    c0,0,0,0,0,0.1l-12.7,32L4.4,89.6c0,0,0,0.1,0,0.1c-0.5,1.8,0,3.6,1.3,4.9c1,1,2.3,1.5,3.6,1.5c0.4,0,0.9-0.1,1.3-0.2    c0,0,0.1,0,0.1,0l26.2-10.6l32-12.7c0,0,0,0,0.1,0c0.9-0.4,1.7-0.9,2.4-1.6C74.6,67.8,74.5,62,71.3,55z M70.6,70.1    c-0.6,0.6-1.2,1-2,1.3c0,0,0,0,0,0L36.5,84.2L10.3,94.8c-1.3,0.3-2.8,0-3.8-1c-1-1-1.4-2.4-1-3.8l10.6-26.2l12.8-32.1c0,0,0,0,0,0    c0.3-0.8,0.8-1.4,1.3-2c2.7-2.7,7.7-2.6,13.9,0C43,30.9,41.7,32,40.5,33c-0.3,0.3-0.8,0.4-1.2,0.3c-2.5-0.3-4.5,0.2-5.8,1.5    c-2,2-2.1,5.5-0.3,9.9c1.7,4.3,4.9,8.9,9.1,13.1l0.3,0.3c4.2,4.2,8.9,7.4,13.1,9.1c4.4,1.8,8,1.6,9.9-0.3c1.3-1.3,1.8-3.3,1.5-5.8    c-0.1-0.4,0.1-0.9,0.3-1.2c1-1.3,2.1-2.5,3.2-3.7C73.3,62.4,73.3,67.5,70.6,70.1z"/></g><g display="inline"><path fill="#000000" d="M50,2C23.3,2,1.6,23.7,1.6,50.4S23.3,98.7,50,98.7S98.4,77,98.4,50.4S76.7,2,50,2z     M50,97.6c-26,0-47.2-21.2-47.2-47.2S24,3.2,50,3.2s47.2,21.2,47.2,47.2S76,97.6,50,97.6z"/><path fill="#000000" d="M73.9,42.9c-4.1,0-7.5,3.3-7.5,7.5s3.3,7.5,7.5,7.5s7.5-3.3,7.5-7.5S78.1,42.9,73.9,42.9z     M73.9,56.6c-3.5,0-6.3-2.8-6.3-6.3c0-3.5,2.8-6.3,6.3-6.3c3.5,0,6.3,2.8,6.3,6.3C80.2,53.8,77.4,56.6,73.9,56.6z"/><path fill="#000000" d="M50,42.9c-4.1,0-7.5,3.3-7.5,7.5s3.3,7.5,7.5,7.5s7.5-3.3,7.5-7.5S54.1,42.9,50,42.9z     M50,56.6c-3.5,0-6.3-2.8-6.3-6.3c0-3.5,2.8-6.3,6.3-6.3s6.3,2.8,6.3,6.3C56.3,53.8,53.5,56.6,50,56.6z"/><path fill="#000000" d="M26.1,42.9c-4.1,0-7.5,3.3-7.5,7.5s3.3,7.5,7.5,7.5s7.5-3.3,7.5-7.5S30.2,42.9,26.1,42.9z     M26.1,56.6c-3.5,0-6.3-2.8-6.3-6.3c0-3.5,2.8-6.3,6.3-6.3s6.3,2.8,6.3,6.3C32.3,53.8,29.5,56.6,26.1,56.6z"/></g><g display="inline"><path fill="#000000" d="M18.3,59H7.4c-1.4,0-2.6,1.1-2.6,2.6v21c0,1.4,1.1,2.6,2.6,2.6h10.9    c1.4,0,2.6-1.1,2.6-2.6v-21C20.8,60.1,19.7,59,18.3,59z M19.6,82.5c0,0.8-0.6,1.4-1.4,1.4H7.4c-0.8,0-1.4-0.6-1.4-1.4v-21    c0-0.8,0.6-1.4,1.4-1.4h10.9c0.8,0,1.4,0.6,1.4,1.4V82.5z"/><path fill="#000000" d="M95.1,64.2c-0.4-3-2.8-5.5-5.8-6.1C87,57.8,84.7,58.5,83,60l-7.7,7.6    c-0.2,0.2-0.2,0.5-0.1,0.7c0.6,1,1,2.2,0.9,3.4c-0.1,3.1-2.9,5.7-6.1,5.7H57.1c-0.3,0-0.6-0.2-0.7-0.5c0-0.2,0-0.4,0.1-0.5    c0.1-0.1,0.3-0.2,0.5-0.2h13c2.6,0,4.8-2,4.9-4.6c0-1.3-0.4-2.5-1.3-3.4c-0.9-0.9-2.1-1.4-3.4-1.4H58.7c-6.1-6.3-14.2-9.8-23-9.8    c-4.5,0-8.8,0.9-12.9,2.7c-0.2,0.1-0.3,0.3-0.3,0.5V80c0,1.1,0.9,2,2,2h10.4c0.1,0,0.2,0,0.3,0.1l11.3,6c0.7,0.4,1.5,0.6,2.2,0.6    h25.9c1.3,0,2.6-0.6,3.5-1.6l15.6-17.4C94.9,68.2,95.4,66.2,95.1,64.2z M92.8,69L77.2,86.3c-0.7,0.8-1.7,1.2-2.7,1.2H48.6    c-0.6,0-1.2-0.1-1.7-0.4l-11.3-6c-0.3-0.1-0.5-0.2-0.8-0.2H24.4c-0.5,0-0.8-0.4-0.8-0.8V60.6c3.8-1.6,7.9-2.5,12.1-2.5    c8.5,0,16.4,3.4,22.3,9.6c0.1,0.1,0.3,0.2,0.4,0.2h11.8c1,0,1.9,0.4,2.5,1.1c0.7,0.7,1,1.6,1,2.6c-0.1,1.9-1.7,3.4-3.7,3.4H57    c-0.5,0-1,0.2-1.4,0.6c-0.3,0.4-0.5,0.9-0.4,1.4c0.1,0.8,0.9,1.5,1.8,1.5H70c3.9,0,7.2-3.1,7.3-6.8c0-1.3-0.3-2.5-0.9-3.6l7.3-7.2    c1.4-1.3,3.3-1.9,5.2-1.5c2.5,0.4,4.5,2.5,4.9,5.1C94.2,66.1,93.8,67.7,92.8,69z"/><path fill="#000000" d="M38.1,30.4c0.1,0.8,1.1,6.2,11,15.7c10.7,10.3,13.4,12.4,16.3,12.5c0,0,0,0,0,0s0,0,0,0    c2.9-0.1,5.6-2.2,16.3-12.5c9.9-9.5,10.9-14.9,11-15.7c0,0,0,0,0,0c0.3-1.1,0.4-2.2,0.4-3.4c0-8.2-6.7-14.9-14.9-14.9    c-5.3,0-10.1,2.8-12.8,7.3c-2.7-4.5-7.5-7.3-12.8-7.3c-8.2,0-14.9,6.7-14.9,14.9C37.7,28.1,37.9,29.3,38.1,30.4    C38.1,30.4,38.1,30.4,38.1,30.4z M52.7,13.2c5.2,0,9.9,2.9,12.3,7.6c0.2,0.4,0.8,0.4,1,0c2.4-4.7,7.1-7.6,12.3-7.6    C85.9,13.2,92,19.4,92,27c0,1-0.1,2.1-0.3,3.1c0,0,0,0.1,0,0.1c0,0.1-0.6,5.3-10.7,15.1c-10.3,9.9-13,12.1-15.5,12.2    C63,57.3,60.2,55.2,50,45.3c-10.1-9.7-10.7-15-10.7-15.1c0-0.1,0-0.1,0-0.2c-0.2-1-0.3-2-0.3-3.1C38.9,19.4,45.1,13.2,52.7,13.2z"/><path fill="#000000" d="M43.7,30.1c0,0.2,0.4,4.6,8.8,12.6c8.6,8.3,10.6,9.8,13,9.9l0.2,0c2.3-0.1,4.4-1.7,13-9.9    c8.4-8,8.8-12.4,8.8-12.6c0,0,0,0,0,0c0.2-0.8,0.3-1.6,0.3-2.5c0-5.6-4.5-10.1-10.1-10.1c-3.9,0-7.4,2.2-9.1,5.7    c-0.5,1.2-1.6,1.9-2.9,1.9h-0.2c-1.3,0-2.4-0.8-2.9-1.9c0,0,0,0,0-0.1c-1.7-3.5-5.2-5.7-9.1-5.7c-5.6,0-10.1,4.5-10.1,10.1    C43.4,28.4,43.5,29.3,43.7,30.1C43.7,30.1,43.7,30.1,43.7,30.1z M53.5,18.7c3.4,0,6.5,1.9,8,5c0,0,0,0,0,0c0.7,1.6,2.3,2.7,4,2.7    h0.2c1.7,0,3.3-1,4-2.6c1.5-3.1,4.6-5,8-5c4.9,0,8.9,4,8.9,8.9c0,0.8-0.1,1.6-0.3,2.3c0,0.1,0,0.1,0,0.2c-0.1,0.6-1,4.7-8.4,11.8    c-8.1,7.8-10.3,9.5-12.2,9.6l-0.1,0c-1.9-0.1-4.1-1.8-12.2-9.6c-7.4-7.1-8.3-11.2-8.4-11.8c0-0.1,0-0.1,0-0.2    c-0.2-0.7-0.3-1.5-0.3-2.3C44.5,22.7,48.5,18.7,53.5,18.7z"/></g><g display="inline"><path fill="#000000" d="M75.1,11.7H24.9c-4.2,0-7.6,3.4-7.6,7.6c0,0,0,0,0,0.1l6.5,63.5c0.3,3.4,3.3,6.1,6.6,6.1    h39.1c3.3,0,6.3-2.8,6.6-6.1l6.5-63.5c0,0,0,0,0-0.1C82.7,15.1,79.3,11.7,75.1,11.7z M75,82.8c-0.3,2.8-2.7,5.1-5.4,5.1H30.4    c-2.7,0-5.2-2.3-5.4-5.1l-6.5-63.5c0-3.5,2.9-6.4,6.5-6.4h50.1c3.6,0,6.4,2.9,6.5,6.4L75,82.8z"/><path fill="#000000" d="M70,17.7H30c-3.4,0-6.2,2.9-6.2,6.6L29,77.7c0.3,2.9,2.7,5.3,5.4,5.3h31.2    c2.7,0,5.1-2.4,5.4-5.3l5.2-53.5C76.2,20.7,73.4,17.7,70,17.7z M69.8,77.6c-0.2,2.3-2.1,4.2-4.2,4.2H34.4c-2.1,0-4-1.9-4.2-4.2    L25,24.3c0-2.9,2.3-5.3,5-5.3h40c2.8,0,5,2.4,5,5.3L69.8,77.6z"/><path fill="#000000" d="M69.7,36.7l-39.4,0c-0.2,0-0.3,0.1-0.4,0.2c-0.1,0.1-0.2,0.3-0.2,0.5l3.5,36.5    c0.2,2.4,2.2,4.4,4.4,4.4h24.9c2.2,0,4.2-2,4.4-4.4l3.5-36.5c0-0.2,0-0.3-0.2-0.5C70,36.7,69.9,36.7,69.7,36.7z M65.7,73.7    c-0.2,1.8-1.6,3.3-3.2,3.3H37.6c-1.6,0-3.1-1.5-3.2-3.4l-3.4-35.9l38.1,0L65.7,73.7z"/></g><g display="inline"><path fill="#000000" d="M50,8.3C26.8,8.3,7.9,27.2,7.9,50.4c0,23.2,18.9,42.1,42.1,42.1s42.1-18.9,42.1-42.1    C92.1,27.2,73.2,8.3,50,8.3z M50,91.3c-22.6,0-40.9-18.4-40.9-40.9S27.4,9.4,50,9.4s40.9,18.4,40.9,40.9S72.6,91.3,50,91.3z"/><path fill="#000000" d="M50,15.7c-19.1,0-34.7,15.6-34.7,34.7C15.3,69.5,30.9,85,50,85s34.7-15.6,34.7-34.7    C84.7,31.2,69.1,15.7,50,15.7z M50,83.9c-18.5,0-33.5-15-33.5-33.5c0-18.5,15-33.5,33.5-33.5s33.5,15,33.5,33.5    C83.5,68.8,68.5,83.9,50,83.9z"/><path fill="#000000" d="M66.6,55.9c-1.4,0-2.7,0.7-3.5,1.9c-2.7,4.7-7.7,7.6-13,7.6s-10.4-2.9-13-7.6    c0,0,0,0,0-0.1c-0.8-1.2-2.1-1.8-3.5-1.8c-2.3,0-4.2,1.9-4.2,4.2c0,0.6,0.1,1.2,0.4,1.8c4.2,7.3,12,11.9,20.4,11.9    c8.4,0,16.3-4.6,20.4-12c0.2-0.5,0.4-1.1,0.4-1.7C70.8,57.8,68.9,55.9,66.6,55.9z M69.4,61.3C65.4,68.3,58,72.6,50,72.6    s-15.4-4.3-19.4-11.3c-0.2-0.4-0.3-0.8-0.3-1.2c0-1.7,1.4-3,3-3c1,0,2,0.5,2.5,1.3c2.9,5,8.3,8.1,14,8.1c5.8,0,11.2-3.1,14-8.1    c0.6-0.8,1.5-1.3,2.5-1.3c1.7,0,3,1.4,3,3C69.6,60.5,69.5,61,69.4,61.3z"/><path fill="#000000" d="M40.4,51c3.6,0,6.5-4.4,6.5-9.8s-2.9-9.8-6.5-9.8s-6.5,4.4-6.5,9.8S36.8,51,40.4,51z     M40.4,32.5c2.9,0,5.3,3.9,5.3,8.7s-2.4,8.7-5.3,8.7s-5.3-3.9-5.3-8.7S37.5,32.5,40.4,32.5z"/><path fill="#000000" d="M59.6,51c3.6,0,6.5-4.4,6.5-9.8s-2.9-9.8-6.5-9.8s-6.5,4.4-6.5,9.8S56,51,59.6,51z     M59.6,32.5c2.9,0,5.3,3.9,5.3,8.7s-2.4,8.7-5.3,8.7s-5.3-3.9-5.3-8.7S56.6,32.5,59.6,32.5z"/></g><g display="inline"><path fill="#000000" d="M35.8,49.8H19.5c-2.7,0-4.8,2.2-4.8,4.8V68c0,2.7,2.2,4.8,4.8,4.8h16.3    c2.7,0,4.8-2.2,4.8-4.8V54.7C40.7,52,38.5,49.8,35.8,49.8z M39.5,68c0,2-1.6,3.7-3.7,3.7H19.5c-2,0-3.7-1.6-3.7-3.7V54.7    c0-2,1.6-3.7,3.7-3.7h16.3c2,0,3.7,1.6,3.7,3.7V68z"/><path fill="#000000" d="M80.5,49.8H64.2c-2.7,0-4.8,2.2-4.8,4.8V68c0,2.7,2.2,4.8,4.8,4.8h16.3    c2.7,0,4.8-2.2,4.8-4.8V54.7C85.3,52,83.1,49.8,80.5,49.8z M84.1,68c0,2-1.6,3.7-3.7,3.7H64.2c-2,0-3.7-1.6-3.7-3.7V54.7    c0-2,1.6-3.7,3.7-3.7h16.3c2,0,3.7,1.6,3.7,3.7V68z"/><path fill="#000000" d="M87.5,47l-22-22c-1.3-1.3-3-2-4.9-2c-3.8,0-6.9,3.1-6.9,6.9v4.3c0,1.8,1.4,3.2,3.2,3.2    c1.8,0,3.2-1.4,3.2-3.2V31c0-0.2,0.2-0.4,0.4-0.4c0.1,0,0.2,0,0.3,0.1l14.3,14.3H63c-3.4,0-6.4,1.8-8.1,4.8    c-1.4-1-3.2-1.6-4.9-1.6s-3.5,0.6-4.9,1.6c-1.6-2.9-4.7-4.8-8.1-4.8H24.9c3.4-3.4,14.3-14.3,14.3-14.3c0.1-0.1,0.2-0.1,0.3-0.1    c0.2,0,0.4,0.2,0.4,0.4v3.3c0,1.8,1.4,3.2,3.2,3.2c1.8,0,3.2-1.4,3.2-3.2v-4.3c0-3.8-3.1-6.9-6.9-6.9c-1.8,0-3.6,0.7-4.9,2l-22,22    c-2.1,1.8-3.4,4.4-3.4,7.1v14.4c0,5.1,4.1,9.2,9.2,9.2H37c5.1,0,9.2-4.1,9.2-9.2l0-12.8c0.9-1.2,2.3-1.9,3.8-1.9    c1.5,0,2.9,0.7,3.8,1.9v12.8c0,5.1,4.1,9.2,9.2,9.2h18.7c5.1,0,9.2-4.1,9.2-9.2V54.1C90.9,51.4,89.6,48.8,87.5,47z M89.7,68.6    c0,4.4-3.6,8-8,8H63c-4.4,0-8-3.6-8-8l0-13c0-0.1,0-0.2-0.1-0.3c-1.1-1.6-2.9-2.5-4.8-2.5c-1.9,0-3.7,1-4.9,2.5    c-0.1,0.1-0.1,0.2-0.1,0.3v13c0,4.4-3.6,8-8,8H18.3c-4.4,0-8-3.6-8-8V54.1c0-2.4,1.1-4.7,3-6.2l22.1-22.1c1.1-1.1,2.5-1.7,4.1-1.7    c3.2,0,5.7,2.6,5.7,5.7v4.3c0,1.1-0.9,2-2,2s-2-0.9-2-2V31c0-0.9-0.7-1.6-1.6-1.6c-0.4,0-0.8,0.2-1.1,0.5L25.5,42.7    c-2.7,2.7-2.7,2.7-2.5,3c0.1,0.2,0.3,0.4,0.5,0.4H37c3.1,0,6,1.8,7.3,4.7c0,0.1,0.1,0.2,0.2,0.3c0.2,0.1,0.5,0.1,0.7,0    c0,0,0,0,0,0c1.3-1.1,3-1.7,4.7-1.7c1.7,0,3.4,0.6,4.8,1.7c0.1,0.1,0.3,0.2,0.5,0.1c0.2,0,0.3-0.2,0.4-0.3    c1.3-2.9,4.2-4.7,7.3-4.7l13.5,0c0.2,0,0.5-0.1,0.5-0.4c0.1-0.2,0-0.5-0.1-0.6L61.6,29.8c-0.3-0.3-0.7-0.5-1.1-0.5    c-0.9,0-1.6,0.7-1.6,1.6v3.3c0,1.1-0.9,2-2,2s-2-0.9-2-2v-4.3c0-3.2,2.6-5.7,5.7-5.7c1.5,0,3,0.6,4.1,1.7l22.1,22.1    c0,0,0,0,0.1,0.1c1.8,1.5,2.9,3.8,2.9,6.2V68.6z"/></g><g display="inline"><path fill="#000000" d="M38,23.6c-7-0.3-10.7,2.1-14.1,4.2c-1.8,1.1-3.4,2.2-5.5,2.9c-0.7,0.2-1.4,0.4-2.1,0.6    c-1.2,0.3-2,1.3-2,2.5v39.6c0,1.4,1.1,2.5,2.5,2.5h25.5c1.1,0,2.2-0.5,3.1-1.3l2.1-2.1c0.8-0.8,1.3-1.9,1.3-3L49,29.9    c0,0,0-0.1,0-0.1C48.9,29.6,47.7,24,38,23.6z M47.7,69.4c0,0.8-0.3,1.6-0.9,2.2l-2.1,2.1c-0.6,0.6-1.4,0.9-2.2,0.9H16.9    c-0.7,0-1.3-0.6-1.3-1.3V33.7c0-0.7,0.5-1.2,1.1-1.4c0.7-0.2,1.5-0.4,2.2-0.6c2.2-0.7,3.9-1.8,5.7-3c3.1-2,6.3-4.1,12.2-4.1    c0.4,0,0.8,0,1.2,0c8.3,0.4,9.7,4.7,9.8,5.3L47.7,69.4z"/><path fill="#000000" d="M90.1,26c-0.5-0.5-1.2-0.7-1.9-0.6c-1.7,0.1-4.3,0.1-7.6-1c-2-0.6-3.6-1.6-5.3-2.7    c-3.2-2-6.8-4.2-13.6-4.2c0,0,0,0,0,0c-7.3,0-10.6,3.2-11.7,4.6c-1.1-1.5-4.4-4.6-11.7-4.6c0,0,0,0,0,0c-6.7,0-10.4,2.2-13.6,4.2    c-1.7,1-3.3,2-5.3,2.7c-3.3,1.1-6,1.1-7.6,1c-0.7-0.1-1.4,0.2-1.9,0.6c-0.5,0.5-0.8,1.1-0.8,1.8v48.6c0,2.2,1.8,4.1,4.1,4.1h28    c0.1,0,0.1,0.1,0.1,0.1c0,1.4,1.1,2.5,2.5,2.5h12.5c1.4,0,2.5-1.1,2.5-2.5c0-0.1,0.1-0.1,0.1-0.1h28c2.2,0,4.1-1.8,4.1-4.1V27.9    C90.9,27.2,90.6,26.5,90.1,26z M89.7,76.5c0,1.6-1.3,2.9-2.9,2.9h-28c-0.7,0-1.3,0.6-1.3,1.3c0,0.7-0.6,1.3-1.3,1.3H43.8    c-0.7,0-1.3-0.6-1.3-1.3c0-0.7-0.6-1.3-1.3-1.3h-28c-1.6,0-2.9-1.3-2.9-2.9V27.9c0-0.4,0.2-0.7,0.4-1c0.2-0.2,0.6-0.3,0.9-0.3    c0,0,0.1,0,0.1,0c1.8,0.1,4.6,0.1,8.1-1c2.1-0.7,3.8-1.7,5.6-2.8c3.2-2,6.6-4,13-4c0,0,0,0,0,0c7,0,9.9,3,10.8,4.3    c0.4,0.6,1.3,0.6,1.7,0c0.9-1.3,3.8-4.3,10.8-4.3c0,0,0,0,0,0c6.4,0,9.7,2,13,4c1.8,1.1,3.5,2.1,5.6,2.8c3.5,1.1,6.3,1.2,8.1,1    c0.4,0,0.7,0.1,1,0.3c0.3,0.3,0.4,0.6,0.4,1V76.5z"/><path fill="#000000" d="M83.6,31.2c-0.7-0.2-1.4-0.3-2.1-0.6c-2-0.7-3.7-1.7-5.5-2.9c-3.3-2.1-7.1-4.5-14.1-4.2    c-9.7,0.4-10.9,6-10.9,6.3c0,0,0,0.1,0,0.1l0.1,39.5c0,1.1,0.5,2.2,1.3,3l2.1,2.1c0.8,0.8,1.9,1.3,3.1,1.3h25.5    c1.4,0,2.5-1.1,2.5-2.5V33.7C85.6,32.5,84.7,31.5,83.6,31.2z M84.4,73.3c0,0.7-0.6,1.3-1.3,1.3H57.6c-0.8,0-1.6-0.3-2.2-0.9    l-2.1-2.1c-0.6-0.6-0.9-1.4-0.9-2.2L52.2,30c0.1-0.5,1.5-4.9,9.8-5.3c6.6-0.3,10,1.9,13.4,4c1.8,1.2,3.6,2.3,5.7,3    c0.7,0.2,1.5,0.4,2.2,0.6c0.6,0.1,1.1,0.7,1.1,1.4V73.3z"/></g><g display="inline"><path fill="#000000" d="M48.4,11.3c-1.9,0-3.5,1.6-3.5,3.5V35c0,0.5-0.4,0.9-0.9,0.9c-0.5,0-0.9-0.4-0.9-0.9V14.7    c0-1.9-1.6-3.5-3.5-3.5c-1.9,0-3.5,1.6-3.5,3.5V35c0,0.5-0.4,0.9-0.9,0.9s-0.9-0.4-0.9-0.9V14.7c0-1.9-1.6-3.5-3.5-3.5    c-1.9,0-3.5,1.6-3.5,3.5v21.8c0,3.7,2.7,9.9,8.8,12.4V86c0,1.9,1.6,3.5,3.5,3.5c1.9,0,3.5-1.6,3.5-3.5V48.9    c6.1-2.5,8.8-8.7,8.8-12.4V14.7C51.9,12.8,50.3,11.3,48.4,11.3z M50.7,36.5c0,3.4-2.6,9.2-8.5,11.4c-0.2,0.1-0.4,0.3-0.4,0.6V86    c0,1.3-1,2.3-2.3,2.3c-1.3,0-2.3-1-2.3-2.3V48.5c0-0.2-0.2-0.5-0.4-0.6c-5.8-2.2-8.5-8-8.5-11.4V14.7c0-1.3,1-2.3,2.3-2.3    c1.3,0,2.3,1,2.3,2.3V35c0,1.2,0.9,2.1,2.1,2.1s2.1-0.9,2.1-2.1V14.7c0-1.3,1-2.3,2.3-2.3c1.3,0,2.3,1,2.3,2.3V35    c0,1.2,0.9,2.1,2.1,2.1s2.1-0.9,2.1-2.1V14.7c0-1.3,1-2.3,2.3-2.3c1.3,0,2.3,1,2.3,2.3V36.5z"/><path fill="#000000" d="M72.7,14.3c-0.1-1.1-0.8-2-1.9-2.4c-1.1-0.4-2.3-0.3-3.2,0.4c-6,4.8-9.5,12-9.5,19.7    c0,6.9,2.7,13.3,7.7,18.1V86c0,1.9,1.6,3.5,3.5,3.5c1.9,0,3.5-1.6,3.5-3.5V14.7C72.7,14.6,72.7,14.5,72.7,14.3z M71.6,86    c0,1.3-1,2.3-2.3,2.3c-1.3,0-2.3-1-2.3-2.3l0-36c0-0.2-0.1-0.3-0.2-0.4c-4.8-4.6-7.5-10.8-7.5-17.5c0-7.4,3.3-14.2,9.1-18.8    c0.4-0.3,0.8-0.4,1.3-0.4c0.3,0,0.5,0.1,0.8,0.2c0.7,0.3,1.1,0.8,1.1,1.5c0,0.1,0,0.2,0,0.3V86z"/></g><g display="inline"><path fill="#000000" d="M38.9,53.6c-0.2-2.7-2.6-4.8-5.4-4.6c-1.3,0.1-2.5,0.7-3.4,1.7c-0.9,1-1.3,2.3-1.2,3.6    l1.9,24c0.2,2.6,2.4,4.6,5,4.6c0.1,0,0.3,0,0.4,0c2.7-0.2,4.8-2.6,4.6-5.4L38.9,53.6z M38.7,80.4c-0.7,0.8-1.6,1.2-2.6,1.3    c-1,0.1-2-0.2-2.8-0.9c-0.8-0.7-1.2-1.6-1.3-2.6l-1.9-24c-0.2-2.1,1.4-3.9,3.5-4.1c0.1,0,0.2,0,0.3,0c2,0,3.6,1.5,3.8,3.5l1.9,24    C39.7,78.7,39.3,79.7,38.7,80.4z"/><path fill="#000000" d="M43.3,51.3c-0.4-5.1-4.9-8.9-10-8.5l-0.6,0c-5.1,0.4-8.9,4.9-8.5,10l0.2,2.7l-5.6,3.1    c-0.2,0.1-0.3,0.3-0.3,0.6l1.4,16.4c0,0.2,0.2,0.4,0.4,0.5l6,2.1l0.2,2.4c0.2,2.5,1.3,4.7,3.2,6.3c1.7,1.5,3.8,2.2,6,2.2    c0.2,0,0.5,0,0.7,0l0.6,0c2.5-0.2,4.7-1.3,6.3-3.2c1.6-1.9,2.4-4.3,2.2-6.8L43.3,51.3z M42.4,85.1C41,86.8,39,87.8,36.9,88l-0.6,0    c-2.2,0.2-4.2-0.5-5.9-1.9c-1.7-1.4-2.7-3.4-2.8-5.5l-0.2-2.8c0-0.2-0.2-0.5-0.4-0.6l-6-2.1l-1.3-15.7l5.6-3.1    c0.2-0.1,0.3-0.3,0.3-0.6l-0.2-3.1c-0.4-4.5,3-8.4,7.5-8.7l0.6,0c4.5-0.4,8.4,3,8.7,7.5l2.2,27.8C44.5,81.4,43.8,83.5,42.4,85.1z"/><path fill="#000000" d="M27.9,62c-0.2-0.1-0.4-0.1-0.6,0l-2.5,1.4c-0.2,0.1-0.3,0.3-0.3,0.6l0.6,6.9    c0,0.2,0.2,0.4,0.4,0.5l2.7,0.9c0.1,0,0.1,0,0.2,0c0.1,0,0.3,0,0.4-0.1c0.2-0.1,0.2-0.3,0.2-0.5l-0.7-9.3    C28.2,62.2,28.1,62.1,27.9,62z M26.3,70.4l-0.5-6.2l1.4-0.8l0.6,7.5L26.3,70.4z"/><path fill="#000000" d="M69.9,50.8c-0.9-1-2.1-1.6-3.4-1.7c-2.8-0.2-5.1,1.8-5.4,4.6l-1.9,24    c-0.1,1.3,0.3,2.6,1.2,3.6c0.9,1,2.1,1.6,3.4,1.7c0.1,0,0.3,0,0.4,0c2.6,0,4.8-2,5-4.6l1.9-24C71.2,53.1,70.8,51.8,69.9,50.8z     M69.9,54.3l-1.9,24c-0.2,2.1-2,3.7-4.1,3.5c-2.1-0.2-3.7-2-3.5-4.1l1.9-24c0.2-2,1.8-3.5,3.8-3.5c0.1,0,0.2,0,0.3,0    c1,0.1,1.9,0.6,2.6,1.3C69.7,52.3,70,53.3,69.9,54.3z"/><path fill="#000000" d="M81.2,58.6l-5.6-3.1l0.2-2.7c0.4-5.1-3.4-9.6-8.5-10l-0.6,0c-5.1-0.4-9.6,3.4-10,8.5    l-2.2,27.8c-0.2,2.5,0.6,4.9,2.2,6.8c1.6,1.9,3.9,3,6.3,3.2l0.6,0c0.2,0,0.5,0,0.7,0c2.2,0,4.3-0.8,6-2.2c1.9-1.6,3-3.9,3.2-6.3    l0.2-2.4l6-2.1c0.2-0.1,0.4-0.3,0.4-0.5l1.4-16.4C81.5,59,81.4,58.7,81.2,58.6z M79,75.2l-6,2.1c-0.2,0.1-0.4,0.3-0.4,0.5    c0,0,0,0,0,0l-0.2,2.8c-0.2,2.2-1.2,4.1-2.8,5.5c-1.7,1.4-3.7,2.1-5.9,1.9l-0.6,0c-2.2-0.2-4.1-1.2-5.5-2.8    c-1.4-1.7-2.1-3.7-1.9-5.9l2.2-27.8c0.3-4.2,3.9-7.5,8.1-7.5c0.2,0,0.4,0,0.6,0l0.6,0c4.5,0.4,7.8,4.3,7.5,8.7l-0.2,3.1    c0,0.2,0.1,0.4,0.3,0.6l5.6,3.1L79,75.2z"/><path fill="#000000" d="M72.1,62c-0.2,0.1-0.3,0.3-0.3,0.5L71,71.7c0,0.2,0.1,0.4,0.2,0.5    c0.1,0.1,0.2,0.1,0.4,0.1c0.1,0,0.1,0,0.2,0l2.7-0.9c0.2-0.1,0.4-0.3,0.4-0.5l0.6-6.9c0-0.2-0.1-0.5-0.3-0.6L72.6,62    C72.5,61.9,72.2,61.9,72.1,62z M74.3,64.2l-0.5,6.2l-1.5,0.5l0.6-7.5L74.3,64.2z"/><path fill="#000000" d="M50,11.5c-19.9,0-36.2,16.2-36.2,36.2c0,1.8,0.1,3.7,0.4,5.5c0.4,1.9,2.1,3.2,4,3.2    c2.2,0,4.1-1.8,4.1-4.1c0,0,0-0.1,0-0.1c0,0,0-0.1,0-0.1c-0.2-1.5-0.4-3-0.4-4.5c0-15.5,12.6-28.1,28.1-28.1s28.1,12.6,28.1,28.1    c0,1.5-0.1,3-0.4,4.5c0,0,0,0.1,0,0.1c0,0,0,0.1,0,0.1c0,2.2,1.8,4.1,4.1,4.1c1.9,0,3.6-1.4,4-3.3c0.3-1.8,0.4-3.7,0.4-5.5    C86.2,27.7,69.9,11.5,50,11.5z M84.6,53c-0.3,1.3-1.5,2.3-2.8,2.3c-1.6,0-2.9-1.3-2.9-2.9l0-0.1c0.2-1.5,0.4-3.1,0.4-4.6    c0-16.1-13.1-29.3-29.3-29.3S20.7,31.5,20.7,47.7c0,1.5,0.1,3.1,0.4,4.6l0,0.1c0,1.6-1.3,2.9-2.9,2.9c-1.4,0-2.5-1-2.8-2.3    c-0.3-1.8-0.4-3.5-0.4-5.3c0-19.3,15.7-35,35-35s35,15.7,35,35C85,49.5,84.9,51.3,84.6,53z"/></g><path display="inline" fill="#000000" d="M90.1,26c-0.5-0.5-1.2-0.7-1.9-0.6c-1.7,0.1-4.3,0.1-7.6-1   c-2-0.6-3.6-1.6-5.3-2.7c-3.2-2-6.8-4.2-13.6-4.2c0,0,0,0,0,0c-7.3,0-10.6,3.2-11.7,4.6c-1.1-1.5-4.4-4.6-11.7-4.6c0,0,0,0,0,0   c-6.7,0-10.4,2.2-13.6,4.2c-1.7,1-3.3,2-5.3,2.7c-3.3,1.1-6,1.1-7.6,1c-0.7-0.1-1.4,0.2-1.9,0.6c-0.5,0.5-0.8,1.1-0.8,1.8v48.6   c0,2.2,1.8,4.1,4.1,4.1h28c0.1,0,0.1,0.1,0.1,0.1c0,1.4,1.1,2.5,2.5,2.5h12.5c1.4,0,2.5-1.1,2.5-2.5c0-0.1,0.1-0.1,0.1-0.1h28   c2.2,0,4.1-1.8,4.1-4.1V27.9C90.9,27.2,90.6,26.5,90.1,26z M48.9,69.4c0,1.1-0.5,2.2-1.3,3l-2.1,2.1c-0.8,0.8-1.9,1.3-3.1,1.3H16.9   c-1.4,0-2.5-1.1-2.5-2.5V33.7c0-1.2,0.8-2.3,2-2.5c0.7-0.2,1.4-0.3,2.1-0.6c2-0.7,3.7-1.7,5.5-2.9c3.3-2.1,7.1-4.5,14.1-4.2   c9.7,0.4,10.9,6,10.9,6.3c0,0,0,0.1,0,0.1L48.9,69.4z M85.6,73.3c0,1.4-1.1,2.5-2.5,2.5H57.6c-1.1,0-2.2-0.5-3.1-1.3l-2.1-2.1   c-0.8-0.8-1.3-1.9-1.3-3L51,29.9c0,0,0-0.1,0-0.1c0-0.2,1.3-5.8,10.9-6.3c7-0.3,10.7,2.1,14.1,4.2c1.8,1.1,3.4,2.2,5.5,2.9   c0.7,0.2,1.4,0.4,2.1,0.6c1.2,0.3,2,1.3,2,2.5V73.3z"/><path display="inline" fill="#000000" stroke="#010202" stroke-width="2" stroke-linecap="round" stroke-linejoin="round" stroke-miterlimit="10" d="   M3661.9-1190.5l-55.1-7c-2.2-0.3-4.1,1.4-4.1,3.6v73.9c0,2,1.6,3.6,3.6,3.6h55.1c2,0,3.6-1.6,3.6-3.6v-66.9   C3665.1-1188.7,3663.7-1190.2,3661.9-1190.5z"/><path display="inline" fill="#000000" stroke="#010202" stroke-width="2" stroke-linecap="round" stroke-linejoin="round" stroke-miterlimit="10" d="   M3638-1203.7v-22.6c0-2.3-1.9-4.2-4.2-4.2l0,0c-2.3,0-4.2,1.9-4.2,4.2v21.6c0,0-29.8-3.8-29.8-3.8c-3.1-0.4-5.9,2-5.9,5.2v93.1   c0,2.9,2.3,5.2,5.2,5.2h69.2c2.9,0,5.2-2.3,5.2-5.2v-84.3c0-2.6-2-4.9-4.6-5.2L3638-1203.7L3638-1203.7z"/><path display="inline" fill="#000000" stroke="#010202" stroke-width="2" stroke-linecap="round" stroke-linejoin="round" stroke-miterlimit="10" d="   M3633.1-1249.6c0.4-0.5,1.2-0.5,1.6,0c1.1,1.3,3.1,2.7,5.6,4.1c3.6,2.1,6,6.1,6,10.6c0,3.1-1.1,5.9-3,8.1c-0.2,0.2-0.3,0.4-0.3,0.7   c0,1.3,0,5.8,0,8.4c0,0.8,0.9,1.3,1.6,0.9c6.2-3.6,10.3-10.4,10.3-18.1c0-7.2-3.6-13.6-9.2-17.3l0,0c-3.4-2.2-6.1-5.3-7.7-9   c-0.5-1.7-2.1-3-4-3s-3.5,1.3-4,3c-1.7,3.7-4.4,6.8-7.7,9l0,0c-5.6,3.8-9.2,10.1-9.2,17.3c0,7.7,4.2,14.4,10.3,18.1   c0.7,0.4,1.6-0.1,1.6-0.9c0-2.5,0-7,0-8.4c0-0.3-0.1-0.5-0.3-0.7c-1.9-2.2-3-5-3-8.1c0-4.5,2.3-8.5,6-10.6   C3630-1246.9,3632-1248.4,3633.1-1249.6z"/><path display="inline" fill="#000000" stroke="#010202" stroke-width="2" stroke-linecap="round" stroke-linejoin="round" stroke-miterlimit="10" d="   M3675.5-938.1h-83.3c-3.1,0-5.6-2.5-5.6-5.6v-64.5c0-1.9,1.5-3.4,3.4-3.4h87.7c1.9,0,3.4,1.5,3.4,3.4v64.5   C3681.1-940.6,3678.6-938.1,3675.5-938.1z"/><path display="inline" fill="#000000" stroke="#010202" stroke-width="2" stroke-linecap="round" stroke-linejoin="round" stroke-miterlimit="10" d="   M3605.2-984.4h-8.5c-1.8,0-3.2-1.5-3.2-3.2l0,0c0-1.8,1.5-3.2,3.2-3.2h8.5c0,0,0-11.2,0-11.2c0-1.8,1.5-3.2,3.2-3.2l0,0   c1.8,0,3.2,1.5,3.2,3.2c0,0,0,11.3,0,11.2h18.9c0,0,0-11.2,0-11.2c0-1.8,1.5-3.2,3.2-3.2l0,0c1.8,0,3.2,1.5,3.2,3.2v11.3   c0,0,18.9,0,18.9,0c0,0,0-11.2,0-11.2c0-1.8,1.5-3.2,3.2-3.2l0,0c1.8,0,3.2,1.5,3.2,3.2v11.3c0,0,8.5,0,8.5,0   c1.8,0,3.2,1.5,3.2,3.2l0,0c0,1.8-1.5,3.2-3.2,3.2h-8.5c0,0,0,17.3,0,17.3h8.5c1.8,0,3.2,1.5,3.2,3.2l0,0c0,1.8-1.5,3.2-3.2,3.2   h-8.5c0,0,0,12.4,0,12.4c0,1.8-1.5,3.2-3.2,3.2l0,0c-1.8,0-3.2-1.5-3.2-3.2v-12.4c0,0-18.9,0-18.9,0c0,0,0,12.4,0,12.4   c0,1.8-1.5,3.2-3.2,3.2l0,0c-1.8,0-3.2-1.5-3.2-3.2v-12.4c0,0-18.9,0-18.9,0c0,0,0,12.4,0,12.4c0,1.8-1.5,3.2-3.2,3.2l0,0   c-1.8,0-3.2-1.5-3.2-3.2v-12.4c0,0-8.5,0-8.5,0c-1.8,0-3.2-1.5-3.2-3.2l0,0c0-1.8,1.5-3.2,3.2-3.2h8.5   C3605.2-967.1,3605.2-984.4,3605.2-984.4z"/><path display="inline" fill="#000000" stroke="#010202" stroke-width="2" stroke-linecap="round" stroke-linejoin="round" stroke-miterlimit="10" d="   M3637.1-967.1h18.9c0,0,0-17.3,0-17.3h-18.9C3637.1-984.4,3637.1-967.1,3637.1-967.1z"/><rect x="3611.7" y="-984.4" display="inline" fill="#000000" stroke="#010202" stroke-width="2" stroke-linecap="round" stroke-linejoin="round" stroke-miterlimit="10" width="18.9" height="17.3"/><path display="inline" fill="#000000" stroke="#010202" stroke-width="2" stroke-linecap="round" stroke-linejoin="round" stroke-miterlimit="10" d="   M3605.3-1028.4L3605.3-1028.4c-2.9,0-5.2-2.4-5.2-5.2v-24.5c0-2.9,2.4-5.2,5.2-5.2l0,0c2.9,0,5.2,2.4,5.2,5.2v24.5   C3610.6-1030.8,3608.2-1028.4,3605.3-1028.4z"/><path display="inline" fill="#000000" stroke="#010202" stroke-width="2" stroke-linecap="round" stroke-linejoin="round" stroke-miterlimit="10" d="   M3662.4-1028.4L3662.4-1028.4c-2.9,0-5.2-2.4-5.2-5.2v-24.5c0-2.9,2.4-5.2,5.2-5.2l0,0c2.9,0,5.2,2.4,5.2,5.2v24.5   C3667.7-1030.8,3665.3-1028.4,3662.4-1028.4z"/><path display="inline" fill="#000000" stroke="#010202" stroke-width="2" stroke-linecap="round" stroke-linejoin="round" stroke-miterlimit="10" d="   M3673.2-1043.7v11.3c0,5.9-4.8,10.8-10.8,10.8l0,0c-5.9,0-10.8-4.8-10.8-10.8v-11.3c0,0-35.5,0-35.5,0v11.3   c0,5.9-4.8,10.8-10.8,10.8l0,0c-5.9,0-10.8-4.8-10.8-10.8v-11.3c0,0-5.3,0-5.3,0c-8,0-14.5,6.5-14.5,14.5v88.1   c0,8,6.5,14.5,14.5,14.5h89.2c8,0,14.5-6.5,14.5-14.5v-88.1c0-8-6.5-14.5-14.5-14.5C3678.5-1043.7,3673.2-1043.7,3673.2-1043.7z"/><circle display="inline" fill="#000000" stroke="#010202" stroke-width="2" stroke-linecap="round" stroke-linejoin="round" stroke-miterlimit="10" cx="3600.4" cy="-866.8" r="18"/><circle display="inline" fill="#000000" stroke="#010202" stroke-width="2" stroke-linecap="round" stroke-linejoin="round" stroke-miterlimit="10" cx="3667.4" cy="-866.8" r="18"/><path display="inline" fill="#000000" stroke="#010202" stroke-width="2" stroke-linecap="round" stroke-linejoin="round" stroke-miterlimit="10" d="   M3633.9-827.4L3633.9-827.4c6.3,0,11.4,5.2,11.4,11.4v85.4c0,5.3,4.3,9.6,9.6,9.6l0,0c5.3,0,9.6-4.3,9.6-9.6c0,0,0-31.9,0-31.9   c0-1.8,1.5-3.3,3.3-3.3s3.3,1.5,3.3,3.3v31.9c0,5.3,4.3,9.6,9.6,9.6l0,0c5.3,0,9.6-4.3,9.6-9.6c0,0,0-79.1,0-79.1c0-1.7,1.3-3,3-3   c1.7,0,3,1.3,3,3v32.5c0,3.6,2.9,6.5,6.5,6.5l0,0c3.6,0,6.5-2.9,6.5-6.5c0,0,0-30.5,0-30.5c0-19.3-15.6-34.9-34.9-34.9h-40.4   c0,0-40.4,0-40.4,0c-19.3,0-34.9,15.6-34.9,34.9c0,0,0,30.5,0,30.5c0,3.6,2.9,6.5,6.5,6.5l0,0c3.6,0,6.5-2.9,6.5-6.5v-32.5   c0-1.7,1.3-3,3-3c1.7,0,3,1.3,3,3c0,0,0,79.1,0,79.1c0,5.3,4.3,9.6,9.6,9.6l0,0c5.3,0,9.6-4.3,9.6-9.6v-31.9c0-1.8,1.5-3.3,3.3-3.3   s3.3,1.5,3.3,3.3c0,0,0,31.9,0,31.9c0,5.3,4.3,9.6,9.6,9.6l0,0c5.3,0,9.6-4.3,9.6-9.6V-816C3622.4-822.3,3627.6-827.4,3633.9-827.4   C3633.9-827.4,3633.9-827.4,3633.9-827.4z"/><path display="inline" fill="#000000" stroke="#010202" stroke-width="2" stroke-linecap="round" stroke-linejoin="round" stroke-miterlimit="10" d="   M3588.4-553.4c1,2,1.5,4.3,1.5,6.7c0,8.4-6.8,15.2-15.2,15.2c-8.4,0-15.2-6.8-15.2-15.2c0-7.3,5.2-13.4,12.1-14.9l0.1,0   c-1-2-1.6-4.3-1.6-6.7c0-8.4,6.8-15.2,15.2-15.2c8.4,0,15.2,6.8,15.2,15.2C3600.6-561,3595.4-554.9,3588.4-553.4L3588.4-553.4z"/><circle display="inline" fill="#000000" stroke="#010202" stroke-width="2" stroke-linecap="round" stroke-linejoin="round" stroke-miterlimit="10" cx="3574.8" cy="-546.8" r="6.5"/><circle display="inline" fill="#000000" stroke="#010202" stroke-width="2" stroke-linecap="round" stroke-linejoin="round" stroke-miterlimit="10" cx="3585.4" cy="-568.3" r="6.5"/><path display="inline" fill="#000000" stroke="#010202" stroke-width="2" stroke-linecap="round" stroke-linejoin="round" stroke-miterlimit="10" d="   M3594.7-594.8c-2.6,0.7-5.3,1-8,1c-17.9,0-32.4-14.5-32.4-32.4c0-12,6.6-22.6,16.3-28.1c-0.3-1.7-0.4-3.4-0.4-5.1   c0-17.3,14-31.3,31.3-31.3c7.6,0,14.6,2.7,20.1,7.3l0,0c5.6-8.3,15.2-13.8,26-13.8c15.1,0,27.8,10.7,30.7,25l0,0.1   c3.2-1.1,6.7-1.8,10.4-1.8c17.3,0,31.3,14,31.3,31.3c0,12.3-7.1,22.9-17.3,28l0,0c0.3,1.7,0.4,3.5,0.4,5.3   c0,17.3-14,31.3-31.3,31.3c-7.7,0-14.8-2.8-20.3-7.5l0,0c-5.6,8.7-15.3,14.4-26.4,14.4C3610.4-571.1,3598.1-581.2,3594.7-594.8   L3594.7-594.8z"/><path display="inline" fill="#000000" stroke="#010202" stroke-width="2" stroke-linecap="round" stroke-linejoin="round" stroke-miterlimit="10" d="   M3646.9-595.2c-3.9,9.2-13.6,15.5-24.5,14.3c-11.3-1.2-20.2-10.6-20.9-21.9c0-0.2,0-0.4,0-0.6c-0.1-1.8-1.9-2.9-3.5-2.1   c-3.7,1.8-8,2.6-12.6,2.1c-10.4-1.2-18.8-9.4-20.1-19.8c-1.5-11.9,6.1-22.3,16.8-25.1l0,0c-1.6-3.5-2.4-7.4-2-11.5   c0.9-11.4,10.2-20.5,21.6-21.2c8-0.5,15.2,3.1,19.7,9c1.2,1.5,3.6,1.2,4.3-0.6c3.7-9.4,13.3-15.9,24.3-14.9   c11.4,1,20.6,10.4,21.4,21.9c0,0.1,0,0.1,0,0.2c0.1,1.8,2,3,3.6,2.1c4-2.2,8.7-3.4,13.6-3c11.6,0.9,21,10.4,21.8,22   c0.8,11.9-7.2,22.1-18.1,24.8l0,0c1,3,1.4,6.3,1.2,9.7c-1,12-10.9,21.6-22.9,22.2c-7.7,0.4-14.7-2.9-19.4-8.2   C3649.8-597.3,3647.6-596.9,3646.9-595.2z"/><path display="inline" fill="#000000" stroke="#010202" stroke-width="2" stroke-linecap="round" stroke-linejoin="round" stroke-miterlimit="10" d="   M3655.1-459.1c0-11.1-8.3-20.7-19.3-21.7c-12.6-1.1-23.2,8.8-23.2,21.2c0,0,28.5,0,35.6,0c0.9,0,1.6,0.7,1.6,1.6c0,2.1,0,5.7,0,7.7   c0,0.9-0.7,1.6-1.6,1.6c-7.1,0-35.6,0-35.6,0v15.6c0,2.6-2.1,4.7-4.7,4.7l0,0c-2.6,0-4.7-2.1-4.7-4.7v-26c0-16.2,12.3-30,28.4-31.2   c18-1.3,33,12.9,33,30.6c0,0,23,0,23,0c4.7,0,8.7,3.2,9.1,7.2l10,116.8c0.5,5.4-3.7,9.9-9.2,9.9h-127.2c-5.5,0-9.6-4.5-9.2-9.9   l10-116.8c0.3-4,4.4-7.2,9.1-7.2c0,0,11.8,0,16.1,0c0.9,0,1.6,0.7,1.6,1.6v7.7c0,0.9-0.7,1.6-1.6,1.6c-2.6,0-7.3,0-7.3,0   c-3.9,0-7.3,2.7-7.6,6l-8.3,97.7c-0.4,4.5,3.1,8.3,7.7,8.3h106.4c4.6,0,8.1-3.7,7.7-8.3l-8.3-97.7c-0.3-3.3-3.7-6-7.6-6h-14.3   c0,0,0,15.6,0,15.6c0,2.6-2.1,4.7-4.7,4.7l0,0c-2.6,0-4.7-2.1-4.7-4.7V-459.1z"/><path display="inline" fill="#000000" stroke="#010202" stroke-width="2" stroke-linecap="round" stroke-linejoin="round" stroke-miterlimit="10" d="   M3576.8-206.2L3576.8-206.2"/><path display="inline" fill="#000000" stroke="#010202" stroke-width="2" stroke-linecap="round" stroke-linejoin="round" stroke-miterlimit="10" d="   M3636-156.6l21.4-14.9c1-0.7,1.6-1.9,1.6-3.1v-30.2c0-2.1-1.7-3.8-3.8-3.8h-21.4h-21.4c-2.1,0-3.8,1.7-3.8,3.8v30.2   c0,1.3,0.6,2.4,1.6,3.1l21.4,14.9C3633-155.7,3634.7-155.7,3636-156.6z"/><path display="inline" fill="#000000" stroke="#010202" stroke-width="2" stroke-linecap="round" stroke-linejoin="round" stroke-miterlimit="10" d="   M3635.2-167.1l12.6-8.7c0.6-0.4,1-1.1,1-1.8v-17.8c0-1.2-1-2.2-2.2-2.2h-12.6h-12.6c-1.2,0-2.2,1-2.2,2.2v17.8c0,0.7,0.4,1.4,1,1.8   l12.6,8.7C3633.4-166.6,3634.4-166.6,3635.2-167.1z"/><path display="inline" fill="#000000" stroke="#010202" stroke-width="2" stroke-linecap="round" stroke-linejoin="round" stroke-miterlimit="10" d="   M3633.9-140.2h42.2c2.2,0,4-1.8,4-4v-75.2c-16.3-4.9-28.4-19.9-28.4-37.7v-2.9l0,0c-2.7,7.2-9.7,12.3-17.8,12.3l0,0c0,0,0,0,0,0   c-8.1,0-15.1-5.1-17.8-12.3l0,0v2.9c0,17.8-12,32.8-28.4,37.7v75.2c0,2.2,1.8,4,4,4C3591.7-140.2,3633.9-140.2,3633.9-140.2z"/><path display="inline" fill="#000000" stroke="#010202" stroke-width="2" stroke-linecap="round" stroke-linejoin="round" stroke-miterlimit="10" d="   M3633.9-130.2h49c4.6,0,8.3-3.7,8.3-8.3c0,0,0-56,0-56c3.4,0.1,6.1,2.9,6.1,6.3v15.4c0,8.2,6.7,14.9,14.9,14.9l0,0v-8.9l0,0   c-3.5,0-6.3-2.8-6.3-6.3v-18.1c0-8.1-6.6-14.8-14.7-14.9c0,0,0-22.3,0-22.3c-17.2,0-31.2-14.1-31.2-31.2v-34.9h-15.7   c0,0,0,26.2,0,26.2c0,5.4-4.4,9.8-9.8,9.8h-0.5c0,0-0.5,0-0.5,0c-5.4,0-9.8-4.4-9.8-9.8c0,0,0-26.2,0-26.2h-15.7v34.9   c0,17.2-14.1,31.2-31.2,31.2c0,0,0,22.3,0,22.3c-8.1,0.1-14.7,6.8-14.7,14.9v18.1c0,3.5-2.8,6.3-6.3,6.3l0,0v8.9h0   c8.2,0,14.9-6.7,14.9-14.9v-15.4c0-3.4,2.7-6.2,6.1-6.3c0,0,0,56,0,56c0,4.6,3.7,8.3,8.3,8.3   C3584.9-130.2,3633.9-130.2,3633.9-130.2z"/><path display="inline" fill="#000000" d="M92.5,92.3l-5.7-67.2c-0.2-2.6-2.8-4.7-5.8-4.7H68.2   c-0.2-4.8-2.3-9.5-5.8-12.8c-3.7-3.5-8.6-5.2-13.8-4.8c-9.5,0.7-16.9,8.8-16.9,18.5v14.9c0,1.8,1.5,3.3,3.3,3.3   c1.8,0,3.3-1.5,3.3-3.3v-8.4h19.9c0.8,0,1.5-0.7,1.5-1.5l0-4.5c0-0.8-0.7-1.5-1.5-1.5c-3.6,0-16.9,0-19.9,0c0.2-3.1,1.5-6,3.8-8   c2.4-2.2,5.6-3.3,8.9-3c5.9,0.5,10.6,5.8,10.6,11.9v15c0,1.8,1.5,3.3,3.3,3.3c1.8,0,3.3-1.5,3.3-3.3c0-2.5,0-6.9,0-8.4h7.6   c2,0,3.7,1.3,3.8,2.9l4.8,56.3c0.1,1.1-0.3,2.1-1,2.9c-0.7,0.8-1.7,1.2-2.9,1.2H19.4c-1.1,0-2.1-0.4-2.9-1.2   c-0.7-0.8-1.1-1.8-1-2.9l4.8-56.3c0.1-1.6,1.8-2.9,3.8-2.9h4.2c0.8,0,1.5-0.7,1.5-1.5v-4.5c0-0.8-0.7-1.5-1.5-1.5l-9.3,0   c-3,0-5.6,2.1-5.8,4.7L7.5,92.3C7.4,94,7.9,95.6,9,96.8c1.1,1.2,2.7,1.9,4.4,1.9h73.2c1.7,0,3.3-0.7,4.4-1.9   C92.1,95.6,92.6,94,92.5,92.3z M90.1,96c-0.9,1-2.1,1.5-3.5,1.5H13.4c-1.4,0-2.6-0.5-3.5-1.5c-0.9-1-1.3-2.2-1.2-3.6l5.7-67.2   c0.2-2,2.3-3.6,4.7-3.6l9.3,0c0.2,0,0.3,0.2,0.3,0.3v4.5c0,0.2-0.2,0.3-0.3,0.3h-4.2c-2.5,0-4.8,1.8-4.9,4L14.4,87   c-0.1,1.4,0.3,2.8,1.3,3.8c0.9,1,2.3,1.6,3.7,1.6h61.2c1.4,0,2.8-0.6,3.7-1.6c0.9-1,1.4-2.4,1.3-3.8l-4.8-56.3   c-0.2-2.2-2.4-4-4.9-4h-8.2c-0.6,0-0.6,0.5-0.6,1l0,8.6c0,1.2-1,2.1-2.1,2.1c-1.2,0-2.1-1-2.1-2.1v-15c0-6.7-5.1-12.5-11.7-13   c-3.6-0.3-7.1,0.9-9.8,3.3c-2.6,2.4-4.2,5.9-4.2,9.5c0,0,0,0.1,0,0.1c0.1,0.5,0.1,0.5,3.2,0.5h17.9c0.2,0,0.3,0.2,0.3,0.3l0,4.5   c0,0.2-0.2,0.3-0.3,0.3H37.8c-0.3,0-0.6,0.3-0.6,0.6v9c0,1.2-1,2.1-2.1,2.1c-1.2,0-2.1-1-2.1-2.1V21.3c0-9.1,6.9-16.7,15.8-17.4   c4.8-0.4,9.4,1.3,12.9,4.5c3.5,3.2,5.5,7.8,5.5,12.5c0,0.3,0.3,0.6,0.6,0.6h13.3c2.4,0,4.5,1.6,4.6,3.6l5.7,67.2   C91.4,93.8,91,95,90.1,96z"/></g><g><g><path fill="#000000" d="M31.6,63.2c-1.8-1.8-4.7-1.8-6.4,0L4.5,83.9c-1.8,1.8-1.8,4.7,0,6.4l5.5,5.5    c0.9,0.9,2,1.3,3.2,1.3c1.2,0,2.4-0.5,3.2-1.3l20.7-20.7c1.8-1.8,1.8-4.7,0-6.4L31.6,63.2z"/><path fill="#000000" d="M86.9,13.5C73.7,0.2,52.2,0.2,39,13.5c-11.8,11.8-13.2,30.6-3.4,44l-1.1,1.1    c-1,1-1,2.7,0,3.7l3.6,3.6c1,1,2.7,1,3.7,0l1.1-1.1c5.9,4.4,13,6.5,20,6.5c8.7,0,17.5-3.3,24-9.9C100.1,48.1,100.1,26.7,86.9,13.5    z M81.9,56.4c-5.1,5.1-11.8,7.9-19,7.9c-7.2,0-13.9-2.8-19-7.9c-10.5-10.5-10.5-27.5,0-37.9C54.4,8,71.5,8,81.9,18.4    C92.4,28.9,92.4,45.9,81.9,56.4z"/></g></g><text x="0" y="115" fill="#000000" font-size="5px" font-weight="bold" font-family="'Helvetica Neue', Helvetica, Arial-Unicode, Arial, Sans-serif">Created by Ilaria Bernareggi</text><text x="0" y="120" fill="#000000" font-size="5px" font-weight="bold" font-family="'Helvetica Neue', Helvetica, Arial-Unicode, Arial, Sans-serif">from the Noun Project</text></svg>