<svg xmlns="http://www.w3.org/2000/svg" data-name="Layer 1" viewBox="0 0 64 80" x="0px" y="0px"><title>Think</title><path d="M30,6V2a2,2,0,0,1,4,0V6a2,2,0,0,1-4,0ZM13.62,14.44a2,2,0,1,0,2.82-2.82L13.62,8.79a2,2,0,1,0-2.83,2.83ZM49,15a2,2,0,0,0,1.41-.59l2.83-2.82a2,2,0,1,0-2.83-2.83l-2.82,2.83A2,2,0,0,0,49,15ZM4,32H8a2,2,0,0,0,0-4H4a2,2,0,0,0,0,4Zm56-4H56a2,2,0,0,0,0,4h4a2,2,0,0,0,0-4ZM12,30A20,20,0,1,1,42,47.3V56a2,2,0,0,1-2,2H24a2,2,0,0,1-2-2V47.3A19.86,19.86,0,0,1,12,30Zm4,0a15.93,15.93,0,0,0,8.89,14.32A2,2,0,0,1,26,46.11V54H38V46.11a2,2,0,0,1,1.11-1.79A16,16,0,1,0,16,30ZM36,64a2,2,0,0,0,0-4H28a2,2,0,0,0,0,4Z"/><text x="0" y="79" fill="#000000" font-size="5px" font-weight="bold" font-family="'Helvetica Neue', Helvetica, Arial-Unicode, Arial, Sans-serif">Created by Mello</text><text x="0" y="84" fill="#000000" font-size="5px" font-weight="bold" font-family="'Helvetica Neue', Helvetica, Arial-Unicode, Arial, Sans-serif">from the Noun Project</text></svg>