<svg xmlns="http://www.w3.org/2000/svg" xmlns:xlink="http://www.w3.org/1999/xlink" version="1.1" x="0px" y="0px" viewBox="0 0 100 125" style="enable-background:new 0 0 100 100;" xml:space="preserve"><path d="M50,17c-18.2,0-33,14.8-33,33s14.8,33,33,33s33-14.8,33-33S68.2,17,50,17z M37.9,59.9c-1.2,1.2-3.1,1.2-4.3,0  c-1-1-1.1-2.5-0.5-3.6c-2.9-0.9-5.6-2.2-8.1-3.9c-1.4-0.8,0.2-3.5,1.7-2.5c3,2.1,11.8,5.3,18.5,4.1c2.1-0.5,2.2,2.8,0.5,3  c-1.4,0.2-5.7,0.3-7,0.3C38.8,58.2,38.6,59.2,37.9,59.9z M39.4,69.8c0-4.2,20.6-4.2,20.6,0C60,71.6,39.4,71.6,39.4,69.8z M74.9,52.4  c-2.5,1.7-5.3,3-8.1,3.9c0.7,1.2,0.5,2.6-0.5,3.6c-1.2,1.2-3.1,1.2-4.3,0c-0.7-0.7-1-1.7-0.8-2.6c-1.3,0.1-4.9,0.2-6.9-0.3  c-2-0.3-1.6-3.4,0.5-3c4.8,0.7,11.8,0,18.5-4.1C75.1,48.4,76.8,50.9,74.9,52.4z"/><text x="0" y="115" fill="#000000" font-size="5px" font-weight="bold" font-family="'Helvetica Neue', Helvetica, Arial-Unicode, Arial, Sans-serif">Created by DesignBite</text><text x="0" y="120" fill="#000000" font-size="5px" font-weight="bold" font-family="'Helvetica Neue', Helvetica, Arial-Unicode, Arial, Sans-serif">from the Noun Project</text></svg>