<svg xmlns="http://www.w3.org/2000/svg" xmlns:xlink="http://www.w3.org/1999/xlink" version="1.1" x="0px" y="0px" viewBox="0 0 66 82.5" enable-background="new 0 0 66 66" xml:space="preserve"><g><path d="M61.1288,19.3971l-45.38,43.75c-0.94,0.9-2.42,0.86-3.31-0.0699c-0.9-0.94-0.87-2.42,0.0699-3.32l44.95-43.35   c1.49-1.43,2.25-3.5,1.89-5.51c-0.74-4.17-5.11-5.15-7.51-2.84c-0.74,0.71-0.67,1.65-0.31,3.75c0.4,2.29,0.93,5.42-1.68,7.94   c-2.61,2.51-5.69,1.84-7.96,1.35c-2.0699-0.44-3-0.56-3.74,0.16c-0.74,0.72-0.66,1.65-0.31,3.75c0.4,2.28,0.93,5.42-1.67,7.93   c-2.61,2.51-5.7,1.84-7.96,1.36c-2.08-0.44-3-0.56-3.74,0.15c-0.75,0.72-0.67,1.65-0.3,3.74c0.39,2.3,0.92,5.43-1.69,7.94   c-2.59,2.51-5.69,1.85-7.96,1.36c-1.1-0.25-1.88-0.39-2.47-0.36c-1.71,1.54-4.83,3.12-6.05,3.45c-1.8,0.49-3.65-0.58-4.13-2.38   c-0.49-1.8,0.58-3.66,2.37-4.14c0.74-0.2,2.34-0.36,3.97-0.36c2.46-1.85,5.22-1.25,7.3-0.81c2.08,0.45,3,0.56,3.73-0.15   c0.75-0.71,0.67-1.63,0.31-3.74c-0.39-2.3-0.93-5.42,1.68-7.93c2.6-2.52,5.7-1.86,7.96-1.36c2.08,0.45,3,0.56,3.74-0.16   c0.74-0.71,0.67-1.64,0.31-3.75c-0.4-2.29-0.94-5.41,1.67-7.93c2.61-2.51,5.7-1.85,7.96-1.36c2.08,0.45,3,0.56,3.74-0.15   c0.74-0.72,0.67-1.64,0.31-3.75c-0.41-2.43-1-5.83,2.22-8.41c3.6801-2.95,9.19-2.6,12.39,0.85   C65.2988,9.1271,65.1388,15.5171,61.1288,19.3971z"/></g><text x="0" y="81" fill="#000000" font-size="5px" font-weight="bold" font-family="'Helvetica Neue', Helvetica, Arial-Unicode, Arial, Sans-serif">Created by Vectors Point</text><text x="0" y="86" fill="#000000" font-size="5px" font-weight="bold" font-family="'Helvetica Neue', Helvetica, Arial-Unicode, Arial, Sans-serif">from the Noun Project</text></svg>