<svg xmlns="http://www.w3.org/2000/svg" xmlns:xlink="http://www.w3.org/1999/xlink" version="1.1" x="0px" y="0px" viewBox="0 0 48 60" enable-background="new 0 0 48 48" xml:space="preserve"><g><path d="M30.7,31.5c0,3.7-3,6.7-6.7,6.7c-0.6,0-1,0.4-1,1s0.4,1,1,1c4.8,0,8.7-3.9,8.7-8.7c0-0.6-0.4-1-1-1   C31.2,30.5,30.7,31,30.7,31.5z"/><path d="M48,36.4l-0.3-1.5c-1.5-6.9-6.8-12.3-13.6-14l2.4-1.4c3.9-2.2,6.3-6.4,6.3-10.9V4.3c0-0.6-0.4-1-1-1c-0.6,0-1,0.4-1,1v4.3   c0,3.8-2,7.3-5.3,9.2l-1,0.6c2.4-3.9,2.5-8.9,0.1-12.9l-0.1-0.2c-0.3-0.5-0.9-0.6-1.4-0.4c-0.5,0.3-0.6,0.9-0.4,1.4l0.1,0.2   c1.7,2.9,1.9,6.4,0.7,9.4c-0.2-5.1-4.4-9.1-9.5-9.1c-5.1,0-9.3,4.1-9.5,9.1c-1.2-3-1-6.5,0.7-9.4l0.1-0.2c0.3-0.5,0.1-1.1-0.4-1.4   c-0.5-0.3-1.1-0.1-1.4,0.4l-0.1,0.2c-2.4,4.1-2.3,9,0.1,12.9l-1-0.6c-3.3-1.9-5.3-5.4-5.3-9.2V4.3c0-0.6-0.4-1-1-1   c-0.6,0-1,0.4-1,1v4.3c0,4.5,2.4,8.7,6.3,10.9l2.4,1.4c-6.8,1.7-12.1,7.1-13.6,14L0,36.4c-0.1,0.5,0.2,1.1,0.8,1.2   c0.1,0,0.1,0,0.2,0c0.5,0,0.9-0.3,1-0.8l0.3-1.5c1.2-5.5,5.1-9.9,10.2-11.9C8.2,26.6,5.4,31.5,5,36.9l-0.3,4.5c0,0.6,0.4,1,0.9,1.1   c0,0,0.1,0,0.1,0c0.5,0,1-0.4,1-0.9L7,37c0.3-3.9,2-7.6,4.7-10.3c-0.6,1.5-0.9,3.1-0.9,4.8c0,7.3,5.9,13.2,13.2,13.2   c7.3,0,13.2-5.9,13.2-13.2c0-1.7-0.3-3.3-0.9-4.8C39,29.5,40.7,33.1,41,37l0.3,4.5c0,0.5,0.5,0.9,1,0.9c0,0,0.1,0,0.1,0   c0.5,0,1-0.5,0.9-1.1L43,36.9c-0.4-5.4-3.2-10.3-7.5-13.5c5.1,2,9,6.4,10.2,11.9l0.3,1.5c0.1,0.5,0.5,0.8,1,0.8c0.1,0,0.1,0,0.2,0   C47.8,37.4,48.1,36.9,48,36.4z M24,42.7c-6.2,0-11.2-5-11.2-11.2c0-3.8,1.9-7.3,5-9.3c0.2-0.2,0.4-0.4,0.4-0.7c0-0.3,0-0.6-0.2-0.8   c-1-1.3-1.6-2.9-1.6-4.6c0-4.1,3.4-7.5,7.5-7.5s7.5,3.4,7.5,7.5c0,1.7-0.5,3.3-1.6,4.6c-0.2,0.2-0.2,0.5-0.2,0.8   c0,0.3,0.2,0.5,0.4,0.7c3.2,2.1,5,5.6,5,9.3C35.2,37.7,30.2,42.7,24,42.7z"/><path d="M27.4,14.4c0.3,0,0.5-0.1,0.7-0.3c0.2-0.2,0.3-0.4,0.3-0.7c0-0.3-0.1-0.5-0.3-0.7c-0.4-0.4-1.1-0.4-1.4,0   c-0.2,0.2-0.3,0.4-0.3,0.7c0,0.3,0.1,0.5,0.3,0.7C26.9,14.4,27.1,14.4,27.4,14.4z"/><path d="M19.9,12.7c-0.2,0.2-0.3,0.4-0.3,0.7c0,0.3,0.1,0.5,0.3,0.7c0.2,0.2,0.4,0.3,0.7,0.3c0.3,0,0.5-0.1,0.7-0.3   c0.2-0.2,0.3-0.4,0.3-0.7c0-0.3-0.1-0.5-0.3-0.7C21,12.4,20.3,12.4,19.9,12.7z"/></g><text x="0" y="63" fill="#000000" font-size="5px" font-weight="bold" font-family="'Helvetica Neue', Helvetica, Arial-Unicode, Arial, Sans-serif">Created by Vectors Market</text><text x="0" y="68" fill="#000000" font-size="5px" font-weight="bold" font-family="'Helvetica Neue', Helvetica, Arial-Unicode, Arial, Sans-serif">from the Noun Project</text></svg>