<svg xmlns="http://www.w3.org/2000/svg" xmlns:xlink="http://www.w3.org/1999/xlink" version="1.0" x="0px" y="0px" viewBox="0 0 100 125" enable-background="new 0 0 100 100" xml:space="preserve"><path d="M76.0744019,59.3795433l-6.3579559,1.1465187l5.8368149-3.5437813l4.6902924,1.8761177l5.2338333-2.3461685  l1.4368134-10.1007118c0-1.4175758-1.4066925-2.45784-2.8241653-2.45784l-40.3265686,2.2930336l-11.6736298-0.8338318  l-11.9694309-1.4592018h-3.3884583c-1.4176579,0-2.3610125,1.0402641-2.3610125,2.45784l2.0845766,25.4754829l-0.1860695,1.6407928  l4.7721386,0.7564697l6.3579578-6.149498h11.7778568l-9.7975082,3.3353195l-3.5437813,7.5044785L15.3354473,81.76371  l-0.9645128,8.5058441c0,1.4174652,0.9433546,2.4632187,2.3610125,2.4632187l17.0255489,2.5014877l32.7278557-4.3776093  l17.6046829,1.8761215c1.4174728,0,2.8241653-1.0457535,2.8241653-2.4632187L85.731041,63.0275536h-6.4255447L76.0744019,59.3795433  z M43.1967087,81.9019394l3.1496735-13.589859c-1.9054298-1.3484497-3.1496735-3.5696259-3.1496735-6.0817108  c0-4.1121597,3.3336983-7.4458351,7.4460487-7.4458351c4.1119499,0,7.4456482,3.3336754,7.4456482,7.4458351  c0,2.512085-1.2440338,4.7332611-3.1496696,6.0817108l3.3646507,14.5189514L43.1967087,81.9019394z"/><path d="M34.3828697,39.4718361v-4.1327133c0-8.7635612,6.94627-15.89398,15.7096405-15.8945847h0.3415985  c8.7633553,0.0006046,15.7096443,7.1310234,15.7096443,15.8945847v3.4031143l14.8004913-0.6253738v-2.7777405  c0-16.8760033-13.5928955-30.607235-30.4694214-30.6085701h-0.4230232  C33.1752739,4.7318878,19.5823765,18.4631195,19.5823765,35.3391228v2.7777405h0.6253719L34.3828697,39.4718361z"/><text x="0" y="115" fill="#000000" font-size="5px" font-weight="bold" font-family="'Helvetica Neue', Helvetica, Arial-Unicode, Arial, Sans-serif">Created by Alex Tai</text><text x="0" y="120" fill="#000000" font-size="5px" font-weight="bold" font-family="'Helvetica Neue', Helvetica, Arial-Unicode, Arial, Sans-serif">from the Noun Project</text></svg>