<svg xmlns="http://www.w3.org/2000/svg" xmlns:xlink="http://www.w3.org/1999/xlink" viewBox="0 0 60 75" version="1.1" x="0px" y="0px"><title>019 - Crate </title><desc>Created with Sketch.</desc><g stroke="none" stroke-width="1" fill="none" fill-rule="evenodd" stroke-linecap="round" stroke-linejoin="round"><g transform="translate(1.000000, 1.000000)" stroke="#000000" stroke-width="2"><rect x="0" y="0" width="58" height="8"/><rect x="0" y="50" width="58" height="8"/><rect transform="translate(3.999960, 28.999955) rotate(-90.000000) translate(-3.999960, -28.999955) " x="-17.000085" y="24.999955" width="42.00009" height="8"/><polyline points="15 37.34 15 8 22 8 22 30.34"/><polyline points="22 30.34 22 8 29 8 29 23.34"/><polyline points="29 23.34 29 8 36 8 36 16.34"/><polyline points="43 20.66 43 50 36 50 36 27.66"/><polyline points="36 27.66 36 50 29 50 29 34.66"/><polyline points="29 34.66 29 50 22 50 22 41.66"/><polyline points="13.66 50 29 34.66 34.66 29 50 13.66"/><polyline points="8 44.34 23.34 29 29 23.34 44.34 8"/><rect transform="translate(53.999960, 28.999955) rotate(-90.000000) translate(-53.999960, -28.999955) " x="32.999915" y="24.999955" width="42.00009" height="8"/><path d="M4,4 L5,4"/><path d="M53,4 L54,4"/><path d="M4,54 L5,54"/><path d="M53,54 L54,54"/></g></g><text x="0" y="75" fill="#000000" font-size="5px" font-weight="bold" font-family="'Helvetica Neue', Helvetica, Arial-Unicode, Arial, Sans-serif">Created by Creaticca Creative Agency</text><text x="0" y="80" fill="#000000" font-size="5px" font-weight="bold" font-family="'Helvetica Neue', Helvetica, Arial-Unicode, Arial, Sans-serif">from the Noun Project</text></svg>