<svg xmlns="http://www.w3.org/2000/svg" xmlns:xlink="http://www.w3.org/1999/xlink" version="1.1" preserveAspectRatio="none" x="0px" y="0px" viewBox="0 0 100 125"><defs><g id="a"><path fill="#000000" stroke="none" d=" M 26.2 60.6 Q 26.7 63.5 33.2 69.35 39.95 74.4 48.75 74.8 51.1 74.85 53.65 74.65 63.35 73 70.05 66.75 74.75 61.8 74.55 60 73.4 57.9 70.15 60.25 62.4 65.2 54.55 66.1 51.6 66.4 48.75 66.35 42.2 66.15 36.45 63.65 34.7 62.9 32.85 61.95 30.65 60.7 28.25 59.25 25.8 57.75 26.2 60.6 M 24.25 41.05 Q 26.7 43.45 30.15 43.45 33.55 43.45 35.95 41.05 38.35 38.55 38.35 35.15 38.35 31.7 35.95 29.25 33.55 26.85 30.15 26.85 26.7 26.85 24.25 29.25 21.85 31.7 21.85 35.15 21.85 38.55 24.25 41.05 M 61.85 35 Q 61.85 38.45 64.25 40.9 66.65 43.3 70.15 43.3 73.5 43.3 75.95 40.9 78.35 38.45 78.35 35 78.35 31.6 75.95 29.2 73.5 26.8 70.15 26.8 66.65 26.8 64.25 29.2 61.85 31.6 61.85 35 Z"/></g></defs><g transform="matrix( 1, 0, 0, 1, 0,0) "><use xlink:href="#a"/></g><text x="0" y="115" fill="#000000" font-size="5px" font-weight="bold" font-family="'Helvetica Neue', Helvetica, Arial-Unicode, Arial, Sans-serif">Created by Kris Prepiakova</text><text x="0" y="120" fill="#000000" font-size="5px" font-weight="bold" font-family="'Helvetica Neue', Helvetica, Arial-Unicode, Arial, Sans-serif">from the Noun Project</text></svg>