<svg xmlns="http://www.w3.org/2000/svg" viewBox="0 0 50 82.5" x="0px" y="0px"><path fill="#000000" d="M83,550.367218 L83,540 C83,538.343146 84.3431458,537 86,537 L94,537 C95.6568542,537 97,538.343146 97,540 L97,548.617218 L97.3798263,548.569739 C100.119926,548.227227 102.618877,550.170856 102.961389,552.910955 C102.987105,553.116679 103,553.323804 103,553.531129 L103,564.549402 L103.447842,564.499641 C106.192377,564.194693 108.66447,566.172368 108.969419,568.916902 C108.989791,569.10025 109,569.284584 109,569.46906 L109,582.4132 L109.584773,582.364469 C112.336658,582.135146 114.753405,584.180086 114.982729,586.931971 C114.994238,587.070081 115,587.20861 115,587.347198 L115,602 C115,602.552285 114.552285,603 114,603 C113.447715,603 113,602.552285 113,602 L113,587.347198 C113,587.264045 112.996543,587.180928 112.989637,587.098062 C112.852043,585.446931 111.401995,584.219967 109.750864,584.357561 L69.7508636,587.690894 C68.1959872,587.820467 67,589.120266 67,590.680532 L67,602 C67,602.552285 66.5522847,603 66,603 C65.4477153,603 65,602.552285 65,602 L65,590.680532 C65,588.080088 66.993312,585.913758 69.5847726,585.697803 L71,585.579867 L71,572.580171 C71,570.032425 72.915679,567.892104 75.4478424,567.610752 L77,567.438291 L77,555.531129 C77,553.009513 78.8776822,550.882508 81.3798263,550.569739 L83,550.367218 Z M95,548.867218 L95,540 C95,539.447715 94.5522847,539 94,539 L86,539 C85.4477153,539 85,539.447715 85,540 L85,550.117218 L95,548.867218 Z M91,561 L91,565.882735 L101,564.771624 L101,553.531129 C101,553.406734 100.992263,553.282459 100.976834,553.159025 C100.771326,551.514965 99.2719556,550.348788 97.6278958,550.554295 L81.6278958,552.554295 C80.1266093,552.741956 79,554.018159 79,555.531129 L79,567.216068 L89,566.104957 L89,561 C89,560.447715 89.4477153,560 90,560 C90.5522847,560 91,560.447715 91,561 Z M91,583.9132 L107,582.579867 L107,569.46906 C107,569.358375 106.993874,569.247774 106.981651,569.137765 C106.798682,567.491045 105.315426,566.30444 103.668705,566.487409 L75.6687054,569.59852 C74.1494074,569.767331 73,571.051524 73,572.580171 L73,585.4132 L89,584.079867 L89,579 C89,578.447715 89.4477153,578 90,578 C90.5522847,578 91,578.447715 91,579 L91,583.9132 Z M91,602 C91,602.552285 90.5522847,603 90,603 C89.4477153,603 89,602.552285 89,602 L89,596 C89,595.447715 89.4477153,595 90,595 C90.5522847,595 91,595.447715 91,596 L91,602 Z" transform="translate(-65 -537)"/><text x="0" y="81" fill="#000000" font-size="5px" font-weight="bold" font-family="'Helvetica Neue', Helvetica, Arial-Unicode, Arial, Sans-serif">Created by Andrejs Kirma</text><text x="0" y="86" fill="#000000" font-size="5px" font-weight="bold" font-family="'Helvetica Neue', Helvetica, Arial-Unicode, Arial, Sans-serif">from the Noun Project</text></svg>