<svg xmlns="http://www.w3.org/2000/svg" xmlns:xlink="http://www.w3.org/1999/xlink" version="1.1" x="0px" y="0px" viewBox="-0.0002441 0 208 220" enable-background="new -0.0002441 0 208 176" xml:space="preserve"><g><path d="M173.6481934,85.0908203l8.5810547-42.4130859h-3.2548828c-1.8847656,0.0029297-3.9072266,0.3266602-6.0546875,0.9008789   c-3.7539063,1.0087891-7.8945313,2.7998047-12.0625,5.2290039c-6.2412109,3.6489258-12.5302734,8.7338867-17.3466797,14.8999023   c-2.1298828,2.7270508-3.9414063,5.6777344-5.3369141,8.8076172   c-4.9082031-11.3925781-16.2324219-19.3686523-29.4228516-19.3696289H85.845459   c-4.4042969,0.0048828-9.8974609,0.8681641-15.7880859,2.3925781c-8.8251953,2.296875-18.4804688,6.0795898-26.1308594,10.9746094   c-3.8271484,2.4555664-7.1601563,5.1865234-9.6269531,8.265625c-0.0078125,0.0078125-0.0126953,0.0166016-0.0175781,0.0244141   v-7.9599609c0-2.4501953-1.9863281-4.4360352-4.4384766-4.4360352c-2.4482422,0-4.4345703,1.9858398-4.4345703,4.4360352   v37.0478516c0,2.4501953,1.9863281,4.4355469,4.4345703,4.4355469c2.4521484,0,4.4384766-1.9853516,4.4384766-4.4355469v-8.3652344   c2.0537109,2.5849609,4.7207031,4.9179688,7.7724609,7.0576172c6.3896484,4.453125,14.4873047,8.0556641,22.40625,10.5996094   c3.9589844,1.2685547,7.8691406,2.2685547,11.5029297,2.9541016c3.6376953,0.6855469,6.9882813,1.0625,9.8818359,1.0634766   h22.9052734c13.1826172-0.0009766,24.4990234-7.9648438,29.4121094-19.34375   c0.6416016,1.4375,1.3701172,2.8378906,2.1835938,4.1904297c4.5908203,7.6279297,11.6074219,13.9267578,18.7275391,18.4091797   c3.5664063,2.2402344,7.1621094,4.0195313,10.5419922,5.2578125c3.3847656,1.2333984,6.5380859,1.9462891,9.3583984,1.9541016   h3.2519531l-0.6416016-3.1884766L173.6481934,85.0908203z M134.0866699,86.8808594   c0.2861328,0.512207,0.7197266,0.8852539,1.2138672,1.112793c-0.6552734,6.2495117-3.4570313,11.8452148-7.6689453,16.0620117   c-4.8408203,4.8359375-11.5009766,7.8193359-18.8808594,7.8203125H94.9489746   c1.2822266-0.7167969,1.7392578-2.3388672,1.0214844-3.6210938c-0.7167969-1.2832031-2.3388672-1.7412109-3.6210938-1.0244141   l-0.5820313,0.3251953c-1.28125,0.71875-1.7421875,2.3398438-1.0244141,3.6240234   c0.1533203,0.2744141,0.3535156,0.5019531,0.5771484,0.6962891H85.845459   c-3.7050781,0.0058594-8.8886719-0.7744141-14.4492188-2.2226563c-8.3525391-2.1611328-17.6201172-5.8251953-24.5976563-10.3037109   c-3.4912109-2.2314453-6.3974609-4.6689453-8.3417969-7.1074219c-0.9746094-1.2177734-1.7109375-2.4306641-2.1943359-3.609375   c-0.4833984-1.1801758-0.7197266-2.3188477-0.7197266-3.4599609c0-1.5180664,0.4208984-3.046875,1.2861328-4.6494141   c1.5058594-2.7973633,4.4355469-5.7231445,8.2753906-8.3955078c5.75-4.0214844,13.4628906-7.4882813,20.9814453-9.8955078   c3.7587891-1.2050781,7.4736328-2.1513672,10.8662109-2.7919922c3.3896484-0.640625,6.4648438-0.972168,8.8935547-0.9711914   h4.9882813c-0.0878906,0.109375-0.1738281,0.2197266-0.2441406,0.3447266   c-0.7275391,1.2763672-0.2861328,2.9023438,0.9931641,3.6313477l0.5771484,0.3305664   c1.2763672,0.7275391,2.9033203,0.284668,3.6318359-0.9931641c0.6367188-1.1137695,0.3769531-2.4956055-0.5488281-3.3134766   h13.5078125c7.3798828,0.0014648,14.0400391,2.984375,18.8808594,7.8212891   c4.2480469,4.2514648,7.0605469,9.9033203,7.6875,16.2163086c-0.4941406,0.222168-0.9287109,0.5917969-1.2197266,1.0996094   c-0.2939453,0.5161133-0.3867188,1.0869141-0.3222656,1.6352539   C133.7067871,85.7890625,133.7956543,86.3608398,134.0866699,86.8808594z M174.2976074,121.625   c-3.1689453-0.8476563-6.9433594-2.4580078-10.7548828-4.6845703c-5.7246094-3.3378906-11.5419922-8.0683594-15.8369141-13.5791016   c-2.1494141-2.7548828-3.9199219-5.6982422-5.1474609-8.7490234c-0.9248047-2.3095703-1.5390625-4.6767578-1.7851563-7.0908203   c-0.1855469-2.1821289-0.0371094-3.940918-0.0498047-4.1552734c0.3349609-4.277832,1.8427734-8.4228516,4.1884766-12.3276367   c3.9921875-6.6704102,10.4453125-12.5341797,16.9960938-16.6416016c3.2705078-2.0561523,6.5634766-3.6772461,9.5380859-4.7661133   c1.4941406-0.5512695,2.9111328-0.9609375,4.1933594-1.230957l-0.7851563,3.8852539   c-0.2988281-0.1030273-0.6318359-0.1123047-0.9462891,0.019043l-1.2275391,0.5136719   c-0.6787109,0.284668-0.9980469,1.0644531-0.7148438,1.7416992c0.2861328,0.6787109,1.0664063,0.9980469,1.7421875,0.7138672   l0.5898438-0.2470703l-2.0019531,9.9018555c-0.2470703-0.6811523-0.9902344-1.0424805-1.6787109-0.8071289l-1.2587891,0.4316406   c-0.6962891,0.237793-1.0654297,0.9941406-0.8291016,1.6894531c0.2392578,0.6953125,0.9960938,1.065918,1.6894531,0.828125   l1.2607422-0.4301758c0.2265625-0.0766602,0.4003906-0.2211914,0.5488281-0.387207l-3.8115234,18.8354492l6.2685547,31.1186523   c-0.4707031,0.0136719-0.9228516,0.2578125-1.1523438,0.7070313c-0.3349609,0.6542969-0.0751953,1.4560547,0.5800781,1.7900391   l0.3798828,0.1933594c0.2441406,0.125,0.5039063,0.1425781,0.7558594,0.1123047l0.5927734,2.9384766   C175.2077637,121.8564453,174.760498,121.75,174.2976074,121.625z"/><circle cx="64.9489746" cy="72.9440918" r="6.6550293"/><path d="M120.3757324,78.8520508l1.2275391,0.6992188c1.2763672,0.7280273,2.9013672,0.2817383,3.6289063-0.9956055   c0.7275391-1.277832,0.2832031-2.902832-0.9960938-3.6303711l-1.2236328-0.699707   c-1.2792969-0.7275391-2.9042969-0.2817383-3.6318359,0.9960938   C118.6520996,76.4980469,119.0974121,78.1240234,120.3757324,78.8520508z"/><path d="M105.6540527,70.4638672l1.2275391,0.699707c1.2783203,0.7280273,2.9033203,0.2817383,3.6318359-0.9956055   c0.7275391-1.277832,0.2832031-2.902832-0.9960938-3.6303711l-1.2265625-0.699707   c-1.2773438-0.7275391-2.9013672-0.2817383-3.6289063,0.9960938   C103.9333496,68.1103516,104.3776855,69.7363281,105.6540527,70.4638672z"/><path d="M113.0134277,74.6572266l1.2275391,0.6992188c1.2792969,0.7280273,2.9033203,0.2822266,3.6318359-0.9941406   c0.7275391-1.277832,0.2832031-2.9038086-0.9960938-3.6318359l-1.2265625-0.6977539   c-1.2763672-0.7280273-2.9013672-0.2836914-3.6289063,0.9941406   C111.2927246,72.3046875,111.7370605,73.9296875,113.0134277,74.6572266z"/><path d="M127.736084,83.0449219l1.2265625,0.6992188c1.2763672,0.7280273,2.9013672,0.2822266,3.6289063-0.9941406   c0.7285156-1.277832,0.2832031-2.9038086-0.9931641-3.6318359l-1.2265625-0.6977539   c-1.2792969-0.7280273-2.9042969-0.2836914-3.6318359,0.9941406S126.4567871,82.3173828,127.736084,83.0449219z"/><path d="M98.2946777,66.2695313l1.2275391,0.6992188c1.2763672,0.7280273,2.9033203,0.2822266,3.6318359-0.9941406   c0.7275391-1.277832,0.2802734-2.9038086-0.9960938-3.6318359l-1.2265625-0.6977539   c-1.2763672-0.7280273-2.9042969-0.2836914-3.6318359,0.9941406   C96.5739746,63.9169922,97.0183105,65.5419922,98.2946777,66.2695313z"/><path d="M128.9987793,86.6831055l-1.2216797,0.6850586c-1.28125,0.71875-1.7392578,2.3427734-1.0185547,3.6240234   c0.7197266,1.2832031,2.3417969,1.7392578,3.6230469,1.0205078l1.2226563-0.6855469   c1.28125-0.71875,1.7382813-2.3408203,1.0185547-3.6220703C131.9050293,86.421875,130.282959,85.9643555,128.9987793,86.6831055z"/><path d="M99.6774902,103.1220703l-1.2216797,0.6845703c-1.2841797,0.71875-1.7392578,2.3417969-1.0214844,3.6240234   c0.7207031,1.2822266,2.3427734,1.7392578,3.6240234,1.0205078l1.2216797-0.6845703   c1.2822266-0.71875,1.7392578-2.3427734,1.0214844-3.6240234   C102.5817871,102.859375,100.9597168,102.4033203,99.6774902,103.1220703z"/><path d="M114.3395996,94.9033203l-1.2216797,0.6845703c-1.2841797,0.71875-1.7392578,2.3417969-1.0214844,3.6230469   c0.7197266,1.2832031,2.3417969,1.7402344,3.6240234,1.0214844l1.2216797-0.6845703   c1.28125-0.7207031,1.7392578-2.3427734,1.0214844-3.6240234C117.2438965,94.640625,115.6208496,94.1845703,114.3395996,94.9033203   z"/><path d="M107.0085449,99.0117188l-1.2216797,0.6855469c-1.2841797,0.71875-1.7392578,2.3417969-1.0214844,3.6240234   c0.7197266,1.2822266,2.3417969,1.7392578,3.6240234,1.0195313l1.2216797-0.6845703   c1.28125-0.71875,1.7392578-2.3408203,1.0214844-3.6240234C109.9128418,98.7509766,108.2907715,98.2929688,107.0085449,99.0117188z   "/><path d="M121.6706543,90.7929688l-1.2216797,0.6855469c-1.2841797,0.71875-1.7421875,2.3408203-1.0214844,3.6240234   c0.7197266,1.2822266,2.3417969,1.7392578,3.6230469,1.0195313l1.2226563-0.6845703   c1.28125-0.71875,1.7392578-2.3408203,1.0185547-3.6240234C124.5739746,90.5302734,122.9519043,90.0742188,121.6706543,90.7929688z   "/><path d="M161.6140137,109.0449219c-0.4677734-0.5664063-1.3076172-0.6484375-1.8740234-0.1806641   c-0.5673828,0.4667969-0.6474609,1.3066406-0.1796875,1.8730469h-0.0029297l0.7333984,0.890625   c0.1191406,0.1435547,0.2578125,0.2548828,0.4238281,0.3388672l0.1582031,0.0810547   c0.6552734,0.3339844,1.4560547,0.0751953,1.7910156-0.5800781c0.3046875-0.5976563,0.0966797-1.3017578-0.4365234-1.6767578   L161.6140137,109.0449219z"/><path d="M148.9196777,93.6347656l-0.8447266-1.0273438c-0.4677734-0.5673828-1.3076172-0.6484375-1.8740234-0.1806641   c-0.5664063,0.4667969-0.6503906,1.3066406-0.1816406,1.8730469l0.8466797,1.0273438   c0.4658203,0.5683594,1.3056641,0.6484375,1.8720703,0.1816406   C149.307373,95.0410156,149.3884277,94.203125,148.9196777,93.6347656z"/><path d="M145.5349121,89.5263672l-0.8466797-1.0283203c-0.4658203-0.5668945-1.3056641-0.6474609-1.8720703-0.1806641   c-0.5693359,0.4677734-0.6503906,1.3056641-0.1816406,1.8730469l0.8466797,1.0283203   c0.4658203,0.5673828,1.3056641,0.6484375,1.8720703,0.1806641   C145.9226074,90.9326172,146.0036621,90.0927734,145.5349121,89.5263672z"/><path d="M155.689209,101.8544922l-0.8447266-1.0283203c-0.4677734-0.5664063-1.3076172-0.6484375-1.8740234-0.1806641   c-0.5673828,0.4667969-0.6474609,1.3066406-0.1826172,1.8730469l0.8476563,1.0283203   c0.4677734,0.5664063,1.3056641,0.6484375,1.875,0.1806641C156.0769043,103.2597656,156.1569824,102.421875,155.689209,101.8544922   z"/><path d="M159.0739746,105.9638672l-0.8447266-1.0273438c-0.4677734-0.5683594-1.3076172-0.6484375-1.8740234-0.1816406   c-0.5673828,0.4677734-0.6474609,1.3056641-0.1826172,1.8740234l0.8476563,1.0273438   c0.4677734,0.5673828,1.3056641,0.6484375,1.8740234,0.1816406   C159.4616699,107.3701172,159.541748,106.53125,159.0739746,105.9638672z"/><path d="M152.3044434,97.7451172l-0.8447266-1.0273438c-0.4677734-0.5683594-1.3076172-0.6484375-1.8740234-0.1816406   c-0.5664063,0.4677734-0.6503906,1.3056641-0.1826172,1.8740234l0.8476563,1.0273438   c0.4677734,0.5673828,1.3056641,0.6484375,1.8720703,0.1806641   C152.6921387,99.1513672,152.7722168,98.3115234,152.3044434,97.7451172z"/><path d="M166.8259277,112.0976563l-1.1855469-0.6044922c-0.6542969-0.3339844-1.4580078-0.0742188-1.7910156,0.5791016   c-0.3349609,0.6552734-0.0751953,1.4570313,0.5800781,1.7910156l1.1855469,0.6044922   c0.6552734,0.3359375,1.4560547,0.0761719,1.7910156-0.5791016   C167.7390137,113.2333984,167.4782715,112.4316406,166.8259277,112.0976563z"/><path d="M171.5681152,114.5185547l-1.1855469-0.6054688c-0.6552734-0.3339844-1.4580078-0.0742188-1.7910156,0.5810547   c-0.3359375,0.6542969-0.0751953,1.4560547,0.5800781,1.7900391l1.1845703,0.6054688   c0.6552734,0.3339844,1.4560547,0.0742188,1.7919922-0.5810547   C172.4802246,115.6533203,172.2233887,114.8525391,171.5681152,114.5185547z"/><path d="M163.8884277,59.3896484L165.1159668,58.875c0.6787109-0.284668,0.9980469-1.0644531,0.7119141-1.7416992   c-0.2832031-0.6787109-1.0634766-0.9985352-1.7412109-0.7138672l-1.2275391,0.5151367   c-0.6787109,0.2832031-0.9980469,1.0629883-0.7119141,1.7416992   C162.4304199,59.3544922,163.2106934,59.6728516,163.8884277,59.3896484z"/><path d="M168.7995605,57.3310547l1.2265625-0.5136719c0.6787109-0.284668,0.9960938-1.0644531,0.7128906-1.7431641   c-0.2832031-0.6772461-1.0634766-0.9970703-1.7421875-0.7124023l-1.2265625,0.5151367   c-0.6787109,0.2832031-0.9990234,1.0629883-0.7148438,1.7416992   C167.3405762,57.2958984,168.1208496,57.6152344,168.7995605,57.3310547z"/><path d="M147.0895996,78.9038086l0.8349609-1.0356445c0.4599609-0.5722656,0.3710938-1.4106445-0.2001953-1.8720703   c-0.5742188-0.4614258-1.4121094-0.3701172-1.8720703,0.2016602l-0.8369141,1.0356445   c-0.4599609,0.5722656-0.3691406,1.4106445,0.203125,1.8720703   C145.7897949,79.5668945,146.626709,79.4770508,147.0895996,78.9038086z"/><path d="M157.111084,66.46875l0.8378906-1.0361328c0.4599609-0.5717773,0.3691406-1.4101563-0.203125-1.8720703   c-0.5722656-0.4609375-1.4091797-0.371582-1.8720703,0.2016602l-0.8339844,1.0361328   c-0.4599609,0.5717773-0.3720703,1.4101563,0.2001953,1.871582C155.814209,67.1313477,156.651123,67.0405273,157.111084,66.46875z"/><path d="M160.454834,62.3232422l0.8339844-1.0356445c0.4599609-0.5722656,0.3720703-1.4106445-0.2021484-1.8720703   c-0.5722656-0.4614258-1.4091797-0.371582-1.8691406,0.2016602l-0.8378906,1.0361328   c-0.4599609,0.5717773-0.3710938,1.4101563,0.203125,1.871582   C159.1550293,62.9863281,159.9919434,62.8955078,160.454834,62.3232422z"/><path d="M153.7712402,70.6137695l0.8339844-1.0361328c0.4628906-0.5717773,0.3720703-1.4101563-0.2001953-1.871582   c-0.5712891-0.4614258-1.4091797-0.3720703-1.8710938,0.2011719l-0.8349609,1.0361328   c-0.4628906,0.5717773-0.3720703,1.4101563,0.2001953,1.871582S153.3103027,71.1870117,153.7712402,70.6137695z"/><path d="M150.4304199,74.7587891l0.8339844-1.0361328c0.4628906-0.5717773,0.3720703-1.4101563-0.2001953-1.871582   c-0.5712891-0.4614258-1.4111328-0.3706055-1.8710938,0.2016602l-0.8349609,1.0356445   c-0.4619141,0.5717773-0.3710938,1.4106445,0.2001953,1.871582   C149.1306152,75.421875,149.9675293,75.3320313,150.4304199,74.7587891z"/><path d="M143.7468262,83.0488281l0.8369141-1.0356445c0.4599609-0.5722656,0.3720703-1.4106445-0.203125-1.8720703   c-0.5712891-0.4614258-1.4082031-0.3701172-1.8710938,0.2016602l-0.8349609,1.0361328   c-0.4599609,0.5732422-0.3710938,1.4101563,0.203125,1.871582   C142.4499512,83.7119141,143.2868652,83.6220703,143.7468262,83.0488281z"/><path d="M170.0056152,106.7177734c0.6787109,0.2832031,1.4580078-0.0380859,1.7421875-0.7167969   c0.2832031-0.6787109-0.0390625-1.4580078-0.7177734-1.7402344l-1.2275391-0.5126953   c-0.6777344-0.2832031-1.4580078,0.0380859-1.7412109,0.7167969s0.0390625,1.4580078,0.7177734,1.7402344L170.0056152,106.7177734z   "/><path d="M152.2790527,94.7158203c0.5195313,0.5205078,1.3623047,0.5214844,1.8818359,0.0019531   c0.5195313-0.5205078,0.5224609-1.3623047,0.0029297-1.8828125l-0.9414063-0.9423828   c-0.5195313-0.5195313-1.3623047-0.5195313-1.8818359,0c-0.5205078,0.5185547-0.5205078,1.3623047-0.0029297,1.8828125   L152.2790527,94.7158203z"/><path d="M159.8044434,102.25c0.5205078,0.5195313,1.3623047,0.5214844,1.8828125,0.0009766   c0.5195313-0.5185547,0.5195313-1.3623047,0-1.8818359l-0.9384766-0.9423828c-0.5205078-0.5205078-1.3623047-0.5205078-1.8847656,0   c-0.5205078,0.5185547-0.5205078,1.3623047,0,1.8818359L159.8044434,102.25z"/><path d="M165.0925293,104.6699219c0.6787109,0.2822266,1.4580078-0.0390625,1.7412109-0.7167969   c0.28125-0.6787109-0.0390625-1.4580078-0.7167969-1.7412109l-1.2304688-0.5117188   c-0.6777344-0.2822266-1.4550781,0.0371094-1.7382813,0.7158203c-0.2841797,0.6796875,0.0361328,1.4589844,0.7148438,1.7421875   L165.0925293,104.6699219z"/><path d="M156.0427246,98.4833984c0.5175781,0.5195313,1.3623047,0.5205078,1.8828125,0.0009766   c0.5195313-0.5195313,0.5195313-1.3623047,0-1.8818359l-0.9414063-0.9423828c-0.5195313-0.5205078-1.3623047-0.5205078-1.8818359,0   c-0.5205078,0.5185547-0.5205078,1.3613281,0,1.8818359L156.0427246,98.4833984z"/><path d="M147.5759277,90.0078125l0.9414063,0.9414063c0.5195313,0.5195313,1.3623047,0.5214844,1.8818359,0.0009766   c0.5195313-0.5195313,0.5195313-1.3623047,0.0029297-1.8818359l-0.9414063-0.9423828   c-0.5195313-0.5200195-1.3623047-0.5200195-1.8818359-0.0009766   C147.0583496,88.6445313,147.0563965,89.4882813,147.5759277,90.0078125z"/><path d="M158.182373,71.6914063c-0.5224609-0.5161133-1.3642578-0.5097656-1.8818359,0.0126953l-0.9335938,0.9477539   c-0.5175781,0.5239258-0.5117188,1.3657227,0.0107422,1.8818359c0.5244141,0.5161133,1.3671875,0.5112305,1.8818359-0.0117188   l0.9355469-0.9472656C158.7126465,73.0507813,158.704834,72.2084961,158.182373,71.6914063z"/><path d="M146.7731934,83.2685547c-0.5234375-0.5161133-1.3652344-0.5092773-1.8828125,0.0131836   c0,0-1.0166016,1.0175781-1.0761719,1.0761719c-0.5195313,0.5200195-0.5195313,1.3632813,0,1.8833008l0.9414063,0.9414063   c0.5195313,0.5195313,1.3623047,0.5209961,1.8818359,0.0009766s0.5195313-1.3623047,0-1.8818359l-0.0048828-0.0068359   l0.1533203-0.1430664C147.3034668,84.628418,147.2976074,83.7861328,146.7731934,83.2685547z"/><path d="M160.0407715,67.9140625l-0.9355469,0.9472656c-0.5175781,0.5239258-0.5117188,1.3662109,0.0126953,1.8837891   c0.5224609,0.515625,1.3652344,0.5092773,1.8828125-0.0131836l0.9326172-0.9477539   c0.5175781-0.5234375,0.5126953-1.3662109-0.0097656-1.8818359   C161.3981934,67.3862305,160.5563965,67.3916016,160.0407715,67.9140625z"/><path d="M164.3200684,66.2763672c-0.6943359,0.237793-1.0654297,0.9941406-0.8261719,1.6894531   c0.2363281,0.6953125,0.9921875,1.065918,1.6894531,0.828125l1.2578125-0.4301758   c0.6972656-0.237793,1.0664063-0.9956055,0.8300781-1.6914063c-0.2392578-0.6953125-0.9960938-1.0654297-1.6904297-0.8276367   L164.3200684,66.2763672z"/><path d="M149.782959,82.1015625l0.9335938-0.9477539c0.5175781-0.5239258,0.5117188-1.3662109-0.0136719-1.8823242   c-0.5224609-0.515625-1.3642578-0.5107422-1.8818359,0.0117188l-0.9326172,0.9477539   c-0.5175781,0.5239258-0.5126953,1.3662109,0.0126953,1.8823242   C148.423584,82.6303711,149.2653809,82.6240234,149.782959,82.1015625z"/><path d="M153.5212402,78.3110352l0.9355469-0.9472656c0.515625-0.5229492,0.5097656-1.3662109-0.0126953-1.8823242   s-1.3671875-0.5107422-1.8818359,0.0131836l-0.9355469,0.9472656c-0.515625,0.5224609-0.5097656,1.3662109,0.0126953,1.8823242   S153.0036621,78.8349609,153.5212402,78.3110352z"/><path d="M152.5856934,85.1845703c0-0.6279297-0.5097656-1.137207-1.1367188-1.137207h-1.4316406   c-0.6289063,0-1.1386719,0.5092773-1.1386719,1.137207s0.5097656,1.137207,1.1386719,1.137207h1.4316406   C152.0759277,86.3217773,152.5856934,85.8125,152.5856934,85.1845703z"/><path d="M156.4772949,86.3217773c0.6289063,0,1.1386719-0.5092773,1.1386719-1.137207s-0.5097656-1.137207-1.1386719-1.137207   h-1.4326172c-0.6269531,0-1.1357422,0.5092773-1.1357422,1.137207s0.5087891,1.137207,1.1357422,1.137207H156.4772949z"/><path d="M162.6433105,85.1845703c0-0.6279297-0.5097656-1.137207-1.1357422-1.137207h-1.4326172   c-0.6289063,0-1.1386719,0.5092773-1.1386719,1.137207s0.5097656,1.137207,1.1386719,1.137207h1.4326172   C162.1335449,86.3217773,162.6433105,85.8125,162.6433105,85.1845703z"/><path d="M166.5349121,84.0473633h-1.4326172c-0.6259766,0-1.1357422,0.5092773-1.1357422,1.137207   s0.5097656,1.137207,1.1357422,1.137207h1.4326172c0.6289063,0,1.1386719-0.5092773,1.1386719-1.137207   S167.1638184,84.0473633,166.5349121,84.0473633z"/></g><text x="-0.0002441" y="191" fill="#000000" font-size="5px" font-weight="bold" font-family="'Helvetica Neue', Helvetica, Arial-Unicode, Arial, Sans-serif">Created by sachin modgekar</text><text x="-0.0002441" y="196" fill="#000000" font-size="5px" font-weight="bold" font-family="'Helvetica Neue', Helvetica, Arial-Unicode, Arial, Sans-serif">from the Noun Project</text></svg>